solid OpenSCAD_Model
  facet normal -1 0 0
    outer loop
      vertex -12 0 0
      vertex -12 0 10
      vertex -12 4 0
    endloop
  endfacet
  facet normal -1 0 0
    outer loop
      vertex -12 4 0
      vertex -12 0 10
      vertex -12 4 10
    endloop
  endfacet
  facet normal 0 -1 0
    outer loop
      vertex -7.86602 0 3.5
      vertex -12 0 0
      vertex 23.3 0 0
    endloop
  endfacet
  facet normal 0 -1 0
    outer loop
      vertex 16.134 0 3.5
      vertex -12 0 10
      vertex 23.3 0 0
    endloop
  endfacet
  facet normal 0 -1 0
    outer loop
      vertex -6.13397 0 3.5
      vertex -7.86602 0 3.5
      vertex 23.3 0 0
    endloop
  endfacet
  facet normal 0 -1 0
    outer loop
      vertex -12 0 10
      vertex -12 0 0
      vertex -7.86602 0 3.5
    endloop
  endfacet
  facet normal 0 -1 0
    outer loop
      vertex 16.134 0 6.5
      vertex 17.866 0 6.5
      vertex 23.3 0 10
    endloop
  endfacet
  facet normal 0 -1 0
    outer loop
      vertex -12 0 10
      vertex -7.86602 0 3.5
      vertex -8.73205 0 5
    endloop
  endfacet
  facet normal 0 -1 0
    outer loop
      vertex -5.26795 0 5
      vertex -6.13397 0 3.5
      vertex 23.3 0 0
    endloop
  endfacet
  facet normal 0 -1 0
    outer loop
      vertex -12 0 10
      vertex -8.73205 0 5
      vertex -7.86602 0 6.5
    endloop
  endfacet
  facet normal 0 -1 0
    outer loop
      vertex -12 0 10
      vertex -6.13397 0 6.5
      vertex 23.3 0 0
    endloop
  endfacet
  facet normal 0 -1 0
    outer loop
      vertex -12 0 10
      vertex -7.86602 0 6.5
      vertex -6.13397 0 6.5
    endloop
  endfacet
  facet normal 0 -1 0
    outer loop
      vertex 17.866 0 3.5
      vertex 16.134 0 3.5
      vertex 23.3 0 0
    endloop
  endfacet
  facet normal 0 -1 0
    outer loop
      vertex 15.2679 0 5
      vertex -12 0 10
      vertex 16.134 0 3.5
    endloop
  endfacet
  facet normal 0 -1 0
    outer loop
      vertex 16.134 0 6.5
      vertex -12 0 10
      vertex 15.2679 0 5
    endloop
  endfacet
  facet normal 0 -1 0
    outer loop
      vertex 17.866 0 6.5
      vertex 18.7321 0 5
      vertex 23.3 0 10
    endloop
  endfacet
  facet normal 0 -1 0
    outer loop
      vertex 23.3 0 10
      vertex -12 0 10
      vertex 16.134 0 6.5
    endloop
  endfacet
  facet normal 0 -1 0
    outer loop
      vertex 23.3 0 10
      vertex 18.7321 0 5
      vertex 23.3 0 0
    endloop
  endfacet
  facet normal 0 -1 0
    outer loop
      vertex 18.7321 0 5
      vertex 17.866 0 3.5
      vertex 23.3 0 0
    endloop
  endfacet
  facet normal 0 -1 0
    outer loop
      vertex -6.13397 0 6.5
      vertex -5.26795 0 5
      vertex 23.3 0 0
    endloop
  endfacet
  facet normal 0 0 -1
    outer loop
      vertex -12 0 0
      vertex -12 4 0
      vertex 23.3 0 0
    endloop
  endfacet
  facet normal 0 0 -1
    outer loop
      vertex 23.3 0 0
      vertex -12 4 0
      vertex 1.08983 4 0
    endloop
  endfacet
  facet normal 0 0 -1
    outer loop
      vertex 5.55 3.90289 0
      vertex 1.08983 4 0
      vertex 0.381759 5.38967 0
    endloop
  endfacet
  facet normal 0 0 -1
    outer loop
      vertex 3.57138 6.26091 0
      vertex 0.381759 5.38967 0
      vertex 0 7.8 0
    endloop
  endfacet
  facet normal 0 0 -1
    outer loop
      vertex 3.3 7.8 0
      vertex 0 7.8 0
      vertex 0.381759 10.2103 0
    endloop
  endfacet
  facet normal 0 0 -1
    outer loop
      vertex 4.3528 10.6925 0
      vertex 0.381759 10.2103 0
      vertex 1.48967 12.3847 0
    endloop
  endfacet
  facet normal 0 0 -1
    outer loop
      vertex 5.55 11.6971 0
      vertex 1.48967 12.3847 0
      vertex 3.21528 14.1103 0
    endloop
  endfacet
  facet normal 0 0 -1
    outer loop
      vertex 8.58142 12.2316 0
      vertex 3.21528 14.1103 0
      vertex 5.38967 15.2182 0
    endloop
  endfacet
  facet normal 0 0 -1
    outer loop
      vertex 10.05 11.6971 0
      vertex 5.38967 15.2182 0
      vertex 7.8 15.6 0
    endloop
  endfacet
  facet normal 0 0 -1
    outer loop
      vertex 23.3 11.55 0
      vertex 7.8 15.6 0
      vertex 23.3 15.6 0
    endloop
  endfacet
  facet normal 0 0 -1
    outer loop
      vertex 8.58142 12.2316 0
      vertex 5.38967 15.2182 0
      vertex 10.05 11.6971 0
    endloop
  endfacet
  facet normal 0 0 -1
    outer loop
      vertex 10.2253 11.55 0
      vertex 10.05 11.6971 0
      vertex 7.8 15.6 0
    endloop
  endfacet
  facet normal 0 0 -1
    outer loop
      vertex 7.01858 12.2316 0
      vertex 3.21528 14.1103 0
      vertex 8.58142 12.2316 0
    endloop
  endfacet
  facet normal 0 0 -1
    outer loop
      vertex 5.55 11.6971 0
      vertex 3.21528 14.1103 0
      vertex 7.01858 12.2316 0
    endloop
  endfacet
  facet normal 0 0 -1
    outer loop
      vertex 4.3528 10.6925 0
      vertex 1.48967 12.3847 0
      vertex 5.55 11.6971 0
    endloop
  endfacet
  facet normal 0 0 -1
    outer loop
      vertex 3.57138 9.33909 0
      vertex 0.381759 10.2103 0
      vertex 4.3528 10.6925 0
    endloop
  endfacet
  facet normal 0 0 -1
    outer loop
      vertex 3.3 7.8 0
      vertex 0.381759 10.2103 0
      vertex 3.57138 9.33909 0
    endloop
  endfacet
  facet normal 0 0 -1
    outer loop
      vertex 3.57138 6.26091 0
      vertex 0 7.8 0
      vertex 3.3 7.8 0
    endloop
  endfacet
  facet normal 0 0 -1
    outer loop
      vertex 4.3528 4.90746 0
      vertex 0.381759 5.38967 0
      vertex 3.57138 6.26091 0
    endloop
  endfacet
  facet normal 0 0 -1
    outer loop
      vertex 5.55 3.90289 0
      vertex 0.381759 5.38967 0
      vertex 4.3528 4.90746 0
    endloop
  endfacet
  facet normal 0 0 -1
    outer loop
      vertex 7.01858 3.36836 0
      vertex 1.08983 4 0
      vertex 5.55 3.90289 0
    endloop
  endfacet
  facet normal 0 0 -1
    outer loop
      vertex 8.58142 3.36836 0
      vertex 23.3 0 0
      vertex 7.01858 3.36836 0
    endloop
  endfacet
  facet normal 0 0 -1
    outer loop
      vertex 23.3 0 0
      vertex 1.08983 4 0
      vertex 7.01858 3.36836 0
    endloop
  endfacet
  facet normal 0 0 -1
    outer loop
      vertex 10.05 3.90289 0
      vertex 23.3 0 0
      vertex 8.58142 3.36836 0
    endloop
  endfacet
  facet normal 0 0 -1
    outer loop
      vertex 23.3 4.05 0
      vertex 23.3 0 0
      vertex 10.2253 4.05 0
    endloop
  endfacet
  facet normal 0 0 -1
    outer loop
      vertex 23.3 0 0
      vertex 10.05 3.90289 0
      vertex 10.2253 4.05 0
    endloop
  endfacet
  facet normal 0 0 -1
    outer loop
      vertex 10.2253 11.55 0
      vertex 7.8 15.6 0
      vertex 23.3 11.55 0
    endloop
  endfacet
  facet normal 0 1 0
    outer loop
      vertex -6.13397 4 6.5
      vertex -12 4 10
      vertex 1.08983 4 10
    endloop
  endfacet
  facet normal 0 1 0
    outer loop
      vertex -12 4 0
      vertex -12 4 10
      vertex -8.73205 4 5
    endloop
  endfacet
  facet normal 0 1 0
    outer loop
      vertex -12 4 0
      vertex -8.73205 4 5
      vertex -7.86602 4 3.5
    endloop
  endfacet
  facet normal 0 1 0
    outer loop
      vertex -12 4 0
      vertex -7.86602 4 3.5
      vertex 1.08983 4 0
    endloop
  endfacet
  facet normal 0 1 0
    outer loop
      vertex -7.86602 4 3.5
      vertex -6.13397 4 3.5
      vertex 1.08983 4 0
    endloop
  endfacet
  facet normal 0 1 0
    outer loop
      vertex -7.86602 4 6.5
      vertex -12 4 10
      vertex -6.13397 4 6.5
    endloop
  endfacet
  facet normal 0 1 0
    outer loop
      vertex 1.08983 4 0
      vertex -5.26795 4 5
      vertex 1.08983 4 10
    endloop
  endfacet
  facet normal 0 1 0
    outer loop
      vertex -5.26795 4 5
      vertex -6.13397 4 6.5
      vertex 1.08983 4 10
    endloop
  endfacet
  facet normal 0 1 0
    outer loop
      vertex -8.73205 4 5
      vertex -12 4 10
      vertex -7.86602 4 6.5
    endloop
  endfacet
  facet normal 0 1 0
    outer loop
      vertex -5.26795 4 5
      vertex 1.08983 4 0
      vertex -6.13397 4 3.5
    endloop
  endfacet
  facet normal 0 0 1
    outer loop
      vertex -12 4 10
      vertex -12 0 10
      vertex 23.3 0 10
    endloop
  endfacet
  facet normal 0 0 1
    outer loop
      vertex 5.55 3.90289 10
      vertex 1.08983 4 10
      vertex -12 4 10
    endloop
  endfacet
  facet normal 0 0 1
    outer loop
      vertex 7.01858 3.36836 10
      vertex -12 4 10
      vertex 23.3 0 10
    endloop
  endfacet
  facet normal 0 0 1
    outer loop
      vertex 23.3 4.05 10
      vertex 10.05 3.90289 10
      vertex 23.3 0 10
    endloop
  endfacet
  facet normal 0 0 1
    outer loop
      vertex 0.381759 10.2103 10
      vertex 0 7.8 10
      vertex 3.57138 9.33909 10
    endloop
  endfacet
  facet normal 0 0 1
    outer loop
      vertex 10.05 3.90289 10
      vertex 8.58142 3.36836 10
      vertex 23.3 0 10
    endloop
  endfacet
  facet normal 0 0 1
    outer loop
      vertex 8.58142 3.36836 10
      vertex 7.01858 3.36836 10
      vertex 23.3 0 10
    endloop
  endfacet
  facet normal 0 0 1
    outer loop
      vertex 0.381759 5.38967 10
      vertex 1.08983 4 10
      vertex 4.3528 4.90746 10
    endloop
  endfacet
  facet normal 0 0 1
    outer loop
      vertex 0 7.8 10
      vertex 3.57138 6.26091 10
      vertex 3.3 7.8 10
    endloop
  endfacet
  facet normal 0 0 1
    outer loop
      vertex 0 7.8 10
      vertex 0.381759 5.38967 10
      vertex 3.57138 6.26091 10
    endloop
  endfacet
  facet normal 0 0 1
    outer loop
      vertex 7.8 15.6 10
      vertex 5.55 11.6971 10
      vertex 7.01858 12.2316 10
    endloop
  endfacet
  facet normal 0 0 1
    outer loop
      vertex 23.3 15.6 10
      vertex 7.01858 12.2316 10
      vertex 8.58142 12.2316 10
    endloop
  endfacet
  facet normal 0 0 1
    outer loop
      vertex 23.3 11.55 10
      vertex 8.58142 12.2316 10
      vertex 10.05 11.6971 10
    endloop
  endfacet
  facet normal 0 0 1
    outer loop
      vertex 3.21528 14.1103 10
      vertex 1.48967 12.3847 10
      vertex 5.38967 15.2182 10
    endloop
  endfacet
  facet normal 0 0 1
    outer loop
      vertex 23.3 15.6 10
      vertex 8.58142 12.2316 10
      vertex 23.3 11.55 10
    endloop
  endfacet
  facet normal 0 0 1
    outer loop
      vertex 7.8 15.6 10
      vertex 7.01858 12.2316 10
      vertex 23.3 15.6 10
    endloop
  endfacet
  facet normal 0 0 1
    outer loop
      vertex 0.381759 10.2103 10
      vertex 4.3528 10.6925 10
      vertex 5.55 11.6971 10
    endloop
  endfacet
  facet normal 0 0 1
    outer loop
      vertex 1.48967 12.3847 10
      vertex 0.381759 10.2103 10
      vertex 7.8 15.6 10
    endloop
  endfacet
  facet normal 0 0 1
    outer loop
      vertex 5.38967 15.2182 10
      vertex 1.48967 12.3847 10
      vertex 7.8 15.6 10
    endloop
  endfacet
  facet normal 0 0 1
    outer loop
      vertex 7.8 15.6 10
      vertex 0.381759 10.2103 10
      vertex 5.55 11.6971 10
    endloop
  endfacet
  facet normal 0 0 1
    outer loop
      vertex 3.57138 9.33909 10
      vertex 0 7.8 10
      vertex 3.3 7.8 10
    endloop
  endfacet
  facet normal 0 0 1
    outer loop
      vertex 3.57138 6.26091 10
      vertex 0.381759 5.38967 10
      vertex 4.3528 4.90746 10
    endloop
  endfacet
  facet normal 0 0 1
    outer loop
      vertex 7.01858 3.36836 10
      vertex 5.55 3.90289 10
      vertex -12 4 10
    endloop
  endfacet
  facet normal 0 0 1
    outer loop
      vertex 10.2253 11.55 10
      vertex 23.3 11.55 10
      vertex 10.05 11.6971 10
    endloop
  endfacet
  facet normal 0 0 1
    outer loop
      vertex 0.381759 10.2103 10
      vertex 3.57138 9.33909 10
      vertex 4.3528 10.6925 10
    endloop
  endfacet
  facet normal 0 0 1
    outer loop
      vertex 10.2253 4.05 10
      vertex 10.05 3.90289 10
      vertex 23.3 4.05 10
    endloop
  endfacet
  facet normal 0 0 1
    outer loop
      vertex 5.55 3.90289 10
      vertex 4.3528 4.90746 10
      vertex 1.08983 4 10
    endloop
  endfacet
  facet normal 1 0 0
    outer loop
      vertex 23.3 0 10
      vertex 23.3 0 0
      vertex 23.3 4.05 0
    endloop
  endfacet
  facet normal 1 0 0
    outer loop
      vertex 23.3 4.05 10
      vertex 23.3 0 10
      vertex 23.3 4.05 0
    endloop
  endfacet
  facet normal 0.866025 1.11022e-16 0.5
    outer loop
      vertex -7.86602 0 3.5
      vertex -7.86602 4 3.5
      vertex -8.73205 4 5
    endloop
  endfacet
  facet normal 0.866025 1.11022e-16 0.5
    outer loop
      vertex -8.73205 0 5
      vertex -7.86602 0 3.5
      vertex -8.73205 4 5
    endloop
  endfacet
  facet normal 1.22461e-16 2.22045e-16 1
    outer loop
      vertex -6.13397 0 3.5
      vertex -6.13397 4 3.5
      vertex -7.86602 4 3.5
    endloop
  endfacet
  facet normal 1.22461e-16 2.22045e-16 1
    outer loop
      vertex -7.86602 0 3.5
      vertex -6.13397 0 3.5
      vertex -7.86602 4 3.5
    endloop
  endfacet
  facet normal -0.866025 1.11022e-16 0.5
    outer loop
      vertex -5.26795 4 5
      vertex -6.13397 4 3.5
      vertex -5.26795 0 5
    endloop
  endfacet
  facet normal -0.866025 1.11022e-16 0.5
    outer loop
      vertex -5.26795 0 5
      vertex -6.13397 4 3.5
      vertex -6.13397 0 3.5
    endloop
  endfacet
  facet normal -0.866025 -1.11022e-16 -0.5
    outer loop
      vertex -5.26795 4 5
      vertex -5.26795 0 5
      vertex -6.13397 4 6.5
    endloop
  endfacet
  facet normal -0.866025 -1.11022e-16 -0.5
    outer loop
      vertex -6.13397 4 6.5
      vertex -5.26795 0 5
      vertex -6.13397 0 6.5
    endloop
  endfacet
  facet normal -1.22461e-16 -2.22045e-16 -1
    outer loop
      vertex -6.13397 4 6.5
      vertex -6.13397 0 6.5
      vertex -7.86602 4 6.5
    endloop
  endfacet
  facet normal -1.22461e-16 -2.22045e-16 -1
    outer loop
      vertex -7.86602 4 6.5
      vertex -6.13397 0 6.5
      vertex -7.86602 0 6.5
    endloop
  endfacet
  facet normal 0.866025 -1.11022e-16 -0.5
    outer loop
      vertex -8.73205 4 5
      vertex -7.86602 4 6.5
      vertex -7.86602 0 6.5
    endloop
  endfacet
  facet normal 0.866025 -1.11022e-16 -0.5
    outer loop
      vertex -8.73205 0 5
      vertex -8.73205 4 5
      vertex -7.86602 0 6.5
    endloop
  endfacet
  facet normal 0.866025 1.11022e-16 0.5
    outer loop
      vertex 16.134 0 3.5
      vertex 16.134 4.05 3.5
      vertex 15.2679 4.05 5
    endloop
  endfacet
  facet normal 0.866025 1.11022e-16 0.5
    outer loop
      vertex 15.2679 0 5
      vertex 16.134 0 3.5
      vertex 15.2679 4.05 5
    endloop
  endfacet
  facet normal 1.22461e-16 2.22045e-16 1
    outer loop
      vertex 17.866 0 3.5
      vertex 17.866 4.05 3.5
      vertex 16.134 4.05 3.5
    endloop
  endfacet
  facet normal 1.22461e-16 2.22045e-16 1
    outer loop
      vertex 16.134 0 3.5
      vertex 17.866 0 3.5
      vertex 16.134 4.05 3.5
    endloop
  endfacet
  facet normal -0.866025 1.11022e-16 0.5
    outer loop
      vertex 18.7321 4.05 5
      vertex 17.866 4.05 3.5
      vertex 18.7321 0 5
    endloop
  endfacet
  facet normal -0.866025 1.11022e-16 0.5
    outer loop
      vertex 18.7321 0 5
      vertex 17.866 4.05 3.5
      vertex 17.866 0 3.5
    endloop
  endfacet
  facet normal -0.866025 -1.11022e-16 -0.5
    outer loop
      vertex 18.7321 4.05 5
      vertex 18.7321 0 5
      vertex 17.866 4.05 6.5
    endloop
  endfacet
  facet normal -0.866025 -1.11022e-16 -0.5
    outer loop
      vertex 17.866 4.05 6.5
      vertex 18.7321 0 5
      vertex 17.866 0 6.5
    endloop
  endfacet
  facet normal -1.22461e-16 -2.22045e-16 -1
    outer loop
      vertex 17.866 4.05 6.5
      vertex 17.866 0 6.5
      vertex 16.134 4.05 6.5
    endloop
  endfacet
  facet normal -1.22461e-16 -2.22045e-16 -1
    outer loop
      vertex 16.134 4.05 6.5
      vertex 17.866 0 6.5
      vertex 16.134 0 6.5
    endloop
  endfacet
  facet normal 0.866025 -1.11022e-16 -0.5
    outer loop
      vertex 15.2679 4.05 5
      vertex 16.134 4.05 6.5
      vertex 16.134 0 6.5
    endloop
  endfacet
  facet normal 0.866025 -1.11022e-16 -0.5
    outer loop
      vertex 15.2679 0 5
      vertex 15.2679 4.05 5
      vertex 16.134 0 6.5
    endloop
  endfacet
  facet normal 0 1 0
    outer loop
      vertex 16.134 4.05 3.5
      vertex 23.3 4.05 0
      vertex 10.2253 4.05 0
    endloop
  endfacet
  facet normal 0 1 0
    outer loop
      vertex 17.866 4.05 3.5
      vertex 23.3 4.05 0
      vertex 16.134 4.05 3.5
    endloop
  endfacet
  facet normal 0 1 0
    outer loop
      vertex 10.2253 4.05 10
      vertex 16.134 4.05 3.5
      vertex 10.2253 4.05 0
    endloop
  endfacet
  facet normal 0 1 0
    outer loop
      vertex 23.3 4.05 10
      vertex 23.3 4.05 0
      vertex 18.7321 4.05 5
    endloop
  endfacet
  facet normal 0 1 0
    outer loop
      vertex 23.3 4.05 10
      vertex 18.7321 4.05 5
      vertex 17.866 4.05 6.5
    endloop
  endfacet
  facet normal 0 1 0
    outer loop
      vertex 23.3 4.05 10
      vertex 17.866 4.05 6.5
      vertex 10.2253 4.05 10
    endloop
  endfacet
  facet normal 0 1 0
    outer loop
      vertex 16.134 4.05 6.5
      vertex 10.2253 4.05 10
      vertex 17.866 4.05 6.5
    endloop
  endfacet
  facet normal 0 1 0
    outer loop
      vertex 15.2679 4.05 5
      vertex 10.2253 4.05 10
      vertex 16.134 4.05 6.5
    endloop
  endfacet
  facet normal 0 1 0
    outer loop
      vertex 10.2253 4.05 10
      vertex 15.2679 4.05 5
      vertex 16.134 4.05 3.5
    endloop
  endfacet
  facet normal 0 1 0
    outer loop
      vertex 18.7321 4.05 5
      vertex 23.3 4.05 0
      vertex 17.866 4.05 3.5
    endloop
  endfacet
  facet normal -0.642788 0.766044 0
    outer loop
      vertex 10.2253 4.05 10
      vertex 10.2253 4.05 0
      vertex 10.05 3.90289 10
    endloop
  endfacet
  facet normal -0.642788 0.766044 0
    outer loop
      vertex 10.05 3.90289 10
      vertex 10.2253 4.05 0
      vertex 10.05 3.90289 0
    endloop
  endfacet
  facet normal -0.34202 0.939693 0
    outer loop
      vertex 10.05 3.90289 10
      vertex 10.05 3.90289 0
      vertex 8.58142 3.36836 10
    endloop
  endfacet
  facet normal -0.34202 0.939693 0
    outer loop
      vertex 8.58142 3.36836 10
      vertex 10.05 3.90289 0
      vertex 8.58142 3.36836 0
    endloop
  endfacet
  facet normal 0 1 0
    outer loop
      vertex 8.58142 3.36836 10
      vertex 8.58142 3.36836 0
      vertex 7.01858 3.36836 10
    endloop
  endfacet
  facet normal 0 1 0
    outer loop
      vertex 7.01858 3.36836 10
      vertex 8.58142 3.36836 0
      vertex 7.01858 3.36836 0
    endloop
  endfacet
  facet normal 0.34202 0.939693 0
    outer loop
      vertex 7.01858 3.36836 10
      vertex 7.01858 3.36836 0
      vertex 5.55 3.90289 10
    endloop
  endfacet
  facet normal 0.34202 0.939693 0
    outer loop
      vertex 5.55 3.90289 10
      vertex 7.01858 3.36836 0
      vertex 5.55 3.90289 0
    endloop
  endfacet
  facet normal 0.642788 0.766044 0
    outer loop
      vertex 5.55 3.90289 10
      vertex 5.55 3.90289 0
      vertex 4.3528 4.90746 10
    endloop
  endfacet
  facet normal 0.642788 0.766044 0
    outer loop
      vertex 4.3528 4.90746 10
      vertex 5.55 3.90289 0
      vertex 4.3528 4.90746 0
    endloop
  endfacet
  facet normal 0.866025 0.5 0
    outer loop
      vertex 3.57138 6.26091 10
      vertex 4.3528 4.90746 10
      vertex 4.3528 4.90746 0
    endloop
  endfacet
  facet normal 0.866025 0.5 0
    outer loop
      vertex 3.57138 6.26091 0
      vertex 3.57138 6.26091 10
      vertex 4.3528 4.90746 0
    endloop
  endfacet
  facet normal 0.984808 0.173648 0
    outer loop
      vertex 3.3 7.8 10
      vertex 3.57138 6.26091 10
      vertex 3.57138 6.26091 0
    endloop
  endfacet
  facet normal 0.984808 0.173648 0
    outer loop
      vertex 3.3 7.8 0
      vertex 3.3 7.8 10
      vertex 3.57138 6.26091 0
    endloop
  endfacet
  facet normal 0.984808 -0.173648 0
    outer loop
      vertex 3.57138 9.33909 0
      vertex 3.57138 9.33909 10
      vertex 3.3 7.8 10
    endloop
  endfacet
  facet normal 0.984808 -0.173648 0
    outer loop
      vertex 3.3 7.8 0
      vertex 3.57138 9.33909 0
      vertex 3.3 7.8 10
    endloop
  endfacet
  facet normal 0.866025 -0.5 0
    outer loop
      vertex 4.3528 10.6925 0
      vertex 4.3528 10.6925 10
      vertex 3.57138 9.33909 10
    endloop
  endfacet
  facet normal 0.866025 -0.5 0
    outer loop
      vertex 3.57138 9.33909 0
      vertex 4.3528 10.6925 0
      vertex 3.57138 9.33909 10
    endloop
  endfacet
  facet normal 0.642788 -0.766044 0
    outer loop
      vertex 5.55 11.6971 0
      vertex 5.55 11.6971 10
      vertex 4.3528 10.6925 10
    endloop
  endfacet
  facet normal 0.642788 -0.766044 0
    outer loop
      vertex 4.3528 10.6925 0
      vertex 5.55 11.6971 0
      vertex 4.3528 10.6925 10
    endloop
  endfacet
  facet normal 0.34202 -0.939693 0
    outer loop
      vertex 7.01858 12.2316 0
      vertex 7.01858 12.2316 10
      vertex 5.55 11.6971 10
    endloop
  endfacet
  facet normal 0.34202 -0.939693 0
    outer loop
      vertex 5.55 11.6971 0
      vertex 7.01858 12.2316 0
      vertex 5.55 11.6971 10
    endloop
  endfacet
  facet normal 0 -1 0
    outer loop
      vertex 8.58142 12.2316 0
      vertex 8.58142 12.2316 10
      vertex 7.01858 12.2316 10
    endloop
  endfacet
  facet normal 0 -1 0
    outer loop
      vertex 7.01858 12.2316 0
      vertex 8.58142 12.2316 0
      vertex 7.01858 12.2316 10
    endloop
  endfacet
  facet normal -0.34202 -0.939693 0
    outer loop
      vertex 10.05 11.6971 0
      vertex 10.05 11.6971 10
      vertex 8.58142 12.2316 10
    endloop
  endfacet
  facet normal -0.34202 -0.939693 0
    outer loop
      vertex 8.58142 12.2316 0
      vertex 10.05 11.6971 0
      vertex 8.58142 12.2316 10
    endloop
  endfacet
  facet normal -0.642788 -0.766044 0
    outer loop
      vertex 10.2253 11.55 0
      vertex 10.2253 11.55 10
      vertex 10.05 11.6971 10
    endloop
  endfacet
  facet normal -0.642788 -0.766044 0
    outer loop
      vertex 10.05 11.6971 0
      vertex 10.2253 11.55 0
      vertex 10.05 11.6971 10
    endloop
  endfacet
  facet normal 0 -1 0
    outer loop
      vertex 16.134 11.55 6.5
      vertex 23.3 11.55 10
      vertex 10.2253 11.55 10
    endloop
  endfacet
  facet normal 0 -1 0
    outer loop
      vertex 18.7321 11.55 5
      vertex 17.866 11.55 3.5
      vertex 23.3 11.55 0
    endloop
  endfacet
  facet normal 0 -1 0
    outer loop
      vertex 10.2253 11.55 0
      vertex 15.2679 11.55 5
      vertex 10.2253 11.55 10
    endloop
  endfacet
  facet normal 0 -1 0
    outer loop
      vertex 17.866 11.55 6.5
      vertex 23.3 11.55 10
      vertex 16.134 11.55 6.5
    endloop
  endfacet
  facet normal 0 -1 0
    outer loop
      vertex 23.3 11.55 0
      vertex 23.3 11.55 10
      vertex 17.866 11.55 6.5
    endloop
  endfacet
  facet normal 0 -1 0
    outer loop
      vertex 17.866 11.55 3.5
      vertex 16.134 11.55 3.5
      vertex 23.3 11.55 0
    endloop
  endfacet
  facet normal 0 -1 0
    outer loop
      vertex 23.3 11.55 0
      vertex 17.866 11.55 6.5
      vertex 18.7321 11.55 5
    endloop
  endfacet
  facet normal 0 -1 0
    outer loop
      vertex 10.2253 11.55 0
      vertex 16.134 11.55 3.5
      vertex 15.2679 11.55 5
    endloop
  endfacet
  facet normal 0 -1 0
    outer loop
      vertex 10.2253 11.55 0
      vertex 23.3 11.55 0
      vertex 16.134 11.55 3.5
    endloop
  endfacet
  facet normal 0 -1 0
    outer loop
      vertex 15.2679 11.55 5
      vertex 16.134 11.55 6.5
      vertex 10.2253 11.55 10
    endloop
  endfacet
  facet normal 1 0 0
    outer loop
      vertex 23.3 11.55 10
      vertex 23.3 11.55 0
      vertex 23.3 15.6 0
    endloop
  endfacet
  facet normal 1 0 0
    outer loop
      vertex 23.3 15.6 10
      vertex 23.3 11.55 10
      vertex 23.3 15.6 0
    endloop
  endfacet
  facet normal 0 1 0
    outer loop
      vertex 22.77 15.6 5
      vertex 23.3 15.6 0
      vertex 19.885 15.6 0.003033
    endloop
  endfacet
  facet normal 0 1 0
    outer loop
      vertex 19.885 15.6 9.99697
      vertex 7.8 15.6 10
      vertex 23.3 15.6 10
    endloop
  endfacet
  facet normal 0 1 0
    outer loop
      vertex 7.8 15.6 0
      vertex 7.8 15.6 10
      vertex 11.23 15.6 5
    endloop
  endfacet
  facet normal 0 1 0
    outer loop
      vertex 7.8 15.6 0
      vertex 11.23 15.6 5
      vertex 14.115 15.6 0.003033
    endloop
  endfacet
  facet normal 0 1 0
    outer loop
      vertex 7.8 15.6 0
      vertex 14.115 15.6 0.003033
      vertex 23.3 15.6 0
    endloop
  endfacet
  facet normal 0 1 0
    outer loop
      vertex 14.115 15.6 0.003033
      vertex 19.885 15.6 0.003033
      vertex 23.3 15.6 0
    endloop
  endfacet
  facet normal 0 1 0
    outer loop
      vertex 23.3 15.6 0
      vertex 22.77 15.6 5
      vertex 23.3 15.6 10
    endloop
  endfacet
  facet normal 0 1 0
    outer loop
      vertex 14.115 15.6 9.99697
      vertex 7.8 15.6 10
      vertex 19.885 15.6 9.99697
    endloop
  endfacet
  facet normal 0 1 0
    outer loop
      vertex 22.77 15.6 5
      vertex 19.885 15.6 9.99697
      vertex 23.3 15.6 10
    endloop
  endfacet
  facet normal 0 1 0
    outer loop
      vertex 11.23 15.6 5
      vertex 7.8 15.6 10
      vertex 14.115 15.6 9.99697
    endloop
  endfacet
  facet normal -0.156434 0.987688 0
    outer loop
      vertex 5.38967 15.2182 0
      vertex 5.38967 15.2182 10
      vertex 7.8 15.6 0
    endloop
  endfacet
  facet normal -0.156434 0.987688 0
    outer loop
      vertex 7.8 15.6 0
      vertex 5.38967 15.2182 10
      vertex 7.8 15.6 10
    endloop
  endfacet
  facet normal -0.45399 0.891007 0
    outer loop
      vertex 3.21528 14.1103 0
      vertex 3.21528 14.1103 10
      vertex 5.38967 15.2182 0
    endloop
  endfacet
  facet normal -0.45399 0.891007 0
    outer loop
      vertex 5.38967 15.2182 0
      vertex 3.21528 14.1103 10
      vertex 5.38967 15.2182 10
    endloop
  endfacet
  facet normal -0.707107 0.707107 0
    outer loop
      vertex 1.48967 12.3847 0
      vertex 1.48967 12.3847 10
      vertex 3.21528 14.1103 0
    endloop
  endfacet
  facet normal -0.707107 0.707107 0
    outer loop
      vertex 3.21528 14.1103 0
      vertex 1.48967 12.3847 10
      vertex 3.21528 14.1103 10
    endloop
  endfacet
  facet normal -0.891007 0.45399 0
    outer loop
      vertex 0.381759 10.2103 0
      vertex 0.381759 10.2103 10
      vertex 1.48967 12.3847 0
    endloop
  endfacet
  facet normal -0.891007 0.45399 0
    outer loop
      vertex 1.48967 12.3847 0
      vertex 0.381759 10.2103 10
      vertex 1.48967 12.3847 10
    endloop
  endfacet
  facet normal -0.987688 0.156434 0
    outer loop
      vertex 0 7.8 0
      vertex 0 7.8 10
      vertex 0.381759 10.2103 0
    endloop
  endfacet
  facet normal -0.987688 0.156434 0
    outer loop
      vertex 0.381759 10.2103 0
      vertex 0 7.8 10
      vertex 0.381759 10.2103 10
    endloop
  endfacet
  facet normal -0.987688 -0.156434 0
    outer loop
      vertex 0 7.8 0
      vertex 0.381759 5.38967 0
      vertex 0 7.8 10
    endloop
  endfacet
  facet normal -0.987688 -0.156434 0
    outer loop
      vertex 0 7.8 10
      vertex 0.381759 5.38967 0
      vertex 0.381759 5.38967 10
    endloop
  endfacet
  facet normal -0.891007 -0.45399 0
    outer loop
      vertex 0.381759 5.38967 0
      vertex 1.08983 4 0
      vertex 0.381759 5.38967 10
    endloop
  endfacet
  facet normal -0.891007 -0.45399 0
    outer loop
      vertex 0.381759 5.38967 10
      vertex 1.08983 4 0
      vertex 1.08983 4 10
    endloop
  endfacet
  facet normal 0.866025 1.11022e-16 0.5
    outer loop
      vertex 16.134 11.55 3.5
      vertex 16.134 14.5 3.5
      vertex 15.2679 14.5 5
    endloop
  endfacet
  facet normal 0.866025 1.11022e-16 0.5
    outer loop
      vertex 15.2679 11.55 5
      vertex 16.134 11.55 3.5
      vertex 15.2679 14.5 5
    endloop
  endfacet
  facet normal 0.866025 -1.11022e-16 -0.5
    outer loop
      vertex 15.2679 14.5 5
      vertex 16.134 14.5 6.5
      vertex 16.134 11.55 6.5
    endloop
  endfacet
  facet normal 0.866025 -1.11022e-16 -0.5
    outer loop
      vertex 15.2679 11.55 5
      vertex 15.2679 14.5 5
      vertex 16.134 11.55 6.5
    endloop
  endfacet
  facet normal 1.22461e-16 2.22045e-16 1
    outer loop
      vertex 17.866 11.55 3.5
      vertex 17.866 14.5 3.5
      vertex 16.134 14.5 3.5
    endloop
  endfacet
  facet normal 1.22461e-16 2.22045e-16 1
    outer loop
      vertex 16.134 11.55 3.5
      vertex 17.866 11.55 3.5
      vertex 16.134 14.5 3.5
    endloop
  endfacet
  facet normal -0.866025 1.11022e-16 0.5
    outer loop
      vertex 18.7321 14.5 5
      vertex 17.866 14.5 3.5
      vertex 18.7321 11.55 5
    endloop
  endfacet
  facet normal -0.866025 1.11022e-16 0.5
    outer loop
      vertex 18.7321 11.55 5
      vertex 17.866 14.5 3.5
      vertex 17.866 11.55 3.5
    endloop
  endfacet
  facet normal -0.866025 -1.11022e-16 -0.5
    outer loop
      vertex 18.7321 14.5 5
      vertex 18.7321 11.55 5
      vertex 17.866 14.5 6.5
    endloop
  endfacet
  facet normal -0.866025 -1.11022e-16 -0.5
    outer loop
      vertex 17.866 14.5 6.5
      vertex 18.7321 11.55 5
      vertex 17.866 11.55 6.5
    endloop
  endfacet
  facet normal -1.22461e-16 -2.22045e-16 -1
    outer loop
      vertex 17.866 14.5 6.5
      vertex 17.866 11.55 6.5
      vertex 16.134 14.5 6.5
    endloop
  endfacet
  facet normal -1.22461e-16 -2.22045e-16 -1
    outer loop
      vertex 16.134 14.5 6.5
      vertex 17.866 11.55 6.5
      vertex 16.134 11.55 6.5
    endloop
  endfacet
  facet normal -0.866025 1.11022e-16 0.5
    outer loop
      vertex 11.23 15.6 5
      vertex 14.115 15.6 9.99697
      vertex 11.23 17.5 5
    endloop
  endfacet
  facet normal -0.866025 1.11022e-16 0.5
    outer loop
      vertex 11.23 17.5 5
      vertex 14.115 15.6 9.99697
      vertex 14.115 17.5 9.99697
    endloop
  endfacet
  facet normal -0.866025 -1.11022e-16 -0.5
    outer loop
      vertex 11.23 15.6 5
      vertex 11.23 17.5 5
      vertex 14.115 15.6 0.003033
    endloop
  endfacet
  facet normal -0.866025 -1.11022e-16 -0.5
    outer loop
      vertex 14.115 15.6 0.003033
      vertex 11.23 17.5 5
      vertex 14.115 17.5 0.003033
    endloop
  endfacet
  facet normal 0 2.22045e-16 1
    outer loop
      vertex 14.115 17.5 9.99697
      vertex 14.115 15.6 9.99697
      vertex 19.885 15.6 9.99697
    endloop
  endfacet
  facet normal 0 2.22045e-16 1
    outer loop
      vertex 19.885 17.5 9.99697
      vertex 14.115 17.5 9.99697
      vertex 19.885 15.6 9.99697
    endloop
  endfacet
  facet normal 0.866025 1.11022e-16 0.5
    outer loop
      vertex 19.885 17.5 9.99697
      vertex 19.885 15.6 9.99697
      vertex 22.77 15.6 5
    endloop
  endfacet
  facet normal 0.866025 1.11022e-16 0.5
    outer loop
      vertex 22.77 17.5 5
      vertex 19.885 17.5 9.99697
      vertex 22.77 15.6 5
    endloop
  endfacet
  facet normal 0.866025 -1.11022e-16 -0.5
    outer loop
      vertex 22.77 15.6 5
      vertex 19.885 15.6 0.003033
      vertex 19.885 17.5 0.003033
    endloop
  endfacet
  facet normal 0.866025 -1.11022e-16 -0.5
    outer loop
      vertex 22.77 17.5 5
      vertex 22.77 15.6 5
      vertex 19.885 17.5 0.003033
    endloop
  endfacet
  facet normal 0 -2.22045e-16 -1
    outer loop
      vertex 14.115 15.6 0.003033
      vertex 14.115 17.5 0.003033
      vertex 19.885 15.6 0.003033
    endloop
  endfacet
  facet normal 0 -2.22045e-16 -1
    outer loop
      vertex 19.885 15.6 0.003033
      vertex 14.115 17.5 0.003033
      vertex 19.885 17.5 0.003033
    endloop
  endfacet
  facet normal 0 1 -2.22045e-16
    outer loop
      vertex 14.9659 14.5 7.57679
      vertex 15.1391 14.5 8.22321
      vertex 15.7855 14.5 8.05
    endloop
  endfacet
  facet normal 0 1 -2.22045e-16
    outer loop
      vertex 14.9659 14.5 7.57679
      vertex 15.7855 14.5 8.05
      vertex 13.7514 14.5 5.4732
    endloop
  endfacet
  facet normal 0 1 -2.22045e-16
    outer loop
      vertex 15.7855 14.5 8.05
      vertex 18.2145 14.5 8.05
      vertex 13.7514 14.5 5.4732
    endloop
  endfacet
  facet normal 0 1 -2.22045e-16
    outer loop
      vertex 18.2145 14.5 8.05
      vertex 18.8609 14.5 8.22321
      vertex 13.7514 14.5 5.4732
    endloop
  endfacet
  facet normal 0 1 -2.22045e-16
    outer loop
      vertex 15.2679 14.5 5
      vertex 13.7514 14.5 5.4732
      vertex 16.134 14.5 6.5
    endloop
  endfacet
  facet normal 0 1 -2.22045e-16
    outer loop
      vertex 16.134 14.5 6.5
      vertex 19.0341 14.5 7.57679
      vertex 17.866 14.5 6.5
    endloop
  endfacet
  facet normal 0 1 -2.22045e-16
    outer loop
      vertex 17.866 14.5 6.5
      vertex 20.2486 14.5 5.4732
      vertex 20.7218 14.5 5
    endloop
  endfacet
  facet normal 0 1 -2.22045e-16
    outer loop
      vertex 17.866 14.5 3.5
      vertex 18.2145 14.5 1.95
      vertex 16.134 14.5 3.5
    endloop
  endfacet
  facet normal 0 1 -2.22045e-16
    outer loop
      vertex 17.866 14.5 3.5
      vertex 18.8609 14.5 1.77679
      vertex 18.2145 14.5 1.95
    endloop
  endfacet
  facet normal 0 1 -2.22045e-16
    outer loop
      vertex 16.134 14.5 3.5
      vertex 15.7855 14.5 1.95
      vertex 13.7514 14.5 5.4732
    endloop
  endfacet
  facet normal 0 1 -2.22045e-16
    outer loop
      vertex 18.7321 14.5 5
      vertex 20.2486 14.5 4.5268
      vertex 17.866 14.5 3.5
    endloop
  endfacet
  facet normal 0 1 -2.22045e-16
    outer loop
      vertex 15.7855 14.5 1.95
      vertex 15.1391 14.5 1.77679
      vertex 14.9659 14.5 2.42321
    endloop
  endfacet
  facet normal 0 1 -2.22045e-16
    outer loop
      vertex 15.7855 14.5 1.95
      vertex 14.9659 14.5 2.42321
      vertex 13.7514 14.5 5.4732
    endloop
  endfacet
  facet normal 0 1 -2.22045e-16
    outer loop
      vertex 16.134 14.5 3.5
      vertex 13.7514 14.5 5.4732
      vertex 15.2679 14.5 5
    endloop
  endfacet
  facet normal 0 1 -2.22045e-16
    outer loop
      vertex 13.7514 14.5 4.5268
      vertex 13.2782 14.5 5
      vertex 13.7514 14.5 5.4732
    endloop
  endfacet
  facet normal 0 1 -2.22045e-16
    outer loop
      vertex 18.2145 14.5 1.95
      vertex 15.7855 14.5 1.95
      vertex 16.134 14.5 3.5
    endloop
  endfacet
  facet normal 0 1 -2.22045e-16
    outer loop
      vertex 17.866 14.5 3.5
      vertex 19.0341 14.5 2.42321
      vertex 18.8609 14.5 1.77679
    endloop
  endfacet
  facet normal 0 1 -2.22045e-16
    outer loop
      vertex 20.2486 14.5 4.5268
      vertex 19.0341 14.5 2.42321
      vertex 17.866 14.5 3.5
    endloop
  endfacet
  facet normal 0 1 -2.22045e-16
    outer loop
      vertex 20.7218 14.5 5
      vertex 20.2486 14.5 4.5268
      vertex 18.7321 14.5 5
    endloop
  endfacet
  facet normal 0 1 -2.22045e-16
    outer loop
      vertex 19.0341 14.5 7.57679
      vertex 20.2486 14.5 5.4732
      vertex 17.866 14.5 6.5
    endloop
  endfacet
  facet normal 0 1 -2.22045e-16
    outer loop
      vertex 18.8609 14.5 8.22321
      vertex 19.0341 14.5 7.57679
      vertex 16.134 14.5 6.5
    endloop
  endfacet
  facet normal 0 1 -2.22045e-16
    outer loop
      vertex 18.8609 14.5 8.22321
      vertex 16.134 14.5 6.5
      vertex 13.7514 14.5 5.4732
    endloop
  endfacet
  facet normal 0 1 -2.22045e-16
    outer loop
      vertex 17.866 14.5 6.5
      vertex 20.7218 14.5 5
      vertex 18.7321 14.5 5
    endloop
  endfacet
  facet normal 0 1 -2.22045e-16
    outer loop
      vertex 13.7514 14.5 4.5268
      vertex 13.7514 14.5 5.4732
      vertex 14.9659 14.5 2.42321
    endloop
  endfacet
  facet normal 0 1 -2.22045e-16
    outer loop
      vertex 18.2145 17.5 8.05
      vertex 14.115 17.5 9.99697
      vertex 19.885 17.5 9.99697
    endloop
  endfacet
  facet normal 0 1 -2.22045e-16
    outer loop
      vertex 20.7218 17.5 5
      vertex 19.885 17.5 9.99697
      vertex 22.77 17.5 5
    endloop
  endfacet
  facet normal 0 1 -2.22045e-16
    outer loop
      vertex 18.8609 17.5 1.77679
      vertex 22.77 17.5 5
      vertex 19.885 17.5 0.003033
    endloop
  endfacet
  facet normal 0 1 -2.22045e-16
    outer loop
      vertex 11.23 17.5 5
      vertex 14.115 17.5 9.99697
      vertex 13.2782 17.5 5
    endloop
  endfacet
  facet normal 0 1 -2.22045e-16
    outer loop
      vertex 11.23 17.5 5
      vertex 13.2782 17.5 5
      vertex 14.115 17.5 0.003033
    endloop
  endfacet
  facet normal 0 1 -2.22045e-16
    outer loop
      vertex 13.2782 17.5 5
      vertex 13.7514 17.5 4.5268
      vertex 14.115 17.5 0.003033
    endloop
  endfacet
  facet normal 0 1 -2.22045e-16
    outer loop
      vertex 15.7855 17.5 1.95
      vertex 14.115 17.5 0.003033
      vertex 15.1391 17.5 1.77679
    endloop
  endfacet
  facet normal 0 1 -2.22045e-16
    outer loop
      vertex 14.115 17.5 0.003033
      vertex 14.9659 17.5 2.42321
      vertex 15.1391 17.5 1.77679
    endloop
  endfacet
  facet normal 0 1 -2.22045e-16
    outer loop
      vertex 18.2145 17.5 8.05
      vertex 19.885 17.5 9.99697
      vertex 18.8609 17.5 8.22321
    endloop
  endfacet
  facet normal 0 1 -2.22045e-16
    outer loop
      vertex 20.2486 17.5 4.5268
      vertex 22.77 17.5 5
      vertex 19.0341 17.5 2.42321
    endloop
  endfacet
  facet normal 0 1 -2.22045e-16
    outer loop
      vertex 14.115 17.5 0.003033
      vertex 18.2145 17.5 1.95
      vertex 19.885 17.5 0.003033
    endloop
  endfacet
  facet normal 0 1 -2.22045e-16
    outer loop
      vertex 19.0341 17.5 2.42321
      vertex 22.77 17.5 5
      vertex 18.8609 17.5 1.77679
    endloop
  endfacet
  facet normal 0 1 -2.22045e-16
    outer loop
      vertex 18.2145 17.5 1.95
      vertex 18.8609 17.5 1.77679
      vertex 19.885 17.5 0.003033
    endloop
  endfacet
  facet normal 0 1 -2.22045e-16
    outer loop
      vertex 18.8609 17.5 8.22321
      vertex 19.885 17.5 9.99697
      vertex 19.0341 17.5 7.57679
    endloop
  endfacet
  facet normal 0 1 -2.22045e-16
    outer loop
      vertex 19.0341 17.5 7.57679
      vertex 19.885 17.5 9.99697
      vertex 20.2486 17.5 5.4732
    endloop
  endfacet
  facet normal 0 1 -2.22045e-16
    outer loop
      vertex 20.2486 17.5 5.4732
      vertex 19.885 17.5 9.99697
      vertex 20.7218 17.5 5
    endloop
  endfacet
  facet normal 0 1 -2.22045e-16
    outer loop
      vertex 20.2486 17.5 4.5268
      vertex 20.7218 17.5 5
      vertex 22.77 17.5 5
    endloop
  endfacet
  facet normal 0 1 -2.22045e-16
    outer loop
      vertex 18.2145 17.5 1.95
      vertex 14.115 17.5 0.003033
      vertex 15.7855 17.5 1.95
    endloop
  endfacet
  facet normal 0 1 -2.22045e-16
    outer loop
      vertex 15.7855 17.5 8.05
      vertex 14.115 17.5 9.99697
      vertex 18.2145 17.5 8.05
    endloop
  endfacet
  facet normal 0 1 -2.22045e-16
    outer loop
      vertex 13.7514 17.5 5.4732
      vertex 14.115 17.5 9.99697
      vertex 14.9659 17.5 7.57679
    endloop
  endfacet
  facet normal 0 1 -2.22045e-16
    outer loop
      vertex 15.1391 17.5 8.22321
      vertex 14.115 17.5 9.99697
      vertex 15.7855 17.5 8.05
    endloop
  endfacet
  facet normal 0 1 -2.22045e-16
    outer loop
      vertex 14.9659 17.5 7.57679
      vertex 14.115 17.5 9.99697
      vertex 15.1391 17.5 8.22321
    endloop
  endfacet
  facet normal 0 1 -2.22045e-16
    outer loop
      vertex 13.2782 17.5 5
      vertex 14.115 17.5 9.99697
      vertex 13.7514 17.5 5.4732
    endloop
  endfacet
  facet normal 0 1 -2.22045e-16
    outer loop
      vertex 14.9659 17.5 2.42321
      vertex 14.115 17.5 0.003033
      vertex 13.7514 17.5 4.5268
    endloop
  endfacet
  facet normal 0.866025 -1.11022e-16 -0.5
    outer loop
      vertex 13.7514 17.5 5.4732
      vertex 14.9659 17.5 7.57679
      vertex 14.9659 14.5 7.57679
    endloop
  endfacet
  facet normal 0.866025 -1.11022e-16 -0.5
    outer loop
      vertex 13.7514 14.5 5.4732
      vertex 13.7514 17.5 5.4732
      vertex 14.9659 14.5 7.57679
    endloop
  endfacet
  facet normal 0.707107 -1.57009e-16 -0.707107
    outer loop
      vertex 13.7514 17.5 5.4732
      vertex 13.7514 14.5 5.4732
      vertex 13.2782 17.5 5
    endloop
  endfacet
  facet normal 0.707107 -1.57009e-16 -0.707107
    outer loop
      vertex 13.2782 17.5 5
      vertex 13.7514 14.5 5.4732
      vertex 13.2782 14.5 5
    endloop
  endfacet
  facet normal 0.707107 1.57009e-16 0.707107
    outer loop
      vertex 13.7514 14.5 4.5268
      vertex 13.7514 17.5 4.5268
      vertex 13.2782 17.5 5
    endloop
  endfacet
  facet normal 0.707107 1.57009e-16 0.707107
    outer loop
      vertex 13.2782 14.5 5
      vertex 13.7514 14.5 4.5268
      vertex 13.2782 17.5 5
    endloop
  endfacet
  facet normal 0.866025 1.11022e-16 0.5
    outer loop
      vertex 14.9659 14.5 2.42321
      vertex 14.9659 17.5 2.42321
      vertex 13.7514 17.5 4.5268
    endloop
  endfacet
  facet normal 0.866025 1.11022e-16 0.5
    outer loop
      vertex 13.7514 14.5 4.5268
      vertex 14.9659 14.5 2.42321
      vertex 13.7514 17.5 4.5268
    endloop
  endfacet
  facet normal 0.965926 5.74694e-17 0.258819
    outer loop
      vertex 15.1391 14.5 1.77679
      vertex 15.1391 17.5 1.77679
      vertex 14.9659 17.5 2.42321
    endloop
  endfacet
  facet normal 0.965926 5.74694e-17 0.258819
    outer loop
      vertex 14.9659 14.5 2.42321
      vertex 15.1391 14.5 1.77679
      vertex 14.9659 17.5 2.42321
    endloop
  endfacet
  facet normal -0.258819 2.14479e-16 0.965926
    outer loop
      vertex 15.7855 14.5 1.95
      vertex 15.7855 17.5 1.95
      vertex 15.1391 17.5 1.77679
    endloop
  endfacet
  facet normal -0.258819 2.14479e-16 0.965926
    outer loop
      vertex 15.1391 14.5 1.77679
      vertex 15.7855 14.5 1.95
      vertex 15.1391 17.5 1.77679
    endloop
  endfacet
  facet normal 0 2.22045e-16 1
    outer loop
      vertex 18.2145 14.5 1.95
      vertex 18.2145 17.5 1.95
      vertex 15.7855 17.5 1.95
    endloop
  endfacet
  facet normal 0 2.22045e-16 1
    outer loop
      vertex 15.7855 14.5 1.95
      vertex 18.2145 14.5 1.95
      vertex 15.7855 17.5 1.95
    endloop
  endfacet
  facet normal 0.258819 2.14479e-16 0.965926
    outer loop
      vertex 18.8609 14.5 1.77679
      vertex 18.8609 17.5 1.77679
      vertex 18.2145 17.5 1.95
    endloop
  endfacet
  facet normal 0.258819 2.14479e-16 0.965926
    outer loop
      vertex 18.2145 14.5 1.95
      vertex 18.8609 14.5 1.77679
      vertex 18.2145 17.5 1.95
    endloop
  endfacet
  facet normal -0.965926 5.74694e-17 0.258819
    outer loop
      vertex 19.0341 17.5 2.42321
      vertex 18.8609 17.5 1.77679
      vertex 19.0341 14.5 2.42321
    endloop
  endfacet
  facet normal -0.965926 5.74694e-17 0.258819
    outer loop
      vertex 19.0341 14.5 2.42321
      vertex 18.8609 17.5 1.77679
      vertex 18.8609 14.5 1.77679
    endloop
  endfacet
  facet normal -0.866025 1.11022e-16 0.5
    outer loop
      vertex 20.2486 17.5 4.5268
      vertex 19.0341 17.5 2.42321
      vertex 20.2486 14.5 4.5268
    endloop
  endfacet
  facet normal -0.866025 1.11022e-16 0.5
    outer loop
      vertex 20.2486 14.5 4.5268
      vertex 19.0341 17.5 2.42321
      vertex 19.0341 14.5 2.42321
    endloop
  endfacet
  facet normal -0.707107 1.57009e-16 0.707107
    outer loop
      vertex 20.7218 14.5 5
      vertex 20.7218 17.5 5
      vertex 20.2486 17.5 4.5268
    endloop
  endfacet
  facet normal -0.707107 1.57009e-16 0.707107
    outer loop
      vertex 20.2486 14.5 4.5268
      vertex 20.7218 14.5 5
      vertex 20.2486 17.5 4.5268
    endloop
  endfacet
  facet normal -0.707107 -1.57009e-16 -0.707107
    outer loop
      vertex 20.7218 17.5 5
      vertex 20.7218 14.5 5
      vertex 20.2486 17.5 5.4732
    endloop
  endfacet
  facet normal -0.707107 -1.57009e-16 -0.707107
    outer loop
      vertex 20.2486 17.5 5.4732
      vertex 20.7218 14.5 5
      vertex 20.2486 14.5 5.4732
    endloop
  endfacet
  facet normal -0.866025 -1.11022e-16 -0.5
    outer loop
      vertex 20.2486 17.5 5.4732
      vertex 20.2486 14.5 5.4732
      vertex 19.0341 17.5 7.57679
    endloop
  endfacet
  facet normal -0.866025 -1.11022e-16 -0.5
    outer loop
      vertex 19.0341 17.5 7.57679
      vertex 20.2486 14.5 5.4732
      vertex 19.0341 14.5 7.57679
    endloop
  endfacet
  facet normal -0.965926 -5.74694e-17 -0.258819
    outer loop
      vertex 19.0341 17.5 7.57679
      vertex 19.0341 14.5 7.57679
      vertex 18.8609 17.5 8.22321
    endloop
  endfacet
  facet normal -0.965926 -5.74694e-17 -0.258819
    outer loop
      vertex 18.8609 17.5 8.22321
      vertex 19.0341 14.5 7.57679
      vertex 18.8609 14.5 8.22321
    endloop
  endfacet
  facet normal 0.258819 -2.14479e-16 -0.965926
    outer loop
      vertex 18.8609 17.5 8.22321
      vertex 18.8609 14.5 8.22321
      vertex 18.2145 17.5 8.05
    endloop
  endfacet
  facet normal 0.258819 -2.14479e-16 -0.965926
    outer loop
      vertex 18.2145 17.5 8.05
      vertex 18.8609 14.5 8.22321
      vertex 18.2145 14.5 8.05
    endloop
  endfacet
  facet normal 0 -2.22045e-16 -1
    outer loop
      vertex 18.2145 17.5 8.05
      vertex 18.2145 14.5 8.05
      vertex 15.7855 17.5 8.05
    endloop
  endfacet
  facet normal 0 -2.22045e-16 -1
    outer loop
      vertex 15.7855 17.5 8.05
      vertex 18.2145 14.5 8.05
      vertex 15.7855 14.5 8.05
    endloop
  endfacet
  facet normal -0.258819 -2.14479e-16 -0.965926
    outer loop
      vertex 15.7855 17.5 8.05
      vertex 15.7855 14.5 8.05
      vertex 15.1391 17.5 8.22321
    endloop
  endfacet
  facet normal -0.258819 -2.14479e-16 -0.965926
    outer loop
      vertex 15.1391 17.5 8.22321
      vertex 15.7855 14.5 8.05
      vertex 15.1391 14.5 8.22321
    endloop
  endfacet
  facet normal 0.965926 -5.74694e-17 -0.258819
    outer loop
      vertex 14.9659 17.5 7.57679
      vertex 15.1391 17.5 8.22321
      vertex 15.1391 14.5 8.22321
    endloop
  endfacet
  facet normal 0.965926 -5.74694e-17 -0.258819
    outer loop
      vertex 14.9659 14.5 7.57679
      vertex 14.9659 17.5 7.57679
      vertex 15.1391 14.5 8.22321
    endloop
  endfacet
endsolid OpenSCAD_Model
