solid OpenSCAD_Model
  facet normal 0 0 -1
    outer loop
      vertex 0 6.75 0
      vertex 0.330369 8.83587 0
      vertex 0.330369 4.66413 0
    endloop
  endfacet
  facet normal 0 0 -1
    outer loop
      vertex 0.330369 4.66413 0
      vertex 0.330369 8.83587 0
      vertex 1.28913 10.7175 0
    endloop
  endfacet
  facet normal 0 0 -1
    outer loop
      vertex 0.330369 4.66413 0
      vertex 1.28913 10.7175 0
      vertex 2.78245 12.2109 0
    endloop
  endfacet
  facet normal 0 0 -1
    outer loop
      vertex 0.330369 4.66413 0
      vertex 2.78245 12.2109 0
      vertex 4.66413 13.1696 0
    endloop
  endfacet
  facet normal 0 0 -1
    outer loop
      vertex 0.330369 4.66413 0
      vertex 4.66413 13.1696 0
      vertex 6.75 13.5 0
    endloop
  endfacet
  facet normal 0 0 -1
    outer loop
      vertex 8.725 10.1708 0
      vertex 6.75 13.5 0
      vertex 15 13.5 0
    endloop
  endfacet
  facet normal 0 0 -1
    outer loop
      vertex 9.7984 9.25 0
      vertex 15 13.5 0
      vertex 15 9.25 0
    endloop
  endfacet
  facet normal 0 0 -1
    outer loop
      vertex 9.77588 9.28901 0
      vertex 15 13.5 0
      vertex 9.7984 9.25 0
    endloop
  endfacet
  facet normal 0 0 -1
    outer loop
      vertex 7.43591 10.64 0
      vertex 6.75 13.5 0
      vertex 8.725 10.1708 0
    endloop
  endfacet
  facet normal 0 0 -1
    outer loop
      vertex 2.8 6.75 0
      vertex 0.330369 4.66413 0
      vertex 3.03821 8.10098 0
    endloop
  endfacet
  facet normal 0 0 -1
    outer loop
      vertex 6.06409 10.64 0
      vertex 6.75 13.5 0
      vertex 7.43591 10.64 0
    endloop
  endfacet
  facet normal 0 0 -1
    outer loop
      vertex 4.775 10.1708 0
      vertex 6.75 13.5 0
      vertex 6.06409 10.64 0
    endloop
  endfacet
  facet normal 0 0 -1
    outer loop
      vertex 3.72412 9.28901 0
      vertex 6.75 13.5 0
      vertex 4.775 10.1708 0
    endloop
  endfacet
  facet normal 0 0 -1
    outer loop
      vertex 0.330369 4.66413 0
      vertex 6.75 13.5 0
      vertex 3.72412 9.28901 0
    endloop
  endfacet
  facet normal 0 0 -1
    outer loop
      vertex 0.330369 4.66413 0
      vertex 3.72412 9.28901 0
      vertex 3.03821 8.10098 0
    endloop
  endfacet
  facet normal 0 0 -1
    outer loop
      vertex 3.03821 5.39902 0
      vertex 0.330369 4.66413 0
      vertex 2.8 6.75 0
    endloop
  endfacet
  facet normal 0 0 -1
    outer loop
      vertex 15 4.25 0
      vertex 9.77588 4.21099 0
      vertex 9.7984 4.25 0
    endloop
  endfacet
  facet normal 0 0 -1
    outer loop
      vertex 0.330369 4.66413 0
      vertex 3.03821 5.39902 0
      vertex 3.72412 4.21099 0
    endloop
  endfacet
  facet normal 0 0 -1
    outer loop
      vertex 3.72412 4.21099 0
      vertex 4.775 3.3292 0
      vertex 0.330369 4.66413 0
    endloop
  endfacet
  facet normal 0 0 -1
    outer loop
      vertex 4.775 3.3292 0
      vertex 6.06409 2.86001 0
      vertex 0.330369 4.66413 0
    endloop
  endfacet
  facet normal 0 0 -1
    outer loop
      vertex 6.06409 2.86001 0
      vertex 15 0 0
      vertex 0.330369 4.66413 0
    endloop
  endfacet
  facet normal 0 0 -1
    outer loop
      vertex 8.725 3.3292 0
      vertex 15 4.25 0
      vertex 7.43591 2.86001 0
    endloop
  endfacet
  facet normal 0 0 -1
    outer loop
      vertex 9.77588 4.21099 0
      vertex 15 4.25 0
      vertex 8.725 3.3292 0
    endloop
  endfacet
  facet normal 0 0 -1
    outer loop
      vertex 7.43591 2.86001 0
      vertex 15 4.25 0
      vertex 15 0 0
    endloop
  endfacet
  facet normal 0 0 -1
    outer loop
      vertex 7.43591 2.86001 0
      vertex 15 0 0
      vertex 6.06409 2.86001 0
    endloop
  endfacet
  facet normal 0 0 -1
    outer loop
      vertex 0.330369 4.66413 0
      vertex 15 0 0
      vertex 6.75 0 0
    endloop
  endfacet
  facet normal 0 0 -1
    outer loop
      vertex 0.330369 4.66413 0
      vertex 6.75 0 0
      vertex 4.66413 0.330369 0
    endloop
  endfacet
  facet normal 0 0 -1
    outer loop
      vertex 0.330369 4.66413 0
      vertex 4.66413 0.330369 0
      vertex 2.78245 1.28913 0
    endloop
  endfacet
  facet normal 0 0 -1
    outer loop
      vertex 0.330369 4.66413 0
      vertex 2.78245 1.28913 0
      vertex 1.28913 2.78245 0
    endloop
  endfacet
  facet normal 0 0 -1
    outer loop
      vertex 8.725 10.1708 0
      vertex 15 13.5 0
      vertex 9.77588 9.28901 0
    endloop
  endfacet
  facet normal -0.987688 0.156435 0
    outer loop
      vertex 0 6.75 0
      vertex 0 6.75 13.5
      vertex 0.330369 8.83587 0
    endloop
  endfacet
  facet normal -0.987688 0.156435 0
    outer loop
      vertex 0.330369 8.83587 0
      vertex 0 6.75 13.5
      vertex 0.330369 8.83587 13.5
    endloop
  endfacet
  facet normal -0.987688 -0.156435 0
    outer loop
      vertex 0 6.75 0
      vertex 0.330369 4.66413 0
      vertex 0 6.75 13.5
    endloop
  endfacet
  facet normal -0.987688 -0.156435 0
    outer loop
      vertex 0 6.75 13.5
      vertex 0.330369 4.66413 0
      vertex 0.330369 4.66413 13.5
    endloop
  endfacet
  facet normal -0.891007 -0.45399 0
    outer loop
      vertex 0.330369 4.66413 0
      vertex 1.28913 2.78245 0
      vertex 0.330369 4.66413 13.5
    endloop
  endfacet
  facet normal -0.891007 -0.45399 0
    outer loop
      vertex 0.330369 4.66413 13.5
      vertex 1.28913 2.78245 0
      vertex 1.28913 2.78245 13.5
    endloop
  endfacet
  facet normal -0.707107 -0.707107 0
    outer loop
      vertex 1.28913 2.78245 13.5
      vertex 1.28913 2.78245 0
      vertex 2.78245 1.28913 0
    endloop
  endfacet
  facet normal -0.707107 -0.707107 0
    outer loop
      vertex 2.78245 1.28913 13.5
      vertex 1.28913 2.78245 13.5
      vertex 2.78245 1.28913 0
    endloop
  endfacet
  facet normal -0.45399 -0.891007 0
    outer loop
      vertex 2.78245 1.28913 13.5
      vertex 2.78245 1.28913 0
      vertex 4.66413 0.330369 0
    endloop
  endfacet
  facet normal -0.45399 -0.891007 0
    outer loop
      vertex 4.66413 0.330369 13.5
      vertex 2.78245 1.28913 13.5
      vertex 4.66413 0.330369 0
    endloop
  endfacet
  facet normal -0.156435 -0.987688 0
    outer loop
      vertex 4.66413 0.330369 13.5
      vertex 4.66413 0.330369 0
      vertex 6.75 0 0
    endloop
  endfacet
  facet normal -0.156435 -0.987688 0
    outer loop
      vertex 6.75 0 13.5
      vertex 4.66413 0.330369 13.5
      vertex 6.75 0 0
    endloop
  endfacet
  facet normal 0 -1 0
    outer loop
      vertex 14.1029 0 2.9976e-15
      vertex 6.75 0 0
      vertex 15 0 0
    endloop
  endfacet
  facet normal 0 -1 0
    outer loop
      vertex 10.2058 0 6.75
      vertex 6.75 0 0
      vertex 14.1029 0 2.9976e-15
    endloop
  endfacet
  facet normal 0 -1 0
    outer loop
      vertex 6.75 0 13.5
      vertex 6.75 0 0
      vertex 10.2058 0 6.75
    endloop
  endfacet
  facet normal 0 -1 0
    outer loop
      vertex 12.5747 0 7.5
      vertex 6.75 0 13.5
      vertex 12.7148 0 6.75
    endloop
  endfacet
  facet normal 0 -1 0
    outer loop
      vertex 12.8735 0 9.09862
      vertex 6.75 0 13.5
      vertex 12.5747 0 7.5
    endloop
  endfacet
  facet normal 0 -1 0
    outer loop
      vertex 13.7296 0 10.4813
      vertex 6.75 0 13.5
      vertex 12.8735 0 9.09862
    endloop
  endfacet
  facet normal 0 -1 0
    outer loop
      vertex 15 0 11.4407
      vertex 6.75 0 13.5
      vertex 13.7296 0 10.4813
    endloop
  endfacet
  facet normal 0 -1 0
    outer loop
      vertex 15 0 13.5
      vertex 6.75 0 13.5
      vertex 15 0 11.4407
    endloop
  endfacet
  facet normal 0 -1 0
    outer loop
      vertex 15 0 2.9976e-15
      vertex 14.1029 0 2.9976e-15
      vertex 15 0 0
    endloop
  endfacet
  facet normal 0 -1 0
    outer loop
      vertex 10.2058 0 6.75
      vertex 12.7148 0 6.75
      vertex 6.75 0 13.5
    endloop
  endfacet
  facet normal 1 0 0
    outer loop
      vertex 15 0 2.9976e-15
      vertex 15 0 0
      vertex 15 4.25 0
    endloop
  endfacet
  facet normal 1 0 0
    outer loop
      vertex 15 4.25 2.05391e-15
      vertex 15 0 2.9976e-15
      vertex 15 4.25 0
    endloop
  endfacet
  facet normal 0 1 0
    outer loop
      vertex 20.7625 4.25 9.82965
      vertex 21.8971 4.25 13.5
      vertex 25.7942 4.25 6.75
    endloop
  endfacet
  facet normal 0 1 0
    outer loop
      vertex 20.7625 4.25 9.82965
      vertex 25.7942 4.25 6.75
      vertex 21.35 4.25 8.31316
    endloop
  endfacet
  facet normal 0 1 0
    outer loop
      vertex 12.8735 4.25 5.90138
      vertex 15 4.25 2.05391e-15
      vertex 9.7984 4.25 13.5
    endloop
  endfacet
  facet normal 0 1 0
    outer loop
      vertex 15 4.25 2.05391e-15
      vertex 15 4.25 0
      vertex 9.7984 4.25 13.5
    endloop
  endfacet
  facet normal 0 1 0
    outer loop
      vertex 15 4.25 0
      vertex 9.7984 4.25 0
      vertex 9.7984 4.25 13.5
    endloop
  endfacet
  facet normal 0 1 0
    outer loop
      vertex 13.7296 4.25 4.51866
      vertex 15 4.25 2.05391e-15
      vertex 12.8735 4.25 5.90138
    endloop
  endfacet
  facet normal 0 1 0
    outer loop
      vertex 12.5747 4.25 7.5
      vertex 12.8735 4.25 5.90138
      vertex 9.7984 4.25 13.5
    endloop
  endfacet
  facet normal 0 1 0
    outer loop
      vertex 15.0275 4.25 3.53859
      vertex 15 4.25 2.05391e-15
      vertex 13.7296 4.25 4.51866
    endloop
  endfacet
  facet normal 0 1 0
    outer loop
      vertex 21.8971 4.25 2.05391e-15
      vertex 15 4.25 2.05391e-15
      vertex 15.0275 4.25 3.53859
    endloop
  endfacet
  facet normal 0 1 0
    outer loop
      vertex 18.2111 4.25 3.24359
      vertex 21.8971 4.25 2.05391e-15
      vertex 16.5917 4.25 3.09353
    endloop
  endfacet
  facet normal 0 1 0
    outer loop
      vertex 19.6669 4.25 3.96849
      vertex 21.8971 4.25 2.05391e-15
      vertex 18.2111 4.25 3.24359
    endloop
  endfacet
  facet normal 0 1 0
    outer loop
      vertex 25.7942 4.25 6.75
      vertex 21.8971 4.25 2.05391e-15
      vertex 19.6669 4.25 3.96849
    endloop
  endfacet
  facet normal 0 1 0
    outer loop
      vertex 25.7942 4.25 6.75
      vertex 19.6669 4.25 3.96849
      vertex 20.7625 4.25 5.17035
    endloop
  endfacet
  facet normal 0 1 0
    outer loop
      vertex 25.7942 4.25 6.75
      vertex 20.7625 4.25 5.17035
      vertex 21.35 4.25 6.68684
    endloop
  endfacet
  facet normal 0 1 0
    outer loop
      vertex 25.7942 4.25 6.75
      vertex 21.35 4.25 6.68684
      vertex 21.35 4.25 8.31316
    endloop
  endfacet
  facet normal 0 1 0
    outer loop
      vertex 19.6669 4.25 11.0315
      vertex 21.8971 4.25 13.5
      vertex 20.7625 4.25 9.82965
    endloop
  endfacet
  facet normal 0 1 0
    outer loop
      vertex 16.5917 4.25 11.9065
      vertex 14.1029 4.25 13.5
      vertex 18.2111 4.25 11.7564
    endloop
  endfacet
  facet normal 0 1 0
    outer loop
      vertex 18.2111 4.25 11.7564
      vertex 21.8971 4.25 13.5
      vertex 19.6669 4.25 11.0315
    endloop
  endfacet
  facet normal 0 1 0
    outer loop
      vertex 14.1029 4.25 13.5
      vertex 21.8971 4.25 13.5
      vertex 18.2111 4.25 11.7564
    endloop
  endfacet
  facet normal 0 1 0
    outer loop
      vertex 14.1029 4.25 13.5
      vertex 16.5917 4.25 11.9065
      vertex 9.7984 4.25 13.5
    endloop
  endfacet
  facet normal 0 1 0
    outer loop
      vertex 16.5917 4.25 11.9065
      vertex 15.0275 4.25 11.4614
      vertex 9.7984 4.25 13.5
    endloop
  endfacet
  facet normal 0 1 0
    outer loop
      vertex 12.8735 4.25 9.09862
      vertex 9.7984 4.25 13.5
      vertex 13.7296 4.25 10.4813
    endloop
  endfacet
  facet normal 0 1 0
    outer loop
      vertex 12.8735 4.25 9.09862
      vertex 12.5747 4.25 7.5
      vertex 9.7984 4.25 13.5
    endloop
  endfacet
  facet normal 0 1 0
    outer loop
      vertex 16.5917 4.25 3.09353
      vertex 21.8971 4.25 2.05391e-15
      vertex 15.0275 4.25 3.53859
    endloop
  endfacet
  facet normal 0 1 0
    outer loop
      vertex 13.7296 4.25 10.4813
      vertex 9.7984 4.25 13.5
      vertex 15.0275 4.25 11.4614
    endloop
  endfacet
  facet normal -0.866025 0.5 0
    outer loop
      vertex 9.7984 4.25 13.5
      vertex 9.7984 4.25 0
      vertex 9.77588 4.21099 13.5
    endloop
  endfacet
  facet normal -0.866025 0.5 0
    outer loop
      vertex 9.77588 4.21099 13.5
      vertex 9.7984 4.25 0
      vertex 9.77588 4.21099 0
    endloop
  endfacet
  facet normal -0.642787 0.766045 0
    outer loop
      vertex 9.77588 4.21099 13.5
      vertex 9.77588 4.21099 0
      vertex 8.725 3.3292 13.5
    endloop
  endfacet
  facet normal -0.642787 0.766045 0
    outer loop
      vertex 8.725 3.3292 13.5
      vertex 9.77588 4.21099 0
      vertex 8.725 3.3292 0
    endloop
  endfacet
  facet normal -0.342021 0.939692 0
    outer loop
      vertex 8.725 3.3292 13.5
      vertex 8.725 3.3292 0
      vertex 7.43591 2.86001 13.5
    endloop
  endfacet
  facet normal -0.342021 0.939692 0
    outer loop
      vertex 7.43591 2.86001 13.5
      vertex 8.725 3.3292 0
      vertex 7.43591 2.86001 0
    endloop
  endfacet
  facet normal 0 1 0
    outer loop
      vertex 7.43591 2.86001 13.5
      vertex 7.43591 2.86001 0
      vertex 6.06409 2.86001 13.5
    endloop
  endfacet
  facet normal 0 1 0
    outer loop
      vertex 6.06409 2.86001 13.5
      vertex 7.43591 2.86001 0
      vertex 6.06409 2.86001 0
    endloop
  endfacet
  facet normal 0.342021 0.939692 0
    outer loop
      vertex 6.06409 2.86001 13.5
      vertex 6.06409 2.86001 0
      vertex 4.775 3.3292 13.5
    endloop
  endfacet
  facet normal 0.342021 0.939692 0
    outer loop
      vertex 4.775 3.3292 13.5
      vertex 6.06409 2.86001 0
      vertex 4.775 3.3292 0
    endloop
  endfacet
  facet normal 0.642787 0.766045 0
    outer loop
      vertex 4.775 3.3292 13.5
      vertex 4.775 3.3292 0
      vertex 3.72412 4.21099 13.5
    endloop
  endfacet
  facet normal 0.642787 0.766045 0
    outer loop
      vertex 3.72412 4.21099 13.5
      vertex 4.775 3.3292 0
      vertex 3.72412 4.21099 0
    endloop
  endfacet
  facet normal 0.866025 0.5 0
    outer loop
      vertex 3.03821 5.39902 13.5
      vertex 3.72412 4.21099 13.5
      vertex 3.72412 4.21099 0
    endloop
  endfacet
  facet normal 0.866025 0.5 0
    outer loop
      vertex 3.03821 5.39902 0
      vertex 3.03821 5.39902 13.5
      vertex 3.72412 4.21099 0
    endloop
  endfacet
  facet normal 0.984808 0.173648 0
    outer loop
      vertex 2.8 6.75 13.5
      vertex 3.03821 5.39902 13.5
      vertex 3.03821 5.39902 0
    endloop
  endfacet
  facet normal 0.984808 0.173648 0
    outer loop
      vertex 2.8 6.75 0
      vertex 2.8 6.75 13.5
      vertex 3.03821 5.39902 0
    endloop
  endfacet
  facet normal 0.984808 -0.173648 0
    outer loop
      vertex 3.03821 8.10098 0
      vertex 3.03821 8.10098 13.5
      vertex 2.8 6.75 13.5
    endloop
  endfacet
  facet normal 0.984808 -0.173648 0
    outer loop
      vertex 2.8 6.75 0
      vertex 3.03821 8.10098 0
      vertex 2.8 6.75 13.5
    endloop
  endfacet
  facet normal 0.866025 -0.5 0
    outer loop
      vertex 3.72412 9.28901 0
      vertex 3.72412 9.28901 13.5
      vertex 3.03821 8.10098 13.5
    endloop
  endfacet
  facet normal 0.866025 -0.5 0
    outer loop
      vertex 3.03821 8.10098 0
      vertex 3.72412 9.28901 0
      vertex 3.03821 8.10098 13.5
    endloop
  endfacet
  facet normal 0.642787 -0.766045 0
    outer loop
      vertex 4.775 10.1708 0
      vertex 4.775 10.1708 13.5
      vertex 3.72412 9.28901 13.5
    endloop
  endfacet
  facet normal 0.642787 -0.766045 0
    outer loop
      vertex 3.72412 9.28901 0
      vertex 4.775 10.1708 0
      vertex 3.72412 9.28901 13.5
    endloop
  endfacet
  facet normal 0.342021 -0.939692 0
    outer loop
      vertex 6.06409 10.64 0
      vertex 6.06409 10.64 13.5
      vertex 4.775 10.1708 13.5
    endloop
  endfacet
  facet normal 0.342021 -0.939692 0
    outer loop
      vertex 4.775 10.1708 0
      vertex 6.06409 10.64 0
      vertex 4.775 10.1708 13.5
    endloop
  endfacet
  facet normal 0 -1 0
    outer loop
      vertex 7.43591 10.64 0
      vertex 7.43591 10.64 13.5
      vertex 6.06409 10.64 13.5
    endloop
  endfacet
  facet normal 0 -1 0
    outer loop
      vertex 6.06409 10.64 0
      vertex 7.43591 10.64 0
      vertex 6.06409 10.64 13.5
    endloop
  endfacet
  facet normal -0.342021 -0.939692 0
    outer loop
      vertex 8.725 10.1708 0
      vertex 8.725 10.1708 13.5
      vertex 7.43591 10.64 13.5
    endloop
  endfacet
  facet normal -0.342021 -0.939692 0
    outer loop
      vertex 7.43591 10.64 0
      vertex 8.725 10.1708 0
      vertex 7.43591 10.64 13.5
    endloop
  endfacet
  facet normal -0.642787 -0.766045 0
    outer loop
      vertex 9.77588 9.28901 0
      vertex 9.77588 9.28901 13.5
      vertex 8.725 10.1708 13.5
    endloop
  endfacet
  facet normal -0.642787 -0.766045 0
    outer loop
      vertex 8.725 10.1708 0
      vertex 9.77588 9.28901 0
      vertex 8.725 10.1708 13.5
    endloop
  endfacet
  facet normal -0.866025 -0.5 0
    outer loop
      vertex 9.7984 9.25 13.5
      vertex 9.77588 9.28901 13.5
      vertex 9.7984 9.25 0
    endloop
  endfacet
  facet normal -0.866025 -0.5 0
    outer loop
      vertex 9.7984 9.25 0
      vertex 9.77588 9.28901 13.5
      vertex 9.77588 9.28901 0
    endloop
  endfacet
  facet normal 0 -1 0
    outer loop
      vertex 25.7942 9.25 6.75
      vertex 15 9.25 9.4369e-16
      vertex 21.8971 9.25 9.4369e-16
    endloop
  endfacet
  facet normal 0 -1 0
    outer loop
      vertex 19.6669 9.25 3.96849
      vertex 15 9.25 9.4369e-16
      vertex 25.7942 9.25 6.75
    endloop
  endfacet
  facet normal 0 -1 0
    outer loop
      vertex 19.6669 9.25 11.0315
      vertex 20.7625 9.25 9.82965
      vertex 21.8971 9.25 13.5
    endloop
  endfacet
  facet normal 0 -1 0
    outer loop
      vertex 18.2111 9.25 3.24359
      vertex 16.5917 9.25 3.09353
      vertex 15 9.25 9.4369e-16
    endloop
  endfacet
  facet normal 0 -1 0
    outer loop
      vertex 9.7984 9.25 0
      vertex 15 9.25 0
      vertex 9.7984 9.25 13.5
    endloop
  endfacet
  facet normal 0 -1 0
    outer loop
      vertex 9.7984 9.25 13.5
      vertex 12.8735 9.25 9.09862
      vertex 14.1029 9.25 13.5
    endloop
  endfacet
  facet normal 0 -1 0
    outer loop
      vertex 9.7984 9.25 13.5
      vertex 12.5747 9.25 7.5
      vertex 12.8735 9.25 9.09862
    endloop
  endfacet
  facet normal 0 -1 0
    outer loop
      vertex 13.7296 9.25 4.51866
      vertex 12.8735 9.25 5.90138
      vertex 15 9.25 0
    endloop
  endfacet
  facet normal 0 -1 0
    outer loop
      vertex 14.1029 9.25 13.5
      vertex 15.0275 9.25 11.4614
      vertex 21.8971 9.25 13.5
    endloop
  endfacet
  facet normal 0 -1 0
    outer loop
      vertex 15.0275 9.25 3.53859
      vertex 13.7296 9.25 4.51866
      vertex 15 9.25 9.4369e-16
    endloop
  endfacet
  facet normal 0 -1 0
    outer loop
      vertex 15.0275 9.25 11.4614
      vertex 16.5917 9.25 11.9065
      vertex 21.8971 9.25 13.5
    endloop
  endfacet
  facet normal 0 -1 0
    outer loop
      vertex 16.5917 9.25 11.9065
      vertex 18.2111 9.25 11.7564
      vertex 21.8971 9.25 13.5
    endloop
  endfacet
  facet normal 0 -1 0
    outer loop
      vertex 18.2111 9.25 11.7564
      vertex 19.6669 9.25 11.0315
      vertex 21.8971 9.25 13.5
    endloop
  endfacet
  facet normal 0 -1 0
    outer loop
      vertex 15 9.25 9.4369e-16
      vertex 13.7296 9.25 4.51866
      vertex 15 9.25 0
    endloop
  endfacet
  facet normal 0 -1 0
    outer loop
      vertex 21.8971 9.25 13.5
      vertex 20.7625 9.25 9.82965
      vertex 25.7942 9.25 6.75
    endloop
  endfacet
  facet normal 0 -1 0
    outer loop
      vertex 20.7625 9.25 9.82965
      vertex 21.35 9.25 8.31316
      vertex 25.7942 9.25 6.75
    endloop
  endfacet
  facet normal 0 -1 0
    outer loop
      vertex 21.35 9.25 8.31316
      vertex 21.35 9.25 6.68684
      vertex 25.7942 9.25 6.75
    endloop
  endfacet
  facet normal 0 -1 0
    outer loop
      vertex 21.35 9.25 6.68684
      vertex 20.7625 9.25 5.17035
      vertex 25.7942 9.25 6.75
    endloop
  endfacet
  facet normal 0 -1 0
    outer loop
      vertex 20.7625 9.25 5.17035
      vertex 19.6669 9.25 3.96849
      vertex 25.7942 9.25 6.75
    endloop
  endfacet
  facet normal 0 -1 0
    outer loop
      vertex 16.5917 9.25 3.09353
      vertex 15.0275 9.25 3.53859
      vertex 15 9.25 9.4369e-16
    endloop
  endfacet
  facet normal 0 -1 0
    outer loop
      vertex 19.6669 9.25 3.96849
      vertex 18.2111 9.25 3.24359
      vertex 15 9.25 9.4369e-16
    endloop
  endfacet
  facet normal 0 -1 0
    outer loop
      vertex 9.7984 9.25 13.5
      vertex 12.8735 9.25 5.90138
      vertex 12.5747 9.25 7.5
    endloop
  endfacet
  facet normal 0 -1 0
    outer loop
      vertex 9.7984 9.25 13.5
      vertex 15 9.25 0
      vertex 12.8735 9.25 5.90138
    endloop
  endfacet
  facet normal 0 -1 0
    outer loop
      vertex 12.8735 9.25 9.09862
      vertex 13.7296 9.25 10.4813
      vertex 14.1029 9.25 13.5
    endloop
  endfacet
  facet normal 0 -1 0
    outer loop
      vertex 13.7296 9.25 10.4813
      vertex 15.0275 9.25 11.4614
      vertex 14.1029 9.25 13.5
    endloop
  endfacet
  facet normal 1 0 0
    outer loop
      vertex 15 9.25 9.4369e-16
      vertex 15 9.25 0
      vertex 15 13.5 0
    endloop
  endfacet
  facet normal 0 -2.22045e-16 -1
    outer loop
      vertex 15 9.25 9.4369e-16
      vertex 15 13.5 0
      vertex 21.8971 9.25 9.4369e-16
    endloop
  endfacet
  facet normal 0 -2.22045e-16 -1
    outer loop
      vertex 21.8971 9.25 9.4369e-16
      vertex 15 13.5 0
      vertex 21.8971 13.5 0
    endloop
  endfacet
  facet normal 0 1 -2.22045e-16
    outer loop
      vertex 18.2111 13.5 11.7564
      vertex 14.1029 13.5 13.5
      vertex 21.8971 13.5 13.5
    endloop
  endfacet
  facet normal 0 1 -2.22045e-16
    outer loop
      vertex 21.35 13.5 8.31316
      vertex 21.8971 13.5 13.5
      vertex 25.7942 13.5 6.75
    endloop
  endfacet
  facet normal 0 1 -2.22045e-16
    outer loop
      vertex 18.2111 13.5 3.24359
      vertex 25.7942 13.5 6.75
      vertex 21.8971 13.5 0
    endloop
  endfacet
  facet normal 0 1 -2.22045e-16
    outer loop
      vertex 18.2111 13.5 3.24359
      vertex 21.8971 13.5 0
      vertex 16.5917 13.5 3.09353
    endloop
  endfacet
  facet normal 0 1 -2.22045e-16
    outer loop
      vertex 15.0275 13.5 3.53859
      vertex 15 13.5 0
      vertex 15 13.5 3.55932
    endloop
  endfacet
  facet normal 0 1 -2.22045e-16
    outer loop
      vertex 21.8971 13.5 0
      vertex 15 13.5 0
      vertex 15.0275 13.5 3.53859
    endloop
  endfacet
  facet normal 0 1 -2.22045e-16
    outer loop
      vertex 19.6669 13.5 3.96849
      vertex 25.7942 13.5 6.75
      vertex 18.2111 13.5 3.24359
    endloop
  endfacet
  facet normal 0 1 -2.22045e-16
    outer loop
      vertex 21.35 13.5 8.31316
      vertex 25.7942 13.5 6.75
      vertex 21.35 13.5 6.68684
    endloop
  endfacet
  facet normal 0 1 -2.22045e-16
    outer loop
      vertex 20.7625 13.5 5.17035
      vertex 25.7942 13.5 6.75
      vertex 19.6669 13.5 3.96849
    endloop
  endfacet
  facet normal 0 1 -2.22045e-16
    outer loop
      vertex 21.35 13.5 6.68684
      vertex 25.7942 13.5 6.75
      vertex 20.7625 13.5 5.17035
    endloop
  endfacet
  facet normal 0 1 -2.22045e-16
    outer loop
      vertex 20.7625 13.5 9.82965
      vertex 21.8971 13.5 13.5
      vertex 21.35 13.5 8.31316
    endloop
  endfacet
  facet normal 0 1 -2.22045e-16
    outer loop
      vertex 18.2111 13.5 11.7564
      vertex 21.8971 13.5 13.5
      vertex 19.6669 13.5 11.0315
    endloop
  endfacet
  facet normal 0 1 -2.22045e-16
    outer loop
      vertex 19.6669 13.5 11.0315
      vertex 21.8971 13.5 13.5
      vertex 20.7625 13.5 9.82965
    endloop
  endfacet
  facet normal 0 1 -2.22045e-16
    outer loop
      vertex 16.5917 13.5 11.9065
      vertex 14.1029 13.5 13.5
      vertex 18.2111 13.5 11.7564
    endloop
  endfacet
  facet normal 0 1 -2.22045e-16
    outer loop
      vertex 12.8735 13.5 9.09862
      vertex 14.1029 13.5 13.5
      vertex 13.7296 13.5 10.4813
    endloop
  endfacet
  facet normal 0 1 -2.22045e-16
    outer loop
      vertex 15.0275 13.5 11.4614
      vertex 14.1029 13.5 13.5
      vertex 16.5917 13.5 11.9065
    endloop
  endfacet
  facet normal 0 1 -2.22045e-16
    outer loop
      vertex 13.7296 13.5 10.4813
      vertex 14.1029 13.5 13.5
      vertex 15.0275 13.5 11.4614
    endloop
  endfacet
  facet normal 0 1 -2.22045e-16
    outer loop
      vertex 10.2058 13.5 6.75
      vertex 14.1029 13.5 13.5
      vertex 12.8735 13.5 9.09862
    endloop
  endfacet
  facet normal 0 1 -2.22045e-16
    outer loop
      vertex 10.2058 13.5 6.75
      vertex 12.8735 13.5 9.09862
      vertex 12.5747 13.5 7.5
    endloop
  endfacet
  facet normal 0 1 -2.22045e-16
    outer loop
      vertex 10.2058 13.5 6.75
      vertex 12.5747 13.5 7.5
      vertex 12.7148 13.5 6.75
    endloop
  endfacet
  facet normal 0 1 -2.22045e-16
    outer loop
      vertex 16.5917 13.5 3.09353
      vertex 21.8971 13.5 0
      vertex 15.0275 13.5 3.53859
    endloop
  endfacet
  facet normal 0 1 0
    outer loop
      vertex 13.7296 13.5 4.51866
      vertex 15 13.5 0
      vertex 12.8735 13.5 5.90138
    endloop
  endfacet
  facet normal 0 1 0
    outer loop
      vertex 6.75 13.5 0
      vertex 6.75 13.5 13.5
      vertex 10.2058 13.5 6.75
    endloop
  endfacet
  facet normal 0 1 0
    outer loop
      vertex 6.75 13.5 0
      vertex 10.2058 13.5 6.75
      vertex 15 13.5 0
    endloop
  endfacet
  facet normal 0 1 0
    outer loop
      vertex 15 13.5 3.55932
      vertex 15 13.5 0
      vertex 13.7296 13.5 4.51866
    endloop
  endfacet
  facet normal 0 1 0
    outer loop
      vertex 10.2058 13.5 6.75
      vertex 6.75 13.5 13.5
      vertex 14.1029 13.5 13.5
    endloop
  endfacet
  facet normal 0 1 0
    outer loop
      vertex 12.8735 13.5 5.90138
      vertex 15 13.5 0
      vertex 10.2058 13.5 6.75
    endloop
  endfacet
  facet normal 0 1 0
    outer loop
      vertex 12.7148 13.5 6.75
      vertex 12.8735 13.5 5.90138
      vertex 10.2058 13.5 6.75
    endloop
  endfacet
  facet normal -0.156435 0.987688 0
    outer loop
      vertex 4.66413 13.1696 0
      vertex 4.66413 13.1696 13.5
      vertex 6.75 13.5 0
    endloop
  endfacet
  facet normal -0.156435 0.987688 0
    outer loop
      vertex 6.75 13.5 0
      vertex 4.66413 13.1696 13.5
      vertex 6.75 13.5 13.5
    endloop
  endfacet
  facet normal -0.45399 0.891007 0
    outer loop
      vertex 2.78245 12.2109 0
      vertex 2.78245 12.2109 13.5
      vertex 4.66413 13.1696 0
    endloop
  endfacet
  facet normal -0.45399 0.891007 0
    outer loop
      vertex 4.66413 13.1696 0
      vertex 2.78245 12.2109 13.5
      vertex 4.66413 13.1696 13.5
    endloop
  endfacet
  facet normal -0.707107 0.707107 0
    outer loop
      vertex 1.28913 10.7175 0
      vertex 1.28913 10.7175 13.5
      vertex 2.78245 12.2109 0
    endloop
  endfacet
  facet normal -0.707107 0.707107 0
    outer loop
      vertex 2.78245 12.2109 0
      vertex 1.28913 10.7175 13.5
      vertex 2.78245 12.2109 13.5
    endloop
  endfacet
  facet normal -0.891007 0.45399 0
    outer loop
      vertex 0.330369 8.83587 0
      vertex 0.330369 8.83587 13.5
      vertex 1.28913 10.7175 0
    endloop
  endfacet
  facet normal -0.891007 0.45399 0
    outer loop
      vertex 1.28913 10.7175 0
      vertex 0.330369 8.83587 13.5
      vertex 1.28913 10.7175 13.5
    endloop
  endfacet
  facet normal 0 0 1
    outer loop
      vertex 0.330369 8.83587 13.5
      vertex 0 6.75 13.5
      vertex 0.330369 4.66413 13.5
    endloop
  endfacet
  facet normal 0 0 1
    outer loop
      vertex 2.78245 1.28913 13.5
      vertex 0.330369 8.83587 13.5
      vertex 1.28913 2.78245 13.5
    endloop
  endfacet
  facet normal 0 0 1
    outer loop
      vertex 1.28913 2.78245 13.5
      vertex 0.330369 8.83587 13.5
      vertex 0.330369 4.66413 13.5
    endloop
  endfacet
  facet normal 0 0 1
    outer loop
      vertex 4.66413 0.330369 13.5
      vertex 0.330369 8.83587 13.5
      vertex 2.78245 1.28913 13.5
    endloop
  endfacet
  facet normal 0 0 1
    outer loop
      vertex 6.75 0 13.5
      vertex 0.330369 8.83587 13.5
      vertex 4.66413 0.330369 13.5
    endloop
  endfacet
  facet normal 0 0 1
    outer loop
      vertex 3.72412 4.21099 13.5
      vertex 0.330369 8.83587 13.5
      vertex 6.75 0 13.5
    endloop
  endfacet
  facet normal 0 0 1
    outer loop
      vertex 3.03821 5.39902 13.5
      vertex 2.8 6.75 13.5
      vertex 0.330369 8.83587 13.5
    endloop
  endfacet
  facet normal 0 0 1
    outer loop
      vertex 15 0 13.5
      vertex 14.1029 1.4988e-15 13.5
      vertex 6.75 0 13.5
    endloop
  endfacet
  facet normal 0 0 1
    outer loop
      vertex 9.7984 9.25 13.5
      vertex 14.1029 9.25 13.5
      vertex 9.77588 9.28901 13.5
    endloop
  endfacet
  facet normal 0 0 1
    outer loop
      vertex 9.77588 4.21099 13.5
      vertex 8.725 3.3292 13.5
      vertex 14.1029 1.4988e-15 13.5
    endloop
  endfacet
  facet normal 0 0 1
    outer loop
      vertex 14.1029 1.4988e-15 13.5
      vertex 8.725 3.3292 13.5
      vertex 6.75 0 13.5
    endloop
  endfacet
  facet normal 0 0 1
    outer loop
      vertex 8.725 3.3292 13.5
      vertex 7.43591 2.86001 13.5
      vertex 6.75 0 13.5
    endloop
  endfacet
  facet normal 0 0 1
    outer loop
      vertex 7.43591 2.86001 13.5
      vertex 6.06409 2.86001 13.5
      vertex 6.75 0 13.5
    endloop
  endfacet
  facet normal 0 0 1
    outer loop
      vertex 6.06409 2.86001 13.5
      vertex 4.775 3.3292 13.5
      vertex 6.75 0 13.5
    endloop
  endfacet
  facet normal 0 0 1
    outer loop
      vertex 4.775 3.3292 13.5
      vertex 3.72412 4.21099 13.5
      vertex 6.75 0 13.5
    endloop
  endfacet
  facet normal 0 0 1
    outer loop
      vertex 3.03821 5.39902 13.5
      vertex 0.330369 8.83587 13.5
      vertex 3.72412 4.21099 13.5
    endloop
  endfacet
  facet normal 0 0 1
    outer loop
      vertex 3.72412 9.28901 13.5
      vertex 0.330369 8.83587 13.5
      vertex 3.03821 8.10098 13.5
    endloop
  endfacet
  facet normal 0 0 1
    outer loop
      vertex 4.775 10.1708 13.5
      vertex 0.330369 8.83587 13.5
      vertex 3.72412 9.28901 13.5
    endloop
  endfacet
  facet normal 0 0 1
    outer loop
      vertex 6.06409 10.64 13.5
      vertex 0.330369 8.83587 13.5
      vertex 4.775 10.1708 13.5
    endloop
  endfacet
  facet normal 0 0 1
    outer loop
      vertex 14.1029 13.5 13.5
      vertex 0.330369 8.83587 13.5
      vertex 6.06409 10.64 13.5
    endloop
  endfacet
  facet normal 0 0 1
    outer loop
      vertex 14.1029 13.5 13.5
      vertex 6.06409 10.64 13.5
      vertex 7.43591 10.64 13.5
    endloop
  endfacet
  facet normal 0 0 1
    outer loop
      vertex 14.1029 9.25 13.5
      vertex 7.43591 10.64 13.5
      vertex 8.725 10.1708 13.5
    endloop
  endfacet
  facet normal 0 0 1
    outer loop
      vertex 14.1029 9.25 13.5
      vertex 8.725 10.1708 13.5
      vertex 9.77588 9.28901 13.5
    endloop
  endfacet
  facet normal 0 0 1
    outer loop
      vertex 14.1029 13.5 13.5
      vertex 7.43591 10.64 13.5
      vertex 14.1029 9.25 13.5
    endloop
  endfacet
  facet normal 0 0 1
    outer loop
      vertex 6.75 13.5 13.5
      vertex 0.330369 8.83587 13.5
      vertex 14.1029 13.5 13.5
    endloop
  endfacet
  facet normal 0 0 1
    outer loop
      vertex 4.66413 13.1696 13.5
      vertex 0.330369 8.83587 13.5
      vertex 6.75 13.5 13.5
    endloop
  endfacet
  facet normal 0 0 1
    outer loop
      vertex 2.78245 12.2109 13.5
      vertex 0.330369 8.83587 13.5
      vertex 4.66413 13.1696 13.5
    endloop
  endfacet
  facet normal 0 0 1
    outer loop
      vertex 1.28913 10.7175 13.5
      vertex 0.330369 8.83587 13.5
      vertex 2.78245 12.2109 13.5
    endloop
  endfacet
  facet normal 0 0 1
    outer loop
      vertex 15 1.4988e-15 13.5
      vertex 14.1029 1.4988e-15 13.5
      vertex 15 0 13.5
    endloop
  endfacet
  facet normal 0 0 1
    outer loop
      vertex 14.1029 1.4988e-15 13.5
      vertex 9.7984 4.25 13.5
      vertex 9.77588 4.21099 13.5
    endloop
  endfacet
  facet normal 0 0 1
    outer loop
      vertex 14.1029 1.4988e-15 13.5
      vertex 14.1029 4.25 13.5
      vertex 9.7984 4.25 13.5
    endloop
  endfacet
  facet normal 0 0 1
    outer loop
      vertex 2.8 6.75 13.5
      vertex 3.03821 8.10098 13.5
      vertex 0.330369 8.83587 13.5
    endloop
  endfacet
  facet normal 1 0 0
    outer loop
      vertex 15 0 13.5
      vertex 15 0 11.4407
      vertex 15 1.04154e-15 11.4407
    endloop
  endfacet
  facet normal 1 0 0
    outer loop
      vertex 15 1.4988e-15 13.5
      vertex 15 0 13.5
      vertex 15 1.04154e-15 11.4407
    endloop
  endfacet
  facet normal 0.602635 -1.77195e-16 -0.798017
    outer loop
      vertex 15.0275 4.25 11.4614
      vertex 15.0275 1.04614e-15 11.4614
      vertex 13.7296 4.25 10.4813
    endloop
  endfacet
  facet normal 0.602635 -1.77195e-16 -0.798017
    outer loop
      vertex 13.7296 4.25 10.4813
      vertex 15.0275 1.04614e-15 11.4614
      vertex 15 1.04154e-15 11.4407
    endloop
  endfacet
  facet normal 0.602635 -1.77195e-16 -0.798017
    outer loop
      vertex 13.7296 4.25 10.4813
      vertex 15 1.04154e-15 11.4407
      vertex 15 0 11.4407
    endloop
  endfacet
  facet normal 0.602635 -1.77195e-16 -0.798017
    outer loop
      vertex 13.7296 4.25 10.4813
      vertex 15 0 11.4407
      vertex 13.7296 0 10.4813
    endloop
  endfacet
  facet normal 0.850217 -1.16891e-16 -0.526432
    outer loop
      vertex 12.8735 4.25 9.09862
      vertex 13.7296 4.25 10.4813
      vertex 13.7296 0 10.4813
    endloop
  endfacet
  facet normal 0.850217 -1.16891e-16 -0.526432
    outer loop
      vertex 12.8735 0 9.09862
      vertex 12.8735 4.25 9.09862
      vertex 13.7296 0 10.4813
    endloop
  endfacet
  facet normal 0.982973 -4.08006e-17 -0.183749
    outer loop
      vertex 12.5747 4.25 7.5
      vertex 12.8735 4.25 9.09862
      vertex 12.8735 0 9.09862
    endloop
  endfacet
  facet normal 0.982973 -4.08006e-17 -0.183749
    outer loop
      vertex 12.5747 0 7.5
      vertex 12.5747 4.25 7.5
      vertex 12.8735 0 9.09862
    endloop
  endfacet
  facet normal 0.982973 4.08006e-17 0.183749
    outer loop
      vertex 12.7148 0 6.75
      vertex 12.8735 -1.88432e-16 5.90138
      vertex 12.8735 4.25 5.90138
    endloop
  endfacet
  facet normal 0.982973 4.08006e-17 0.183749
    outer loop
      vertex 12.5747 0 7.5
      vertex 12.7148 0 6.75
      vertex 12.5747 4.25 7.5
    endloop
  endfacet
  facet normal 0.982973 4.08006e-17 0.183749
    outer loop
      vertex 12.5747 4.25 7.5
      vertex 12.7148 0 6.75
      vertex 12.8735 4.25 5.90138
    endloop
  endfacet
  facet normal 0 -1 2.22045e-16
    outer loop
      vertex 12.8735 -1.88432e-16 5.90138
      vertex 10.2058 0 6.75
      vertex 14.1029 -1.4988e-15 2.9976e-15
    endloop
  endfacet
  facet normal 0 -1 2.22045e-16
    outer loop
      vertex 13.7296 -4.95457e-16 4.51866
      vertex 12.8735 -1.88432e-16 5.90138
      vertex 14.1029 -1.4988e-15 2.9976e-15
    endloop
  endfacet
  facet normal 0 -1 2.22045e-16
    outer loop
      vertex 21.35 3.4709e-16 8.31316
      vertex 21.35 -1.40234e-17 6.68684
      vertex 25.7942 0 6.75
    endloop
  endfacet
  facet normal 0 -1 2.22045e-16
    outer loop
      vertex 18.2111 -7.78581e-16 3.24359
      vertex 16.5917 -8.119e-16 3.09353
      vertex 21.8971 -1.4988e-15 2.9976e-15
    endloop
  endfacet
  facet normal 0 -1 2.22045e-16
    outer loop
      vertex 14.1029 1.4988e-15 13.5
      vertex 15 1.4988e-15 13.5
      vertex 21.8971 1.4988e-15 13.5
    endloop
  endfacet
  facet normal 0 -1 2.22045e-16
    outer loop
      vertex 15 1.4988e-15 13.5
      vertex 15.0275 1.04614e-15 11.4614
      vertex 21.8971 1.4988e-15 13.5
    endloop
  endfacet
  facet normal 0 -1 2.22045e-16
    outer loop
      vertex 15 1.4988e-15 13.5
      vertex 15 1.04154e-15 11.4407
      vertex 15.0275 1.04614e-15 11.4614
    endloop
  endfacet
  facet normal 0 -1 2.22045e-16
    outer loop
      vertex 16.5917 1.14497e-15 11.9065
      vertex 18.2111 1.11165e-15 11.7564
      vertex 21.8971 1.4988e-15 13.5
    endloop
  endfacet
  facet normal 0 -1 2.22045e-16
    outer loop
      vertex 21.8971 1.4988e-15 13.5
      vertex 19.6669 9.50685e-16 11.0315
      vertex 25.7942 0 6.75
    endloop
  endfacet
  facet normal 0 -1 2.22045e-16
    outer loop
      vertex 19.6669 9.50685e-16 11.0315
      vertex 20.7625 6.83819e-16 9.82965
      vertex 25.7942 0 6.75
    endloop
  endfacet
  facet normal 0 -1 2.22045e-16
    outer loop
      vertex 20.7625 6.83819e-16 9.82965
      vertex 21.35 3.4709e-16 8.31316
      vertex 25.7942 0 6.75
    endloop
  endfacet
  facet normal 0 -1 2.22045e-16
    outer loop
      vertex 25.7942 0 6.75
      vertex 21.35 -1.40234e-17 6.68684
      vertex 21.8971 -1.4988e-15 2.9976e-15
    endloop
  endfacet
  facet normal 0 -1 2.22045e-16
    outer loop
      vertex 21.35 -1.40234e-17 6.68684
      vertex 20.7625 -3.50752e-16 5.17035
      vertex 21.8971 -1.4988e-15 2.9976e-15
    endloop
  endfacet
  facet normal 0 -1 2.22045e-16
    outer loop
      vertex 20.7625 -3.50752e-16 5.17035
      vertex 19.6669 -6.17618e-16 3.96849
      vertex 21.8971 -1.4988e-15 2.9976e-15
    endloop
  endfacet
  facet normal 0 -1 2.22045e-16
    outer loop
      vertex 19.6669 -6.17618e-16 3.96849
      vertex 18.2111 -7.78581e-16 3.24359
      vertex 21.8971 -1.4988e-15 2.9976e-15
    endloop
  endfacet
  facet normal 0 -1 2.22045e-16
    outer loop
      vertex 21.8971 -1.4988e-15 2.9976e-15
      vertex 16.5917 -8.119e-16 3.09353
      vertex 14.1029 -1.4988e-15 2.9976e-15
    endloop
  endfacet
  facet normal 0 -1 2.22045e-16
    outer loop
      vertex 16.5917 -8.119e-16 3.09353
      vertex 15.0275 -7.13076e-16 3.53859
      vertex 14.1029 -1.4988e-15 2.9976e-15
    endloop
  endfacet
  facet normal 0 -1 2.22045e-16
    outer loop
      vertex 15.0275 -7.13076e-16 3.53859
      vertex 13.7296 -4.95457e-16 4.51866
      vertex 14.1029 -1.4988e-15 2.9976e-15
    endloop
  endfacet
  facet normal 0 -1 2.22045e-16
    outer loop
      vertex 12.7148 0 6.75
      vertex 10.2058 0 6.75
      vertex 12.8735 -1.88432e-16 5.90138
    endloop
  endfacet
  facet normal 0 -1 2.22045e-16
    outer loop
      vertex 15.0275 1.04614e-15 11.4614
      vertex 16.5917 1.14497e-15 11.9065
      vertex 21.8971 1.4988e-15 13.5
    endloop
  endfacet
  facet normal 0 -1 2.22045e-16
    outer loop
      vertex 18.2111 1.11165e-15 11.7564
      vertex 19.6669 9.50685e-16 11.0315
      vertex 21.8971 1.4988e-15 13.5
    endloop
  endfacet
  facet normal -0.866025 -1.11022e-16 -0.5
    outer loop
      vertex 14.1029 -1.4988e-15 2.9976e-15
      vertex 10.2058 0 6.75
      vertex 14.1029 0 2.9976e-15
    endloop
  endfacet
  facet normal 0 -2.22045e-16 -1
    outer loop
      vertex 14.1029 -1.4988e-15 2.9976e-15
      vertex 14.1029 0 2.9976e-15
      vertex 21.8971 -1.4988e-15 2.9976e-15
    endloop
  endfacet
  facet normal 0 -2.22045e-16 -1
    outer loop
      vertex 21.8971 -1.4988e-15 2.9976e-15
      vertex 14.1029 0 2.9976e-15
      vertex 15 0 2.9976e-15
    endloop
  endfacet
  facet normal 0 -2.22045e-16 -1
    outer loop
      vertex 21.8971 -1.4988e-15 2.9976e-15
      vertex 15 0 2.9976e-15
      vertex 15 4.25 2.05391e-15
    endloop
  endfacet
  facet normal 0 -2.22045e-16 -1
    outer loop
      vertex 21.8971 -1.4988e-15 2.9976e-15
      vertex 15 4.25 2.05391e-15
      vertex 21.8971 4.25 2.05391e-15
    endloop
  endfacet
  facet normal 0.866025 -1.11022e-16 -0.5
    outer loop
      vertex 25.7942 0 6.75
      vertex 21.8971 -1.4988e-15 2.9976e-15
      vertex 21.8971 4.25 2.05391e-15
    endloop
  endfacet
  facet normal 0.866025 -1.11022e-16 -0.5
    outer loop
      vertex 25.7942 4.25 6.75
      vertex 25.7942 0 6.75
      vertex 21.8971 4.25 2.05391e-15
    endloop
  endfacet
  facet normal 0.866025 1.11022e-16 0.5
    outer loop
      vertex 21.8971 4.25 13.5
      vertex 21.8971 1.4988e-15 13.5
      vertex 25.7942 0 6.75
    endloop
  endfacet
  facet normal 0.866025 1.11022e-16 0.5
    outer loop
      vertex 25.7942 4.25 6.75
      vertex 21.8971 4.25 13.5
      vertex 25.7942 0 6.75
    endloop
  endfacet
  facet normal 0 2.22045e-16 1
    outer loop
      vertex 14.1029 4.25 13.5
      vertex 14.1029 1.4988e-15 13.5
      vertex 21.8971 1.4988e-15 13.5
    endloop
  endfacet
  facet normal 0 2.22045e-16 1
    outer loop
      vertex 21.8971 4.25 13.5
      vertex 14.1029 4.25 13.5
      vertex 21.8971 1.4988e-15 13.5
    endloop
  endfacet
  facet normal 0.850217 1.16891e-16 0.526432
    outer loop
      vertex 13.7296 -4.95457e-16 4.51866
      vertex 13.7296 4.25 4.51866
      vertex 12.8735 4.25 5.90138
    endloop
  endfacet
  facet normal 0.850217 1.16891e-16 0.526432
    outer loop
      vertex 12.8735 -1.88432e-16 5.90138
      vertex 13.7296 -4.95457e-16 4.51866
      vertex 12.8735 4.25 5.90138
    endloop
  endfacet
  facet normal 0.273663 -2.13568e-16 -0.961826
    outer loop
      vertex 16.5917 4.25 11.9065
      vertex 16.5917 1.14497e-15 11.9065
      vertex 15.0275 4.25 11.4614
    endloop
  endfacet
  facet normal 0.273663 -2.13568e-16 -0.961826
    outer loop
      vertex 15.0275 4.25 11.4614
      vertex 16.5917 1.14497e-15 11.9065
      vertex 15.0275 1.04614e-15 11.4614
    endloop
  endfacet
  facet normal -0.0922682 -2.21097e-16 -0.995734
    outer loop
      vertex 18.2111 4.25 11.7564
      vertex 18.2111 1.11165e-15 11.7564
      vertex 16.5917 4.25 11.9065
    endloop
  endfacet
  facet normal -0.0922682 -2.21097e-16 -0.995734
    outer loop
      vertex 16.5917 4.25 11.9065
      vertex 18.2111 1.11165e-15 11.7564
      vertex 16.5917 1.14497e-15 11.9065
    endloop
  endfacet
  facet normal -0.445738 -1.98766e-16 -0.895163
    outer loop
      vertex 19.6669 4.25 11.0315
      vertex 19.6669 9.50685e-16 11.0315
      vertex 18.2111 4.25 11.7564
    endloop
  endfacet
  facet normal -0.445738 -1.98766e-16 -0.895163
    outer loop
      vertex 18.2111 4.25 11.7564
      vertex 19.6669 9.50685e-16 11.0315
      vertex 18.2111 1.11165e-15 11.7564
    endloop
  endfacet
  facet normal -0.739009 -1.4959e-16 -0.673696
    outer loop
      vertex 20.7625 4.25 9.82965
      vertex 20.7625 6.83819e-16 9.82965
      vertex 19.6669 4.25 11.0315
    endloop
  endfacet
  facet normal -0.739009 -1.4959e-16 -0.673696
    outer loop
      vertex 19.6669 4.25 11.0315
      vertex 20.7625 6.83819e-16 9.82965
      vertex 19.6669 9.50685e-16 11.0315
    endloop
  endfacet
  facet normal -0.932472 -8.02118e-17 -0.361242
    outer loop
      vertex 21.35 4.25 8.31316
      vertex 21.35 3.4709e-16 8.31316
      vertex 20.7625 4.25 9.82965
    endloop
  endfacet
  facet normal -0.932472 -8.02118e-17 -0.361242
    outer loop
      vertex 20.7625 4.25 9.82965
      vertex 21.35 3.4709e-16 8.31316
      vertex 20.7625 6.83819e-16 9.82965
    endloop
  endfacet
  facet normal -1 2.71917e-32 1.22461e-16
    outer loop
      vertex 21.35 4.25 8.31316
      vertex 21.35 4.25 6.68684
      vertex 21.35 3.4709e-16 8.31316
    endloop
  endfacet
  facet normal -1 2.71917e-32 1.22461e-16
    outer loop
      vertex 21.35 3.4709e-16 8.31316
      vertex 21.35 4.25 6.68684
      vertex 21.35 -1.40234e-17 6.68684
    endloop
  endfacet
  facet normal -0.932472 8.02118e-17 0.361242
    outer loop
      vertex 21.35 4.25 6.68684
      vertex 20.7625 4.25 5.17035
      vertex 21.35 -1.40234e-17 6.68684
    endloop
  endfacet
  facet normal -0.932472 8.02118e-17 0.361242
    outer loop
      vertex 21.35 -1.40234e-17 6.68684
      vertex 20.7625 4.25 5.17035
      vertex 20.7625 -3.50752e-16 5.17035
    endloop
  endfacet
  facet normal -0.739009 1.4959e-16 0.673696
    outer loop
      vertex 20.7625 4.25 5.17035
      vertex 19.6669 4.25 3.96849
      vertex 20.7625 -3.50752e-16 5.17035
    endloop
  endfacet
  facet normal -0.739009 1.4959e-16 0.673696
    outer loop
      vertex 20.7625 -3.50752e-16 5.17035
      vertex 19.6669 4.25 3.96849
      vertex 19.6669 -6.17618e-16 3.96849
    endloop
  endfacet
  facet normal -0.445738 1.98766e-16 0.895163
    outer loop
      vertex 19.6669 -6.17618e-16 3.96849
      vertex 19.6669 4.25 3.96849
      vertex 18.2111 4.25 3.24359
    endloop
  endfacet
  facet normal -0.445738 1.98766e-16 0.895163
    outer loop
      vertex 18.2111 -7.78581e-16 3.24359
      vertex 19.6669 -6.17618e-16 3.96849
      vertex 18.2111 4.25 3.24359
    endloop
  endfacet
  facet normal -0.0922682 2.21097e-16 0.995734
    outer loop
      vertex 18.2111 -7.78581e-16 3.24359
      vertex 18.2111 4.25 3.24359
      vertex 16.5917 4.25 3.09353
    endloop
  endfacet
  facet normal -0.0922682 2.21097e-16 0.995734
    outer loop
      vertex 16.5917 -8.119e-16 3.09353
      vertex 18.2111 -7.78581e-16 3.24359
      vertex 16.5917 4.25 3.09353
    endloop
  endfacet
  facet normal 0.273663 2.13568e-16 0.961826
    outer loop
      vertex 16.5917 -8.119e-16 3.09353
      vertex 16.5917 4.25 3.09353
      vertex 15.0275 4.25 3.53859
    endloop
  endfacet
  facet normal 0.273663 2.13568e-16 0.961826
    outer loop
      vertex 15.0275 -7.13076e-16 3.53859
      vertex 16.5917 -8.119e-16 3.09353
      vertex 15.0275 4.25 3.53859
    endloop
  endfacet
  facet normal 0.602635 1.77195e-16 0.798017
    outer loop
      vertex 15.0275 -7.13076e-16 3.53859
      vertex 15.0275 4.25 3.53859
      vertex 13.7296 4.25 4.51866
    endloop
  endfacet
  facet normal 0.602635 1.77195e-16 0.798017
    outer loop
      vertex 13.7296 -4.95457e-16 4.51866
      vertex 15.0275 -7.13076e-16 3.53859
      vertex 13.7296 4.25 4.51866
    endloop
  endfacet
  facet normal 0 2.22045e-16 1
    outer loop
      vertex 14.1029 13.5 13.5
      vertex 14.1029 9.25 13.5
      vertex 21.8971 9.25 13.5
    endloop
  endfacet
  facet normal 0 2.22045e-16 1
    outer loop
      vertex 21.8971 13.5 13.5
      vertex 14.1029 13.5 13.5
      vertex 21.8971 9.25 13.5
    endloop
  endfacet
  facet normal 0.866025 1.11022e-16 0.5
    outer loop
      vertex 21.8971 13.5 13.5
      vertex 21.8971 9.25 13.5
      vertex 25.7942 9.25 6.75
    endloop
  endfacet
  facet normal 0.866025 1.11022e-16 0.5
    outer loop
      vertex 25.7942 13.5 6.75
      vertex 21.8971 13.5 13.5
      vertex 25.7942 9.25 6.75
    endloop
  endfacet
  facet normal 0.866025 -1.11022e-16 -0.5
    outer loop
      vertex 25.7942 9.25 6.75
      vertex 21.8971 9.25 9.4369e-16
      vertex 21.8971 13.5 0
    endloop
  endfacet
  facet normal 0.866025 -1.11022e-16 -0.5
    outer loop
      vertex 25.7942 13.5 6.75
      vertex 25.7942 9.25 6.75
      vertex 21.8971 13.5 0
    endloop
  endfacet
  facet normal 0.982973 4.08006e-17 0.183749
    outer loop
      vertex 12.8735 9.25 5.90138
      vertex 12.8735 13.5 5.90138
      vertex 12.7148 13.5 6.75
    endloop
  endfacet
  facet normal 0.982973 4.08006e-17 0.183749
    outer loop
      vertex 12.5747 13.5 7.5
      vertex 12.8735 9.25 5.90138
      vertex 12.7148 13.5 6.75
    endloop
  endfacet
  facet normal 0.982973 4.08006e-17 0.183749
    outer loop
      vertex 12.5747 13.5 7.5
      vertex 12.5747 9.25 7.5
      vertex 12.8735 9.25 5.90138
    endloop
  endfacet
  facet normal 0.982973 -4.08006e-17 -0.183749
    outer loop
      vertex 12.5747 13.5 7.5
      vertex 12.8735 13.5 9.09862
      vertex 12.8735 9.25 9.09862
    endloop
  endfacet
  facet normal 0.982973 -4.08006e-17 -0.183749
    outer loop
      vertex 12.5747 9.25 7.5
      vertex 12.5747 13.5 7.5
      vertex 12.8735 9.25 9.09862
    endloop
  endfacet
  facet normal 0.850217 1.16891e-16 0.526432
    outer loop
      vertex 13.7296 9.25 4.51866
      vertex 13.7296 13.5 4.51866
      vertex 12.8735 13.5 5.90138
    endloop
  endfacet
  facet normal 0.850217 1.16891e-16 0.526432
    outer loop
      vertex 12.8735 9.25 5.90138
      vertex 13.7296 9.25 4.51866
      vertex 12.8735 13.5 5.90138
    endloop
  endfacet
  facet normal 0.602635 1.77195e-16 0.798017
    outer loop
      vertex 15.0275 9.25 3.53859
      vertex 15.0275 13.5 3.53859
      vertex 15 13.5 3.55932
    endloop
  endfacet
  facet normal 0.602635 1.77195e-16 0.798017
    outer loop
      vertex 13.7296 13.5 4.51866
      vertex 15.0275 9.25 3.53859
      vertex 15 13.5 3.55932
    endloop
  endfacet
  facet normal 0.602635 1.77195e-16 0.798017
    outer loop
      vertex 13.7296 13.5 4.51866
      vertex 13.7296 9.25 4.51866
      vertex 15.0275 9.25 3.53859
    endloop
  endfacet
  facet normal 0.273663 2.13568e-16 0.961826
    outer loop
      vertex 16.5917 9.25 3.09353
      vertex 16.5917 13.5 3.09353
      vertex 15.0275 13.5 3.53859
    endloop
  endfacet
  facet normal 0.273663 2.13568e-16 0.961826
    outer loop
      vertex 15.0275 9.25 3.53859
      vertex 16.5917 9.25 3.09353
      vertex 15.0275 13.5 3.53859
    endloop
  endfacet
  facet normal -0.0922682 2.21097e-16 0.995734
    outer loop
      vertex 18.2111 9.25 3.24359
      vertex 18.2111 13.5 3.24359
      vertex 16.5917 13.5 3.09353
    endloop
  endfacet
  facet normal -0.0922682 2.21097e-16 0.995734
    outer loop
      vertex 16.5917 9.25 3.09353
      vertex 18.2111 9.25 3.24359
      vertex 16.5917 13.5 3.09353
    endloop
  endfacet
  facet normal -0.445738 1.98766e-16 0.895163
    outer loop
      vertex 19.6669 9.25 3.96849
      vertex 19.6669 13.5 3.96849
      vertex 18.2111 13.5 3.24359
    endloop
  endfacet
  facet normal -0.445738 1.98766e-16 0.895163
    outer loop
      vertex 18.2111 9.25 3.24359
      vertex 19.6669 9.25 3.96849
      vertex 18.2111 13.5 3.24359
    endloop
  endfacet
  facet normal -0.739009 1.4959e-16 0.673696
    outer loop
      vertex 20.7625 13.5 5.17035
      vertex 19.6669 13.5 3.96849
      vertex 20.7625 9.25 5.17035
    endloop
  endfacet
  facet normal -0.739009 1.4959e-16 0.673696
    outer loop
      vertex 20.7625 9.25 5.17035
      vertex 19.6669 13.5 3.96849
      vertex 19.6669 9.25 3.96849
    endloop
  endfacet
  facet normal -0.932472 8.02118e-17 0.361242
    outer loop
      vertex 21.35 13.5 6.68684
      vertex 20.7625 13.5 5.17035
      vertex 21.35 9.25 6.68684
    endloop
  endfacet
  facet normal -0.932472 8.02118e-17 0.361242
    outer loop
      vertex 21.35 9.25 6.68684
      vertex 20.7625 13.5 5.17035
      vertex 20.7625 9.25 5.17035
    endloop
  endfacet
  facet normal -1 2.71917e-32 1.22461e-16
    outer loop
      vertex 21.35 13.5 8.31316
      vertex 21.35 13.5 6.68684
      vertex 21.35 9.25 8.31316
    endloop
  endfacet
  facet normal -1 2.71917e-32 1.22461e-16
    outer loop
      vertex 21.35 9.25 8.31316
      vertex 21.35 13.5 6.68684
      vertex 21.35 9.25 6.68684
    endloop
  endfacet
  facet normal -0.932472 -8.02118e-17 -0.361242
    outer loop
      vertex 21.35 13.5 8.31316
      vertex 21.35 9.25 8.31316
      vertex 20.7625 13.5 9.82965
    endloop
  endfacet
  facet normal -0.932472 -8.02118e-17 -0.361242
    outer loop
      vertex 20.7625 13.5 9.82965
      vertex 21.35 9.25 8.31316
      vertex 20.7625 9.25 9.82965
    endloop
  endfacet
  facet normal -0.739009 -1.4959e-16 -0.673696
    outer loop
      vertex 20.7625 13.5 9.82965
      vertex 20.7625 9.25 9.82965
      vertex 19.6669 13.5 11.0315
    endloop
  endfacet
  facet normal -0.739009 -1.4959e-16 -0.673696
    outer loop
      vertex 19.6669 13.5 11.0315
      vertex 20.7625 9.25 9.82965
      vertex 19.6669 9.25 11.0315
    endloop
  endfacet
  facet normal -0.445738 -1.98766e-16 -0.895163
    outer loop
      vertex 19.6669 13.5 11.0315
      vertex 19.6669 9.25 11.0315
      vertex 18.2111 13.5 11.7564
    endloop
  endfacet
  facet normal -0.445738 -1.98766e-16 -0.895163
    outer loop
      vertex 18.2111 13.5 11.7564
      vertex 19.6669 9.25 11.0315
      vertex 18.2111 9.25 11.7564
    endloop
  endfacet
  facet normal -0.0922682 -2.21097e-16 -0.995734
    outer loop
      vertex 18.2111 13.5 11.7564
      vertex 18.2111 9.25 11.7564
      vertex 16.5917 13.5 11.9065
    endloop
  endfacet
  facet normal -0.0922682 -2.21097e-16 -0.995734
    outer loop
      vertex 16.5917 13.5 11.9065
      vertex 18.2111 9.25 11.7564
      vertex 16.5917 9.25 11.9065
    endloop
  endfacet
  facet normal 0.273663 -2.13568e-16 -0.961826
    outer loop
      vertex 16.5917 13.5 11.9065
      vertex 16.5917 9.25 11.9065
      vertex 15.0275 13.5 11.4614
    endloop
  endfacet
  facet normal 0.273663 -2.13568e-16 -0.961826
    outer loop
      vertex 15.0275 13.5 11.4614
      vertex 16.5917 9.25 11.9065
      vertex 15.0275 9.25 11.4614
    endloop
  endfacet
  facet normal 0.602635 -1.77195e-16 -0.798017
    outer loop
      vertex 15.0275 13.5 11.4614
      vertex 15.0275 9.25 11.4614
      vertex 13.7296 13.5 10.4813
    endloop
  endfacet
  facet normal 0.602635 -1.77195e-16 -0.798017
    outer loop
      vertex 13.7296 13.5 10.4813
      vertex 15.0275 9.25 11.4614
      vertex 13.7296 9.25 10.4813
    endloop
  endfacet
  facet normal 0.850217 -1.16891e-16 -0.526432
    outer loop
      vertex 12.8735 13.5 9.09862
      vertex 13.7296 13.5 10.4813
      vertex 13.7296 9.25 10.4813
    endloop
  endfacet
  facet normal 0.850217 -1.16891e-16 -0.526432
    outer loop
      vertex 12.8735 9.25 9.09862
      vertex 12.8735 13.5 9.09862
      vertex 13.7296 9.25 10.4813
    endloop
  endfacet
endsolid OpenSCAD_Model
