solid OpenSCAD_Model
  facet normal -1 0 0
    outer loop
      vertex -18.25 -1.55431e-15 6.66134e-16
      vertex -18.25 -2.22045e-16 6
      vertex -18.25 3 0
    endloop
  endfacet
  facet normal -1 0 0
    outer loop
      vertex -18.25 3 0
      vertex -18.25 -2.22045e-16 6
      vertex -18.25 3 6
    endloop
  endfacet
  facet normal 0 -1 2.22045e-16
    outer loop
      vertex -13.5678 -6.4252e-16 4.10635
      vertex -18.25 -1.55431e-15 6.66134e-16
      vertex 18.25 -1.55431e-15 6.66134e-16
    endloop
  endfacet
  facet normal 0 -1 2.22045e-16
    outer loop
      vertex -15.9424 -2.22045e-16 6
      vertex -15.211 1.15151e-16 7.51859
      vertex -18.1962 -2.22045e-16 6
    endloop
  endfacet
  facet normal 0 -1 2.22045e-16
    outer loop
      vertex 18.25 -2.22045e-16 6
      vertex 18.1962 -2.22045e-16 6
      vertex 18.25 -1.55431e-15 6.66134e-16
    endloop
  endfacet
  facet normal 0 -1 2.22045e-16
    outer loop
      vertex -12.25 -3.49152e-17 6.84276
      vertex 12.789 1.15151e-16 7.51859
      vertex 18.1962 4.44089e-16 9
    endloop
  endfacet
  facet normal 0 -1 2.22045e-16
    outer loop
      vertex 18.1962 4.44089e-16 9
      vertex 13 1.11022e-15 12
      vertex 10 9.4369e-16 11.25
    endloop
  endfacet
  facet normal 0 -1 2.22045e-16
    outer loop
      vertex -18.1962 4.44089e-16 9
      vertex -15.211 1.15151e-16 7.51859
      vertex -13 1.11022e-15 12
    endloop
  endfacet
  facet normal 0 -1 2.22045e-16
    outer loop
      vertex -12.25 -3.49152e-17 6.84276
      vertex -12.25 -4.09174e-16 5.15724
      vertex 12.0576 -2.22045e-16 6
    endloop
  endfacet
  facet normal 0 -1 2.22045e-16
    outer loop
      vertex -18.25 -2.22045e-16 6
      vertex -18.25 -1.55431e-15 6.66134e-16
      vertex -15.211 -5.5924e-16 4.48141
    endloop
  endfacet
  facet normal 0 -1 2.22045e-16
    outer loop
      vertex -12.25 -4.09174e-16 5.15724
      vertex -13.5678 -6.4252e-16 4.10635
      vertex 18.25 -1.55431e-15 6.66134e-16
    endloop
  endfacet
  facet normal 0 -1 2.22045e-16
    outer loop
      vertex -13.5678 1.98431e-16 7.89365
      vertex -12.25 -3.49152e-17 6.84276
      vertex 10 9.4369e-16 11.25
    endloop
  endfacet
  facet normal 0 -1 2.22045e-16
    outer loop
      vertex -15.211 -5.5924e-16 4.48141
      vertex -15.9424 -2.22045e-16 6
      vertex -18.1962 -2.22045e-16 6
    endloop
  endfacet
  facet normal 0 -1 2.22045e-16
    outer loop
      vertex -13.5678 1.98431e-16 7.89365
      vertex -13 1.11022e-15 12
      vertex -15.211 1.15151e-16 7.51859
    endloop
  endfacet
  facet normal 0 -1 2.22045e-16
    outer loop
      vertex -12.25 -3.49152e-17 6.84276
      vertex 12.0576 -2.22045e-16 6
      vertex 12.789 1.15151e-16 7.51859
    endloop
  endfacet
  facet normal 0 -1 2.22045e-16
    outer loop
      vertex 9.25 1.11022e-15 12
      vertex -13 1.11022e-15 12
      vertex -13.5678 1.98431e-16 7.89365
    endloop
  endfacet
  facet normal 0 -1 2.22045e-16
    outer loop
      vertex 12.789 -5.5924e-16 4.48141
      vertex 12.0576 -2.22045e-16 6
      vertex -12.25 -4.09174e-16 5.15724
    endloop
  endfacet
  facet normal 0 -1 2.22045e-16
    outer loop
      vertex 18.1962 4.44089e-16 9
      vertex 10 9.4369e-16 11.25
      vertex -12.25 -3.49152e-17 6.84276
    endloop
  endfacet
  facet normal 0 -1 2.22045e-16
    outer loop
      vertex 12.789 -5.5924e-16 4.48141
      vertex -12.25 -4.09174e-16 5.15724
      vertex 18.25 -1.55431e-15 6.66134e-16
    endloop
  endfacet
  facet normal 0 -1 2.22045e-16
    outer loop
      vertex -15.211 -5.5924e-16 4.48141
      vertex -18.25 -1.55431e-15 6.66134e-16
      vertex -13.5678 -6.4252e-16 4.10635
    endloop
  endfacet
  facet normal 0 -1 2.22045e-16
    outer loop
      vertex 14.4322 -6.4252e-16 4.10635
      vertex 12.789 -5.5924e-16 4.48141
      vertex 18.25 -1.55431e-15 6.66134e-16
    endloop
  endfacet
  facet normal 0 -1 2.22045e-16
    outer loop
      vertex 14.4322 1.98431e-16 7.89365
      vertex 15.75 -3.49152e-17 6.84276
      vertex 18.1962 4.44089e-16 9
    endloop
  endfacet
  facet normal 0 -1 2.22045e-16
    outer loop
      vertex 15.75 -3.49152e-17 6.84276
      vertex 15.75 -4.09174e-16 5.15724
      vertex 18.1962 -2.22045e-16 6
    endloop
  endfacet
  facet normal 0 -1 2.22045e-16
    outer loop
      vertex 18.1962 4.44089e-16 9
      vertex 12.789 1.15151e-16 7.51859
      vertex 14.4322 1.98431e-16 7.89365
    endloop
  endfacet
  facet normal 0 -1 2.22045e-16
    outer loop
      vertex 18.1962 4.44089e-16 9
      vertex 15.75 -3.49152e-17 6.84276
      vertex 18.1962 -2.22045e-16 6
    endloop
  endfacet
  facet normal 0 -1 2.22045e-16
    outer loop
      vertex 18.1962 -2.22045e-16 6
      vertex 15.75 -4.09174e-16 5.15724
      vertex 18.25 -1.55431e-15 6.66134e-16
    endloop
  endfacet
  facet normal 0 -1 2.22045e-16
    outer loop
      vertex 15.75 -4.09174e-16 5.15724
      vertex 14.4322 -6.4252e-16 4.10635
      vertex 18.25 -1.55431e-15 6.66134e-16
    endloop
  endfacet
  facet normal 0 -1 2.22045e-16
    outer loop
      vertex -15.211 -5.5924e-16 4.48141
      vertex -18.1962 -2.22045e-16 6
      vertex -18.25 -2.22045e-16 6
    endloop
  endfacet
  facet normal 0 -1 2.22045e-16
    outer loop
      vertex 10 1.11022e-15 12
      vertex 10 9.4369e-16 11.25
      vertex 13 1.11022e-15 12
    endloop
  endfacet
  facet normal 0 -1 2.22045e-16
    outer loop
      vertex -13.5678 1.98431e-16 7.89365
      vertex 10 9.4369e-16 11.25
      vertex 9.25 1.11022e-15 12
    endloop
  endfacet
  facet normal 0 -1 2.22045e-16
    outer loop
      vertex -18.1962 4.44089e-16 9
      vertex -18.1962 -2.22045e-16 6
      vertex -15.211 1.15151e-16 7.51859
    endloop
  endfacet
  facet normal 0 -2.22045e-16 -1
    outer loop
      vertex -18.25 -1.55431e-15 6.66134e-16
      vertex -18.25 3 0
      vertex 18.25 -1.55431e-15 6.66134e-16
    endloop
  endfacet
  facet normal 0 -2.22045e-16 -1
    outer loop
      vertex 18.25 -1.55431e-15 6.66134e-16
      vertex -18.25 3 0
      vertex 18.25 3 0
    endloop
  endfacet
  facet normal 0 1 -2.22045e-16
    outer loop
      vertex -15.9424 3 6
      vertex -18.1962 3 6
      vertex -18.1962 3 9
    endloop
  endfacet
  facet normal 0 1 -2.22045e-16
    outer loop
      vertex -13.5678 3 7.89365
      vertex -18.1962 3 9
      vertex -13 3 12
    endloop
  endfacet
  facet normal 0 1 -2.22045e-16
    outer loop
      vertex -18.25 3 0
      vertex -18.25 3 6
      vertex -10 3 9.99201e-16
    endloop
  endfacet
  facet normal 0 1 -2.22045e-16
    outer loop
      vertex -18.25 3 0
      vertex -10 3 9.99201e-16
      vertex 18.25 3 0
    endloop
  endfacet
  facet normal 0 1 -2.22045e-16
    outer loop
      vertex 10 3 12
      vertex 12.0576 3 6
      vertex 10 3 9.99201e-16
    endloop
  endfacet
  facet normal 0 1 -2.22045e-16
    outer loop
      vertex -10 3 9.99201e-16
      vertex 10 3 9.99201e-16
      vertex 18.25 3 0
    endloop
  endfacet
  facet normal 0 1 -2.22045e-16
    outer loop
      vertex 14.4322 3 7.89365
      vertex 13 3 12
      vertex 15.75 3 6.84276
    endloop
  endfacet
  facet normal 0 1 -2.22045e-16
    outer loop
      vertex 14.4322 3 7.89365
      vertex 10 3 12
      vertex 13 3 12
    endloop
  endfacet
  facet normal 0 1 -2.22045e-16
    outer loop
      vertex 18.25 3 6
      vertex 18.25 3 0
      vertex 18.1962 3 6
    endloop
  endfacet
  facet normal 0 1 -2.22045e-16
    outer loop
      vertex 18.1962 3 6
      vertex 13 3 12
      vertex 18.1962 3 9
    endloop
  endfacet
  facet normal 0 1 -2.22045e-16
    outer loop
      vertex 15.75 3 6.84276
      vertex 13 3 12
      vertex 18.1962 3 6
    endloop
  endfacet
  facet normal 0 1 -2.22045e-16
    outer loop
      vertex -15.211 3 4.48141
      vertex -18.1962 3 6
      vertex -15.9424 3 6
    endloop
  endfacet
  facet normal 0 1 -2.22045e-16
    outer loop
      vertex -15.211 3 4.48141
      vertex -18.25 3 6
      vertex -18.1962 3 6
    endloop
  endfacet
  facet normal 0 1 -2.22045e-16
    outer loop
      vertex -15.211 3 7.51859
      vertex -15.9424 3 6
      vertex -18.1962 3 9
    endloop
  endfacet
  facet normal 0 1 -2.22045e-16
    outer loop
      vertex -10 3 9.99201e-16
      vertex -18.25 3 6
      vertex -15.211 3 4.48141
    endloop
  endfacet
  facet normal 0 1 -2.22045e-16
    outer loop
      vertex 12.0576 3 6
      vertex 12.789 3 4.48141
      vertex 10 3 9.99201e-16
    endloop
  endfacet
  facet normal 0 1 -2.22045e-16
    outer loop
      vertex -10 3 9.99201e-16
      vertex -15.211 3 4.48141
      vertex -13.5678 3 4.10634
    endloop
  endfacet
  facet normal 0 1 -2.22045e-16
    outer loop
      vertex 12.789 3 4.48141
      vertex 18.25 3 0
      vertex 10 3 9.99201e-16
    endloop
  endfacet
  facet normal 0 1 -2.22045e-16
    outer loop
      vertex 12.0576 3 6
      vertex 10 3 12
      vertex 12.789 3 7.51859
    endloop
  endfacet
  facet normal 0 1 -2.22045e-16
    outer loop
      vertex 14.4322 3 4.10634
      vertex 18.25 3 0
      vertex 12.789 3 4.48141
    endloop
  endfacet
  facet normal 0 1 -2.22045e-16
    outer loop
      vertex 15.75 3 5.15724
      vertex 18.25 3 0
      vertex 14.4322 3 4.10634
    endloop
  endfacet
  facet normal 0 1 -2.22045e-16
    outer loop
      vertex 15.75 3 6.84276
      vertex 18.25 3 0
      vertex 15.75 3 5.15724
    endloop
  endfacet
  facet normal 0 1 -2.22045e-16
    outer loop
      vertex 18.25 3 0
      vertex 15.75 3 6.84276
      vertex 18.1962 3 6
    endloop
  endfacet
  facet normal 0 1 -2.22045e-16
    outer loop
      vertex 12.789 3 7.51859
      vertex 10 3 12
      vertex 14.4322 3 7.89365
    endloop
  endfacet
  facet normal 0 1 -2.22045e-16
    outer loop
      vertex -15.211 3 7.51859
      vertex -18.1962 3 9
      vertex -13.5678 3 7.89365
    endloop
  endfacet
  facet normal 0 1 -2.22045e-16
    outer loop
      vertex -10 3 9.99201e-16
      vertex -13.5678 3 4.10634
      vertex -12.25 3 5.15724
    endloop
  endfacet
  facet normal 0 1 -2.22045e-16
    outer loop
      vertex -10 3 9.99201e-16
      vertex -12.25 3 5.15724
      vertex -12.25 3 6.84276
    endloop
  endfacet
  facet normal 0 1 -2.22045e-16
    outer loop
      vertex -12.25 3 6.84276
      vertex -13.5678 3 7.89365
      vertex -13 3 12
    endloop
  endfacet
  facet normal 0 1 -2.22045e-16
    outer loop
      vertex -10 3 9.99201e-16
      vertex -12.25 3 6.84276
      vertex -13 3 12
    endloop
  endfacet
  facet normal 0 1 -2.22045e-16
    outer loop
      vertex -10 3 9.99201e-16
      vertex -13 3 12
      vertex -10 3 12
    endloop
  endfacet
  facet normal 0 2.22045e-16 1
    outer loop
      vertex -18.25 3 6
      vertex -18.25 -2.22045e-16 6
      vertex -18.1962 -2.22045e-16 6
    endloop
  endfacet
  facet normal 0 2.22045e-16 1
    outer loop
      vertex -18.1962 3 6
      vertex -18.25 3 6
      vertex -18.1962 -2.22045e-16 6
    endloop
  endfacet
  facet normal -1 7.82164e-24 3.52256e-08
    outer loop
      vertex -18.1962 -2.22045e-16 6
      vertex -18.1962 4.44089e-16 9
      vertex -18.1962 3 6
    endloop
  endfacet
  facet normal -1 7.82164e-24 3.52256e-08
    outer loop
      vertex -18.1962 3 6
      vertex -18.1962 4.44089e-16 9
      vertex -18.1962 3 9
    endloop
  endfacet
  facet normal -0.5 1.92296e-16 0.866025
    outer loop
      vertex -18.1962 3 9
      vertex -18.1962 4.44089e-16 9
      vertex -13 1.11022e-15 12
    endloop
  endfacet
  facet normal -0.5 1.92296e-16 0.866025
    outer loop
      vertex -13 3 12
      vertex -18.1962 3 9
      vertex -13 1.11022e-15 12
    endloop
  endfacet
  facet normal 0 2.22045e-16 1
    outer loop
      vertex -10 5.38458e-15 12
      vertex -13 1.11022e-15 12
      vertex 9.25 1.11022e-15 12
    endloop
  endfacet
  facet normal 0 2.22045e-16 1
    outer loop
      vertex -13 3 12
      vertex -13 1.11022e-15 12
      vertex -10 5.38458e-15 12
    endloop
  endfacet
  facet normal 0 2.22045e-16 1
    outer loop
      vertex -10 5.38458e-15 12
      vertex -10 3 12
      vertex -13 3 12
    endloop
  endfacet
  facet normal -2.22045e-16 -1 0
    outer loop
      vertex -5.18754 4.316e-15 12.5
      vertex -10 5.38458e-15 12
      vertex 9.25 1.11022e-15 12
    endloop
  endfacet
  facet normal -2.22045e-16 -1 0
    outer loop
      vertex 10 9.4369e-16 11.25
      vertex 10 9.4369e-16 22.5
      vertex 9.25 1.11022e-15 12
    endloop
  endfacet
  facet normal -2.22045e-16 -1 0
    outer loop
      vertex 10 9.4369e-16 22.5
      vertex 4 2.27596e-15 28.5
      vertex -10 5.38458e-15 22.5
    endloop
  endfacet
  facet normal -2.22045e-16 -1 0
    outer loop
      vertex 4 2.27596e-15 28.5
      vertex -4 4.05231e-15 28.5
      vertex -10 5.38458e-15 22.5
    endloop
  endfacet
  facet normal -2.22045e-16 -1 0
    outer loop
      vertex 5.18754 2.01227e-15 12.5
      vertex -5.18754 4.316e-15 12.5
      vertex 9.25 1.11022e-15 12
    endloop
  endfacet
  facet normal -2.22045e-16 -1 0
    outer loop
      vertex -10 5.38458e-15 22.5
      vertex -10 5.38458e-15 12
      vertex -5.18754 4.316e-15 12.5
    endloop
  endfacet
  facet normal -2.22045e-16 -1 0
    outer loop
      vertex 5.18754 2.01227e-15 16.4
      vertex 5.18754 2.01227e-15 12.5
      vertex 9.25 1.11022e-15 12
    endloop
  endfacet
  facet normal -2.22045e-16 -1 0
    outer loop
      vertex -10 5.38458e-15 22.5
      vertex -5.18754 4.316e-15 12.5
      vertex -5.18754 4.316e-15 16.4
    endloop
  endfacet
  facet normal -2.22045e-16 -1 0
    outer loop
      vertex 10 9.4369e-16 22.5
      vertex 5.18754 2.01227e-15 16.4
      vertex 9.25 1.11022e-15 12
    endloop
  endfacet
  facet normal -2.22045e-16 -1 0
    outer loop
      vertex 10 9.4369e-16 22.5
      vertex -10 5.38458e-15 22.5
      vertex 5.18754 2.01227e-15 16.4
    endloop
  endfacet
  facet normal -2.22045e-16 -1 0
    outer loop
      vertex -5.18754 4.316e-15 16.4
      vertex 5.18754 2.01227e-15 16.4
      vertex -10 5.38458e-15 22.5
    endloop
  endfacet
  facet normal 1 -2.22045e-16 0
    outer loop
      vertex 10 2.93012 16.4
      vertex 10 7.38849 16.4
      vertex 10 9.4369e-16 22.5
    endloop
  endfacet
  facet normal 1 -2.22045e-16 0
    outer loop
      vertex 10 9.4369e-16 22.5
      vertex 10 9.4369e-16 11.25
      vertex 10 1.11022e-15 12
    endloop
  endfacet
  facet normal 1 -2.22045e-16 0
    outer loop
      vertex 10 3 12
      vertex 10 9.4369e-16 22.5
      vertex 10 1.11022e-15 12
    endloop
  endfacet
  facet normal 1 -2.22045e-16 0
    outer loop
      vertex 10 3 9.99201e-16
      vertex 10 14 9.99201e-16
      vertex 10 3 12
    endloop
  endfacet
  facet normal 1 -2.22045e-16 0
    outer loop
      vertex 10 7.38849 16.4
      vertex 10 14 28.5
      vertex 10 9.4369e-16 22.5
    endloop
  endfacet
  facet normal 1 -2.22045e-16 0
    outer loop
      vertex 10 14 28.5
      vertex 10 6.05912 28.5
      vertex 10 9.4369e-16 22.5
    endloop
  endfacet
  facet normal 1 -2.22045e-16 0
    outer loop
      vertex 10 3 12
      vertex 10 2.93012 12.5
      vertex 10 9.4369e-16 22.5
    endloop
  endfacet
  facet normal 1 -2.22045e-16 0
    outer loop
      vertex 10 3 12
      vertex 10 14 9.99201e-16
      vertex 10 2.93012 12.5
    endloop
  endfacet
  facet normal 1 -2.22045e-16 0
    outer loop
      vertex 10 2.93012 12.5
      vertex 10 2.93012 16.4
      vertex 10 9.4369e-16 22.5
    endloop
  endfacet
  facet normal 1 -2.22045e-16 0
    outer loop
      vertex 10 14 9.99201e-16
      vertex 10 14 28.5
      vertex 10 7.38849 16.4
    endloop
  endfacet
  facet normal 1 -2.22045e-16 0
    outer loop
      vertex 10 14 9.99201e-16
      vertex 10 7.38849 16.4
      vertex 10 7.38849 12.5
    endloop
  endfacet
  facet normal 1 -2.22045e-16 0
    outer loop
      vertex 10 7.38849 12.5
      vertex 10 2.93012 12.5
      vertex 10 14 9.99201e-16
    endloop
  endfacet
  facet normal 0 2.22045e-16 1
    outer loop
      vertex 10 3 12
      vertex 10 1.11022e-15 12
      vertex 13 1.11022e-15 12
    endloop
  endfacet
  facet normal 0 2.22045e-16 1
    outer loop
      vertex 13 3 12
      vertex 10 3 12
      vertex 13 1.11022e-15 12
    endloop
  endfacet
  facet normal 0.5 1.92296e-16 0.866025
    outer loop
      vertex 13 3 12
      vertex 13 1.11022e-15 12
      vertex 18.1962 4.44089e-16 9
    endloop
  endfacet
  facet normal 0.5 1.92296e-16 0.866025
    outer loop
      vertex 18.1962 3 9
      vertex 13 3 12
      vertex 18.1962 4.44089e-16 9
    endloop
  endfacet
  facet normal 1 -7.82164e-24 -3.52256e-08
    outer loop
      vertex 18.1962 4.44089e-16 9
      vertex 18.1962 -2.22045e-16 6
      vertex 18.1962 3 6
    endloop
  endfacet
  facet normal 1 -7.82164e-24 -3.52256e-08
    outer loop
      vertex 18.1962 3 9
      vertex 18.1962 4.44089e-16 9
      vertex 18.1962 3 6
    endloop
  endfacet
  facet normal 0 2.22045e-16 1
    outer loop
      vertex 18.1962 3 6
      vertex 18.1962 -2.22045e-16 6
      vertex 18.25 -2.22045e-16 6
    endloop
  endfacet
  facet normal 0 2.22045e-16 1
    outer loop
      vertex 18.25 3 6
      vertex 18.1962 3 6
      vertex 18.25 -2.22045e-16 6
    endloop
  endfacet
  facet normal 1 0 0
    outer loop
      vertex 18.25 -2.22045e-16 6
      vertex 18.25 -1.55431e-15 6.66134e-16
      vertex 18.25 3 0
    endloop
  endfacet
  facet normal 1 0 0
    outer loop
      vertex 18.25 3 6
      vertex 18.25 -2.22045e-16 6
      vertex 18.25 3 0
    endloop
  endfacet
  facet normal 0.900969 9.63415e-17 0.433883
    outer loop
      vertex -15.211 -5.5924e-16 4.48141
      vertex -15.211 3 4.48141
      vertex -15.9424 3 6
    endloop
  endfacet
  facet normal 0.900969 9.63415e-17 0.433883
    outer loop
      vertex -15.9424 -2.22045e-16 6
      vertex -15.211 -5.5924e-16 4.48141
      vertex -15.9424 3 6
    endloop
  endfacet
  facet normal 0.222521 2.16477e-16 0.974928
    outer loop
      vertex -13.5678 -6.4252e-16 4.10635
      vertex -13.5678 3 4.10634
      vertex -15.211 3 4.48141
    endloop
  endfacet
  facet normal 0.222521 2.16477e-16 0.974928
    outer loop
      vertex -15.211 -5.5924e-16 4.48141
      vertex -13.5678 -6.4252e-16 4.10635
      vertex -15.211 3 4.48141
    endloop
  endfacet
  facet normal -0.62349 1.73601e-16 0.781832
    outer loop
      vertex -12.25 -4.09174e-16 5.15724
      vertex -12.25 3 5.15724
      vertex -13.5678 3 4.10634
    endloop
  endfacet
  facet normal -0.62349 1.73601e-16 0.781832
    outer loop
      vertex -13.5678 -6.4252e-16 4.10635
      vertex -12.25 -4.09174e-16 5.15724
      vertex -13.5678 3 4.10634
    endloop
  endfacet
  facet normal -1 2.71917e-32 1.22461e-16
    outer loop
      vertex -12.25 3 6.84276
      vertex -12.25 3 5.15724
      vertex -12.25 -3.49152e-17 6.84276
    endloop
  endfacet
  facet normal -1 2.71917e-32 1.22461e-16
    outer loop
      vertex -12.25 -3.49152e-17 6.84276
      vertex -12.25 3 5.15724
      vertex -12.25 -4.09174e-16 5.15724
    endloop
  endfacet
  facet normal -0.62349 -1.73601e-16 -0.781832
    outer loop
      vertex -12.25 3 6.84276
      vertex -12.25 -3.49152e-17 6.84276
      vertex -13.5678 3 7.89365
    endloop
  endfacet
  facet normal -0.62349 -1.73601e-16 -0.781832
    outer loop
      vertex -13.5678 3 7.89365
      vertex -12.25 -3.49152e-17 6.84276
      vertex -13.5678 1.98431e-16 7.89365
    endloop
  endfacet
  facet normal 0.222521 -2.16477e-16 -0.974928
    outer loop
      vertex -13.5678 3 7.89365
      vertex -13.5678 1.98431e-16 7.89365
      vertex -15.211 3 7.51859
    endloop
  endfacet
  facet normal 0.222521 -2.16477e-16 -0.974928
    outer loop
      vertex -15.211 3 7.51859
      vertex -13.5678 1.98431e-16 7.89365
      vertex -15.211 1.15151e-16 7.51859
    endloop
  endfacet
  facet normal 0.900969 -9.63415e-17 -0.433883
    outer loop
      vertex -15.9424 3 6
      vertex -15.211 3 7.51859
      vertex -15.211 1.15151e-16 7.51859
    endloop
  endfacet
  facet normal 0.900969 -9.63415e-17 -0.433883
    outer loop
      vertex -15.9424 -2.22045e-16 6
      vertex -15.9424 3 6
      vertex -15.211 1.15151e-16 7.51859
    endloop
  endfacet
  facet normal 0.900969 9.63415e-17 0.433883
    outer loop
      vertex 12.789 -5.5924e-16 4.48141
      vertex 12.789 3 4.48141
      vertex 12.0576 3 6
    endloop
  endfacet
  facet normal 0.900969 9.63415e-17 0.433883
    outer loop
      vertex 12.0576 -2.22045e-16 6
      vertex 12.789 -5.5924e-16 4.48141
      vertex 12.0576 3 6
    endloop
  endfacet
  facet normal 0.222521 2.16477e-16 0.974928
    outer loop
      vertex 14.4322 -6.4252e-16 4.10635
      vertex 14.4322 3 4.10634
      vertex 12.789 3 4.48141
    endloop
  endfacet
  facet normal 0.222521 2.16477e-16 0.974928
    outer loop
      vertex 12.789 -5.5924e-16 4.48141
      vertex 14.4322 -6.4252e-16 4.10635
      vertex 12.789 3 4.48141
    endloop
  endfacet
  facet normal -0.62349 1.73601e-16 0.781832
    outer loop
      vertex 15.75 -4.09174e-16 5.15724
      vertex 15.75 3 5.15724
      vertex 14.4322 3 4.10634
    endloop
  endfacet
  facet normal -0.62349 1.73601e-16 0.781832
    outer loop
      vertex 14.4322 -6.4252e-16 4.10635
      vertex 15.75 -4.09174e-16 5.15724
      vertex 14.4322 3 4.10634
    endloop
  endfacet
  facet normal -1 2.71917e-32 1.22461e-16
    outer loop
      vertex 15.75 3 6.84276
      vertex 15.75 3 5.15724
      vertex 15.75 -3.49152e-17 6.84276
    endloop
  endfacet
  facet normal -1 2.71917e-32 1.22461e-16
    outer loop
      vertex 15.75 -3.49152e-17 6.84276
      vertex 15.75 3 5.15724
      vertex 15.75 -4.09174e-16 5.15724
    endloop
  endfacet
  facet normal -0.62349 -1.73601e-16 -0.781832
    outer loop
      vertex 15.75 3 6.84276
      vertex 15.75 -3.49152e-17 6.84276
      vertex 14.4322 3 7.89365
    endloop
  endfacet
  facet normal -0.62349 -1.73601e-16 -0.781832
    outer loop
      vertex 14.4322 3 7.89365
      vertex 15.75 -3.49152e-17 6.84276
      vertex 14.4322 1.98431e-16 7.89365
    endloop
  endfacet
  facet normal 0.222521 -2.16477e-16 -0.974928
    outer loop
      vertex 14.4322 3 7.89365
      vertex 14.4322 1.98431e-16 7.89365
      vertex 12.789 3 7.51859
    endloop
  endfacet
  facet normal 0.222521 -2.16477e-16 -0.974928
    outer loop
      vertex 12.789 3 7.51859
      vertex 14.4322 1.98431e-16 7.89365
      vertex 12.789 1.15151e-16 7.51859
    endloop
  endfacet
  facet normal 0.900969 -9.63415e-17 -0.433883
    outer loop
      vertex 12.0576 3 6
      vertex 12.789 3 7.51859
      vertex 12.789 1.15151e-16 7.51859
    endloop
  endfacet
  facet normal 0.900969 -9.63415e-17 -0.433883
    outer loop
      vertex 12.0576 -2.22045e-16 6
      vertex 12.0576 3 6
      vertex 12.789 1.15151e-16 7.51859
    endloop
  endfacet
  facet normal 0 0 -1
    outer loop
      vertex 5.651 8.5 9.99201e-16
      vertex 10 3 9.99201e-16
      vertex -5.651 8.5 9.99201e-16
    endloop
  endfacet
  facet normal 0 0 -1
    outer loop
      vertex -7.88441 13.504 9.99201e-16
      vertex -10 14 9.99201e-16
      vertex -9.94522 15.0453 9.99201e-16
    endloop
  endfacet
  facet normal 0 0 -1
    outer loop
      vertex -7.88441 14.496 9.99201e-16
      vertex -9.94522 15.0453 9.99201e-16
      vertex -9.78148 16.0791 9.99201e-16
    endloop
  endfacet
  facet normal 0 0 -1
    outer loop
      vertex -7.76007 15.4803 9.99201e-16
      vertex -9.78148 16.0791 9.99201e-16
      vertex -9.51056 17.0902 9.99201e-16
    endloop
  endfacet
  facet normal 0 0 -1
    outer loop
      vertex -7.51335 16.4412 9.99201e-16
      vertex -9.51056 17.0902 9.99201e-16
      vertex -9.13545 18.0674 9.99201e-16
    endloop
  endfacet
  facet normal 0 0 -1
    outer loop
      vertex -7.14813 17.3637 9.99201e-16
      vertex -9.13545 18.0674 9.99201e-16
      vertex -8.66025 19 9.99201e-16
    endloop
  endfacet
  facet normal 0 0 -1
    outer loop
      vertex -7 18.8579 9.99201e-16
      vertex -8.66025 19 9.99201e-16
      vertex -8.09017 19.8779 9.99201e-16
    endloop
  endfacet
  facet normal 0 0 -1
    outer loop
      vertex -7 17.6331 9.99201e-16
      vertex -8.66025 19 9.99201e-16
      vertex -7 18.8579 9.99201e-16
    endloop
  endfacet
  facet normal 0 0 -1
    outer loop
      vertex -7.14813 17.3637 9.99201e-16
      vertex -8.66025 19 9.99201e-16
      vertex -7 17.6331 9.99201e-16
    endloop
  endfacet
  facet normal 0 0 -1
    outer loop
      vertex -7.51335 16.4412 9.99201e-16
      vertex -9.13545 18.0674 9.99201e-16
      vertex -7.14813 17.3637 9.99201e-16
    endloop
  endfacet
  facet normal 0 0 -1
    outer loop
      vertex -7.76007 15.4803 9.99201e-16
      vertex -9.51056 17.0902 9.99201e-16
      vertex -7.51335 16.4412 9.99201e-16
    endloop
  endfacet
  facet normal 0 0 -1
    outer loop
      vertex -7.88441 14.496 9.99201e-16
      vertex -9.78148 16.0791 9.99201e-16
      vertex -7.76007 15.4803 9.99201e-16
    endloop
  endfacet
  facet normal 0 0 -1
    outer loop
      vertex -7.88441 13.504 9.99201e-16
      vertex -9.94522 15.0453 9.99201e-16
      vertex -7.88441 14.496 9.99201e-16
    endloop
  endfacet
  facet normal 0 0 -1
    outer loop
      vertex -7.76007 12.5197 9.99201e-16
      vertex -10 14 9.99201e-16
      vertex -7.88441 13.504 9.99201e-16
    endloop
  endfacet
  facet normal 0 0 -1
    outer loop
      vertex -10 3 9.99201e-16
      vertex -10 14 9.99201e-16
      vertex -7.76007 12.5197 9.99201e-16
    endloop
  endfacet
  facet normal 0 0 -1
    outer loop
      vertex -10 3 9.99201e-16
      vertex -7.76007 12.5197 9.99201e-16
      vertex -7.51335 11.5588 9.99201e-16
    endloop
  endfacet
  facet normal 0 0 -1
    outer loop
      vertex -10 3 9.99201e-16
      vertex -7.51335 11.5588 9.99201e-16
      vertex -7.14813 10.6363 9.99201e-16
    endloop
  endfacet
  facet normal 0 0 -1
    outer loop
      vertex -10 3 9.99201e-16
      vertex -7.14813 10.6363 9.99201e-16
      vertex -6.67019 9.76697 9.99201e-16
    endloop
  endfacet
  facet normal 0 0 -1
    outer loop
      vertex -10 3 9.99201e-16
      vertex -6.67019 9.76697 9.99201e-16
      vertex -6.08706 8.96435 9.99201e-16
    endloop
  endfacet
  facet normal 0 0 -1
    outer loop
      vertex -10 3 9.99201e-16
      vertex -6.08706 8.96435 9.99201e-16
      vertex -5.651 8.5 9.99201e-16
    endloop
  endfacet
  facet normal 0 0 -1
    outer loop
      vertex -10 3 9.99201e-16
      vertex -5.651 8.5 9.99201e-16
      vertex 10 3 9.99201e-16
    endloop
  endfacet
  facet normal 0 0 -1
    outer loop
      vertex 10 3 9.99201e-16
      vertex 5.651 8.5 9.99201e-16
      vertex 6.08705 8.96435 9.99201e-16
    endloop
  endfacet
  facet normal 0 0 -1
    outer loop
      vertex 6.08705 8.96435 9.99201e-16
      vertex 6.67019 9.76697 9.99201e-16
      vertex 10 3 9.99201e-16
    endloop
  endfacet
  facet normal 0 0 -1
    outer loop
      vertex 6.67019 9.76697 9.99201e-16
      vertex 7.14813 10.6363 9.99201e-16
      vertex 10 3 9.99201e-16
    endloop
  endfacet
  facet normal 0 0 -1
    outer loop
      vertex 7.14813 10.6363 9.99201e-16
      vertex 7.51335 11.5588 9.99201e-16
      vertex 10 3 9.99201e-16
    endloop
  endfacet
  facet normal 0 0 -1
    outer loop
      vertex 7.51335 11.5588 9.99201e-16
      vertex 7.76007 12.5197 9.99201e-16
      vertex 10 3 9.99201e-16
    endloop
  endfacet
  facet normal 0 0 -1
    outer loop
      vertex 7.76007 12.5197 9.99201e-16
      vertex 7.88441 13.504 9.99201e-16
      vertex 10 3 9.99201e-16
    endloop
  endfacet
  facet normal 0 0 -1
    outer loop
      vertex 7.88441 13.504 9.99201e-16
      vertex 7.88441 14.496 9.99201e-16
      vertex 10 3 9.99201e-16
    endloop
  endfacet
  facet normal 0 0 -1
    outer loop
      vertex 7.88441 14.496 9.99201e-16
      vertex 7.76007 15.4803 9.99201e-16
      vertex 10 3 9.99201e-16
    endloop
  endfacet
  facet normal 0 0 -1
    outer loop
      vertex 7.51335 16.4412 9.99201e-16
      vertex 7 18.8579 9.99201e-16
      vertex 7.76007 15.4803 9.99201e-16
    endloop
  endfacet
  facet normal 0 0 -1
    outer loop
      vertex 7.14813 17.3637 9.99201e-16
      vertex 7 17.6331 9.99201e-16
      vertex 7 18.8579 9.99201e-16
    endloop
  endfacet
  facet normal 0 0 -1
    outer loop
      vertex 7.14813 17.3637 9.99201e-16
      vertex 7 18.8579 9.99201e-16
      vertex 7.51335 16.4412 9.99201e-16
    endloop
  endfacet
  facet normal 0 0 -1
    outer loop
      vertex 7.76007 15.4803 9.99201e-16
      vertex 7 18.8579 9.99201e-16
      vertex 8.05877 19.9166 9.99201e-16
    endloop
  endfacet
  facet normal 0 0 -1
    outer loop
      vertex 7.76007 15.4803 9.99201e-16
      vertex 8.05877 19.9166 9.99201e-16
      vertex 10 3 9.99201e-16
    endloop
  endfacet
  facet normal 0 0 -1
    outer loop
      vertex 10 3 9.99201e-16
      vertex 8.05877 19.9166 9.99201e-16
      vertex 8.09017 19.8779 9.99201e-16
    endloop
  endfacet
  facet normal 0 0 -1
    outer loop
      vertex 10 3 9.99201e-16
      vertex 8.09017 19.8779 9.99201e-16
      vertex 8.66025 19 9.99201e-16
    endloop
  endfacet
  facet normal 0 0 -1
    outer loop
      vertex 10 3 9.99201e-16
      vertex 8.66025 19 9.99201e-16
      vertex 9.13546 18.0674 9.99201e-16
    endloop
  endfacet
  facet normal 0 0 -1
    outer loop
      vertex 10 3 9.99201e-16
      vertex 9.13546 18.0674 9.99201e-16
      vertex 9.51056 17.0902 9.99201e-16
    endloop
  endfacet
  facet normal 0 0 -1
    outer loop
      vertex 10 3 9.99201e-16
      vertex 9.51056 17.0902 9.99201e-16
      vertex 9.78148 16.0791 9.99201e-16
    endloop
  endfacet
  facet normal 0 0 -1
    outer loop
      vertex 10 3 9.99201e-16
      vertex 9.78148 16.0791 9.99201e-16
      vertex 9.94522 15.0453 9.99201e-16
    endloop
  endfacet
  facet normal 0 0 -1
    outer loop
      vertex 10 3 9.99201e-16
      vertex 9.94522 15.0453 9.99201e-16
      vertex 10 14 9.99201e-16
    endloop
  endfacet
  facet normal 0 0 -1
    outer loop
      vertex -7 18.8579 9.99201e-16
      vertex -8.09017 19.8779 9.99201e-16
      vertex -8.05877 19.9166 9.99201e-16
    endloop
  endfacet
  facet normal -1 2.22045e-16 0
    outer loop
      vertex -10 5.38458e-15 12
      vertex -10 5.38458e-15 22.5
      vertex -10 3 12
    endloop
  endfacet
  facet normal -1 2.22045e-16 0
    outer loop
      vertex -10 2.93012 16.4
      vertex -10 5.38458e-15 22.5
      vertex -10 6.05912 28.5
    endloop
  endfacet
  facet normal -1 2.22045e-16 0
    outer loop
      vertex -10 7.38849 12.5
      vertex -10 14 28.5
      vertex -10 14 9.99201e-16
    endloop
  endfacet
  facet normal -1 2.22045e-16 0
    outer loop
      vertex -10 2.93012 16.4
      vertex -10 6.05912 28.5
      vertex -10 14 28.5
    endloop
  endfacet
  facet normal -1 2.22045e-16 0
    outer loop
      vertex -10 2.93012 16.4
      vertex -10 14 28.5
      vertex -10 7.38849 16.4
    endloop
  endfacet
  facet normal -1 2.22045e-16 0
    outer loop
      vertex -10 2.93012 12.5
      vertex -10 5.38458e-15 22.5
      vertex -10 2.93012 16.4
    endloop
  endfacet
  facet normal -1 2.22045e-16 0
    outer loop
      vertex -10 7.38849 12.5
      vertex -10 3 12
      vertex -10 2.93012 12.5
    endloop
  endfacet
  facet normal -1 2.22045e-16 0
    outer loop
      vertex -10 3 12
      vertex -10 5.38458e-15 22.5
      vertex -10 2.93012 12.5
    endloop
  endfacet
  facet normal -1 2.22045e-16 0
    outer loop
      vertex -10 7.38849 16.4
      vertex -10 14 28.5
      vertex -10 7.38849 12.5
    endloop
  endfacet
  facet normal -1 2.22045e-16 0
    outer loop
      vertex -10 3 12
      vertex -10 7.38849 12.5
      vertex -10 14 9.99201e-16
    endloop
  endfacet
  facet normal -1 2.22045e-16 0
    outer loop
      vertex -10 3 12
      vertex -10 14 9.99201e-16
      vertex -10 3 9.99201e-16
    endloop
  endfacet
  facet normal -0.579228 -0.573576 0.579228
    outer loop
      vertex -4 4.05231e-15 28.5
      vertex -10 6.05912 28.5
      vertex -10 5.38458e-15 22.5
    endloop
  endfacet
  facet normal 0 0 1
    outer loop
      vertex -10 14 28.5
      vertex -10 6.05912 28.5
      vertex -4 4.05231e-15 28.5
    endloop
  endfacet
  facet normal 0 0 1
    outer loop
      vertex -6.08706 8.96435 28.5
      vertex -10 14 28.5
      vertex -4 4.05231e-15 28.5
    endloop
  endfacet
  facet normal 0 0 1
    outer loop
      vertex 7.88441 14.496 28.5
      vertex 7.88441 13.504 28.5
      vertex 10 14 28.5
    endloop
  endfacet
  facet normal 0 0 1
    outer loop
      vertex 7.76007 15.4803 28.5
      vertex 7.88441 14.496 28.5
      vertex 9.94522 15.0453 28.5
    endloop
  endfacet
  facet normal 0 0 1
    outer loop
      vertex 7.51335 16.4412 28.5
      vertex 7.76007 15.4803 28.5
      vertex 9.78148 16.0791 28.5
    endloop
  endfacet
  facet normal 0 0 1
    outer loop
      vertex 7.14813 17.3637 28.5
      vertex 7.51335 16.4412 28.5
      vertex 9.51056 17.0902 28.5
    endloop
  endfacet
  facet normal 0 0 1
    outer loop
      vertex 8.09017 19.8779 28.5
      vertex 7 18.8579 28.5
      vertex 8.66025 19 28.5
    endloop
  endfacet
  facet normal 0 0 1
    outer loop
      vertex 8.66025 19 28.5
      vertex 7 17.6331 28.5
      vertex 9.13546 18.0674 28.5
    endloop
  endfacet
  facet normal 0 0 1
    outer loop
      vertex 9.13546 18.0674 28.5
      vertex 7.14813 17.3637 28.5
      vertex 9.51056 17.0902 28.5
    endloop
  endfacet
  facet normal 0 0 1
    outer loop
      vertex -7.88441 14.496 28.5
      vertex -7.76007 15.4803 28.5
      vertex -10 14 28.5
    endloop
  endfacet
  facet normal 0 0 1
    outer loop
      vertex 9.51056 17.0902 28.5
      vertex 7.51335 16.4412 28.5
      vertex 9.78148 16.0791 28.5
    endloop
  endfacet
  facet normal 0 0 1
    outer loop
      vertex 9.78148 16.0791 28.5
      vertex 7.76007 15.4803 28.5
      vertex 9.94522 15.0453 28.5
    endloop
  endfacet
  facet normal 0 0 1
    outer loop
      vertex 9.94522 15.0453 28.5
      vertex 7.88441 14.496 28.5
      vertex 10 14 28.5
    endloop
  endfacet
  facet normal 0 0 1
    outer loop
      vertex 10 14 28.5
      vertex 7.88441 13.504 28.5
      vertex 10 6.05912 28.5
    endloop
  endfacet
  facet normal 0 0 1
    outer loop
      vertex -7.14813 10.6363 28.5
      vertex -7.51335 11.5588 28.5
      vertex -10 14 28.5
    endloop
  endfacet
  facet normal 0 0 1
    outer loop
      vertex 7.88441 13.504 28.5
      vertex 7.76007 12.5197 28.5
      vertex 10 6.05912 28.5
    endloop
  endfacet
  facet normal 0 0 1
    outer loop
      vertex 7.76007 12.5197 28.5
      vertex 7.51335 11.5588 28.5
      vertex 10 6.05912 28.5
    endloop
  endfacet
  facet normal 0 0 1
    outer loop
      vertex 7.51335 11.5588 28.5
      vertex 7.14813 10.6363 28.5
      vertex 10 6.05912 28.5
    endloop
  endfacet
  facet normal 0 0 1
    outer loop
      vertex 7.14813 10.6363 28.5
      vertex 6.67019 9.76697 28.5
      vertex 10 6.05912 28.5
    endloop
  endfacet
  facet normal 0 0 1
    outer loop
      vertex 6.67019 9.76697 28.5
      vertex 6.08705 8.96435 28.5
      vertex 10 6.05912 28.5
    endloop
  endfacet
  facet normal 0 0 1
    outer loop
      vertex 6.08705 8.96435 28.5
      vertex 5.651 8.5 28.5
      vertex 10 6.05912 28.5
    endloop
  endfacet
  facet normal 0 0 1
    outer loop
      vertex 4 2.27596e-15 28.5
      vertex -5.651 8.5 28.5
      vertex -4 4.05231e-15 28.5
    endloop
  endfacet
  facet normal 0 0 1
    outer loop
      vertex -5.651 8.5 28.5
      vertex -6.08706 8.96435 28.5
      vertex -4 4.05231e-15 28.5
    endloop
  endfacet
  facet normal 0 0 1
    outer loop
      vertex -6.67019 9.76697 28.5
      vertex -10 14 28.5
      vertex -6.08706 8.96435 28.5
    endloop
  endfacet
  facet normal 0 0 1
    outer loop
      vertex -6.67019 9.76697 28.5
      vertex -7.14813 10.6363 28.5
      vertex -10 14 28.5
    endloop
  endfacet
  facet normal 0 0 1
    outer loop
      vertex -7.76007 12.5197 28.5
      vertex -7.88441 13.504 28.5
      vertex -10 14 28.5
    endloop
  endfacet
  facet normal 0 0 1
    outer loop
      vertex -7.76007 12.5197 28.5
      vertex -10 14 28.5
      vertex -7.51335 11.5588 28.5
    endloop
  endfacet
  facet normal 0 0 1
    outer loop
      vertex 7 17.6331 28.5
      vertex 7.14813 17.3637 28.5
      vertex 9.13546 18.0674 28.5
    endloop
  endfacet
  facet normal 0 0 1
    outer loop
      vertex -7.51335 16.4412 28.5
      vertex -10 14 28.5
      vertex -7.76007 15.4803 28.5
    endloop
  endfacet
  facet normal 0 0 1
    outer loop
      vertex -7.14813 17.3637 28.5
      vertex -10 14 28.5
      vertex -7.51335 16.4412 28.5
    endloop
  endfacet
  facet normal 0 0 1
    outer loop
      vertex -7 17.6331 28.5
      vertex -10 14 28.5
      vertex -7.14813 17.3637 28.5
    endloop
  endfacet
  facet normal 0 0 1
    outer loop
      vertex -7 18.8579 28.5
      vertex -10 14 28.5
      vertex -7 17.6331 28.5
    endloop
  endfacet
  facet normal 0 0 1
    outer loop
      vertex -8.05877 19.9166 28.5
      vertex -10 14 28.5
      vertex -7 18.8579 28.5
    endloop
  endfacet
  facet normal 0 0 1
    outer loop
      vertex -8.09017 19.8779 28.5
      vertex -10 14 28.5
      vertex -8.05877 19.9166 28.5
    endloop
  endfacet
  facet normal 0 0 1
    outer loop
      vertex -8.66025 19 28.5
      vertex -10 14 28.5
      vertex -8.09017 19.8779 28.5
    endloop
  endfacet
  facet normal 0 0 1
    outer loop
      vertex -9.13545 18.0674 28.5
      vertex -10 14 28.5
      vertex -8.66025 19 28.5
    endloop
  endfacet
  facet normal 0 0 1
    outer loop
      vertex -9.51056 17.0902 28.5
      vertex -10 14 28.5
      vertex -9.13545 18.0674 28.5
    endloop
  endfacet
  facet normal 0 0 1
    outer loop
      vertex -9.78148 16.0791 28.5
      vertex -10 14 28.5
      vertex -9.51056 17.0902 28.5
    endloop
  endfacet
  facet normal 0 0 1
    outer loop
      vertex -9.94522 15.0453 28.5
      vertex -10 14 28.5
      vertex -9.78148 16.0791 28.5
    endloop
  endfacet
  facet normal 0 0 1
    outer loop
      vertex 8.05877 19.9166 28.5
      vertex 7 18.8579 28.5
      vertex 8.09017 19.8779 28.5
    endloop
  endfacet
  facet normal 0 0 1
    outer loop
      vertex 7 18.8579 28.5
      vertex 7 17.6331 28.5
      vertex 8.66025 19 28.5
    endloop
  endfacet
  facet normal 0 0 1
    outer loop
      vertex 5.651 8.5 28.5
      vertex 4 2.27596e-15 28.5
      vertex 10 6.05912 28.5
    endloop
  endfacet
  facet normal 0 0 1
    outer loop
      vertex 5.651 8.5 28.5
      vertex -5.651 8.5 28.5
      vertex 4 2.27596e-15 28.5
    endloop
  endfacet
  facet normal 0 0 1
    outer loop
      vertex -7.88441 13.504 28.5
      vertex -7.88441 14.496 28.5
      vertex -10 14 28.5
    endloop
  endfacet
  facet normal 0.579228 -0.573576 0.579228
    outer loop
      vertex 10 9.4369e-16 22.5
      vertex 10 6.05912 28.5
      vertex 4 2.27596e-15 28.5
    endloop
  endfacet
  facet normal 0 0 1
    outer loop
      vertex -8.81678 1.86475 12.5
      vertex -6.10105 0.296818 12.5
      vertex -5.18754 4.316e-15 12.5
    endloop
  endfacet
  facet normal 0 0 1
    outer loop
      vertex 6.10105 0.296818 12.5
      vertex -8.81678 1.86475 12.5
      vertex 5.18754 2.01227e-15 12.5
    endloop
  endfacet
  facet normal 0 0 1
    outer loop
      vertex 5.18754 2.01227e-15 12.5
      vertex -8.81678 1.86475 12.5
      vertex -5.18754 4.316e-15 12.5
    endloop
  endfacet
  facet normal 0 0 1
    outer loop
      vertex 8.81678 1.86475 12.5
      vertex -8.81678 1.86475 12.5
      vertex 6.10105 0.296818 12.5
    endloop
  endfacet
  facet normal 0 0 1
    outer loop
      vertex -2.66454e-15 2 12.5
      vertex -8.81678 1.86475 12.5
      vertex 8.81678 1.86475 12.5
    endloop
  endfacet
  facet normal 0 0 1
    outer loop
      vertex -2.66454e-15 2 12.5
      vertex -1.504 2.09462 12.5
      vertex -8.81678 1.86475 12.5
    endloop
  endfacet
  facet normal 0 0 1
    outer loop
      vertex 10 7.38849 12.5
      vertex 9.24616 6.35091 12.5
      vertex 10 2.93012 12.5
    endloop
  endfacet
  facet normal 0 0 1
    outer loop
      vertex 9.24616 6.35091 12.5
      vertex 8.21456 5.25238 12.5
      vertex 10 2.93012 12.5
    endloop
  endfacet
  facet normal 0 0 1
    outer loop
      vertex 8.21456 5.25238 12.5
      vertex 7.05342 4.2918 12.5
      vertex 10 2.93012 12.5
    endloop
  endfacet
  facet normal 0 0 1
    outer loop
      vertex 7.05342 4.2918 12.5
      vertex 5.78104 3.48432 12.5
      vertex 10 2.93012 12.5
    endloop
  endfacet
  facet normal 0 0 1
    outer loop
      vertex -4.4175 2.84268 12.5
      vertex -5.78104 3.48432 12.5
      vertex -8.81678 1.86475 12.5
    endloop
  endfacet
  facet normal 0 0 1
    outer loop
      vertex 5.78104 3.48432 12.5
      vertex 4.41749 2.84268 12.5
      vertex 10 2.93012 12.5
    endloop
  endfacet
  facet normal 0 0 1
    outer loop
      vertex 10 2.93012 12.5
      vertex 2.98428 2.377 12.5
      vertex 8.81678 1.86475 12.5
    endloop
  endfacet
  facet normal 0 0 1
    outer loop
      vertex 2.98428 2.377 12.5
      vertex 1.504 2.09462 12.5
      vertex 8.81678 1.86475 12.5
    endloop
  endfacet
  facet normal 0 0 1
    outer loop
      vertex 1.504 2.09462 12.5
      vertex -2.66454e-15 2 12.5
      vertex 8.81678 1.86475 12.5
    endloop
  endfacet
  facet normal 0 0 1
    outer loop
      vertex -7.05342 4.2918 12.5
      vertex -8.81678 1.86475 12.5
      vertex -5.78104 3.48432 12.5
    endloop
  endfacet
  facet normal 0 0 1
    outer loop
      vertex -8.21457 5.25238 12.5
      vertex -8.81678 1.86475 12.5
      vertex -7.05342 4.2918 12.5
    endloop
  endfacet
  facet normal 0 0 1
    outer loop
      vertex -9.24616 6.35091 12.5
      vertex -8.81678 1.86475 12.5
      vertex -8.21457 5.25238 12.5
    endloop
  endfacet
  facet normal 0 0 1
    outer loop
      vertex -10 7.38849 12.5
      vertex -8.81678 1.86475 12.5
      vertex -9.24616 6.35091 12.5
    endloop
  endfacet
  facet normal 0 0 1
    outer loop
      vertex -10 2.93012 12.5
      vertex -8.81678 1.86475 12.5
      vertex -10 7.38849 12.5
    endloop
  endfacet
  facet normal 0 0 1
    outer loop
      vertex 4.41749 2.84268 12.5
      vertex 2.98428 2.377 12.5
      vertex 10 2.93012 12.5
    endloop
  endfacet
  facet normal 0 0 1
    outer loop
      vertex -1.504 2.09462 12.5
      vertex -2.98428 2.377 12.5
      vertex -8.81678 1.86475 12.5
    endloop
  endfacet
  facet normal 0 0 1
    outer loop
      vertex -2.98428 2.377 12.5
      vertex -4.4175 2.84268 12.5
      vertex -8.81678 1.86475 12.5
    endloop
  endfacet
  facet normal 0.309017 0.951057 0
    outer loop
      vertex -5.18754 4.316e-15 16.4
      vertex -5.18754 4.316e-15 12.5
      vertex -6.10105 0.296818 16.4
    endloop
  endfacet
  facet normal 0.309017 0.951057 0
    outer loop
      vertex -6.10105 0.296818 16.4
      vertex -5.18754 4.316e-15 12.5
      vertex -6.10105 0.296818 12.5
    endloop
  endfacet
  facet normal -0.309017 0.951057 0
    outer loop
      vertex 6.10105 0.296818 16.4
      vertex 6.10105 0.296818 12.5
      vertex 5.18754 2.01227e-15 16.4
    endloop
  endfacet
  facet normal -0.309017 0.951057 0
    outer loop
      vertex 5.18754 2.01227e-15 16.4
      vertex 6.10105 0.296818 12.5
      vertex 5.18754 2.01227e-15 12.5
    endloop
  endfacet
  facet normal 0 0 -1
    outer loop
      vertex -9.24616 6.35091 16.4
      vertex -5.18754 4.316e-15 16.4
      vertex -10 7.38849 16.4
    endloop
  endfacet
  facet normal 0 0 -1
    outer loop
      vertex -9.24616 6.35091 16.4
      vertex -8.21457 5.25238 16.4
      vertex -5.18754 4.316e-15 16.4
    endloop
  endfacet
  facet normal 0 0 -1
    outer loop
      vertex -8.21457 5.25238 16.4
      vertex -7.05342 4.2918 16.4
      vertex -5.18754 4.316e-15 16.4
    endloop
  endfacet
  facet normal 0 0 -1
    outer loop
      vertex -7.05342 4.2918 16.4
      vertex -5.78104 3.48432 16.4
      vertex -5.18754 4.316e-15 16.4
    endloop
  endfacet
  facet normal 0 0 -1
    outer loop
      vertex -5.78104 3.48432 16.4
      vertex -4.4175 2.84268 16.4
      vertex -5.18754 4.316e-15 16.4
    endloop
  endfacet
  facet normal 0 0 -1
    outer loop
      vertex 5.18754 2.01227e-15 16.4
      vertex -2.98428 2.377 16.4
      vertex 6.10105 0.296818 16.4
    endloop
  endfacet
  facet normal 0 0 -1
    outer loop
      vertex -2.98428 2.377 16.4
      vertex -1.504 2.09462 16.4
      vertex 6.10105 0.296818 16.4
    endloop
  endfacet
  facet normal 0 0 -1
    outer loop
      vertex 6.10105 0.296818 16.4
      vertex -2.66454e-15 2 16.4
      vertex 8.81678 1.86475 16.4
    endloop
  endfacet
  facet normal 0 0 -1
    outer loop
      vertex 8.81678 1.86475 16.4
      vertex 1.504 2.09462 16.4
      vertex 10 2.93012 16.4
    endloop
  endfacet
  facet normal 0 0 -1
    outer loop
      vertex 1.504 2.09462 16.4
      vertex 2.98428 2.377 16.4
      vertex 10 2.93012 16.4
    endloop
  endfacet
  facet normal 0 0 -1
    outer loop
      vertex 2.98428 2.377 16.4
      vertex 4.41749 2.84268 16.4
      vertex 10 2.93012 16.4
    endloop
  endfacet
  facet normal 0 0 -1
    outer loop
      vertex 4.41749 2.84268 16.4
      vertex 5.78104 3.48432 16.4
      vertex 10 2.93012 16.4
    endloop
  endfacet
  facet normal 0 0 -1
    outer loop
      vertex 5.78104 3.48432 16.4
      vertex 7.05342 4.2918 16.4
      vertex 10 2.93012 16.4
    endloop
  endfacet
  facet normal 0 0 -1
    outer loop
      vertex 10 2.93012 16.4
      vertex 8.21456 5.25238 16.4
      vertex 9.24616 6.35091 16.4
    endloop
  endfacet
  facet normal 0 0 -1
    outer loop
      vertex 10 2.93012 16.4
      vertex 9.24616 6.35091 16.4
      vertex 10 7.38849 16.4
    endloop
  endfacet
  facet normal 0 0 -1
    outer loop
      vertex 7.05342 4.2918 16.4
      vertex 8.21456 5.25238 16.4
      vertex 10 2.93012 16.4
    endloop
  endfacet
  facet normal 0 0 -1
    outer loop
      vertex -2.66454e-15 2 16.4
      vertex 1.504 2.09462 16.4
      vertex 8.81678 1.86475 16.4
    endloop
  endfacet
  facet normal 0 0 -1
    outer loop
      vertex -1.504 2.09462 16.4
      vertex -2.66454e-15 2 16.4
      vertex 6.10105 0.296818 16.4
    endloop
  endfacet
  facet normal 0 0 -1
    outer loop
      vertex -5.18754 4.316e-15 16.4
      vertex -2.98428 2.377 16.4
      vertex 5.18754 2.01227e-15 16.4
    endloop
  endfacet
  facet normal 0 0 -1
    outer loop
      vertex -4.4175 2.84268 16.4
      vertex -2.98428 2.377 16.4
      vertex -5.18754 4.316e-15 16.4
    endloop
  endfacet
  facet normal 0 0 -1
    outer loop
      vertex -5.18754 4.316e-15 16.4
      vertex -6.10105 0.296818 16.4
      vertex -10 7.38849 16.4
    endloop
  endfacet
  facet normal 0 0 -1
    outer loop
      vertex -6.10105 0.296818 16.4
      vertex -8.81678 1.86475 16.4
      vertex -10 7.38849 16.4
    endloop
  endfacet
  facet normal 0 0 -1
    outer loop
      vertex -8.81678 1.86475 16.4
      vertex -10 2.93012 16.4
      vertex -10 7.38849 16.4
    endloop
  endfacet
  facet normal 0.99863 0.0523359 0
    outer loop
      vertex 10 14 9.99201e-16
      vertex 9.94522 15.0453 9.99201e-16
      vertex 9.94522 15.0453 28.5
    endloop
  endfacet
  facet normal 0.99863 0.0523359 0
    outer loop
      vertex 10 14 28.5
      vertex 10 14 9.99201e-16
      vertex 9.94522 15.0453 28.5
    endloop
  endfacet
  facet normal -0.669131 0.743145 0
    outer loop
      vertex 10 2.93012 16.4
      vertex 10 2.93012 12.5
      vertex 8.81678 1.86475 16.4
    endloop
  endfacet
  facet normal -0.669131 0.743145 0
    outer loop
      vertex 8.81678 1.86475 16.4
      vertex 10 2.93012 12.5
      vertex 8.81678 1.86475 12.5
    endloop
  endfacet
  facet normal 0.809017 -0.587785 0
    outer loop
      vertex 9.24616 6.35091 16.4
      vertex 9.24616 6.35091 12.5
      vertex 10 7.38849 12.5
    endloop
  endfacet
  facet normal 0.809017 -0.587785 0
    outer loop
      vertex 10 7.38849 16.4
      vertex 9.24616 6.35091 16.4
      vertex 10 7.38849 12.5
    endloop
  endfacet
  facet normal 0.987688 0.156435 0
    outer loop
      vertex 9.94522 15.0453 9.99201e-16
      vertex 9.78148 16.0791 9.99201e-16
      vertex 9.78148 16.0791 28.5
    endloop
  endfacet
  facet normal 0.987688 0.156435 0
    outer loop
      vertex 9.94522 15.0453 28.5
      vertex 9.94522 15.0453 9.99201e-16
      vertex 9.78148 16.0791 28.5
    endloop
  endfacet
  facet normal 0.965926 0.258819 0
    outer loop
      vertex 9.78148 16.0791 9.99201e-16
      vertex 9.51056 17.0902 9.99201e-16
      vertex 9.51056 17.0902 28.5
    endloop
  endfacet
  facet normal 0.965926 0.258819 0
    outer loop
      vertex 9.78148 16.0791 28.5
      vertex 9.78148 16.0791 9.99201e-16
      vertex 9.51056 17.0902 28.5
    endloop
  endfacet
  facet normal 0.933581 0.358368 0
    outer loop
      vertex 9.51056 17.0902 9.99201e-16
      vertex 9.13546 18.0674 9.99201e-16
      vertex 9.13546 18.0674 28.5
    endloop
  endfacet
  facet normal 0.933581 0.358368 0
    outer loop
      vertex 9.51056 17.0902 28.5
      vertex 9.51056 17.0902 9.99201e-16
      vertex 9.13546 18.0674 28.5
    endloop
  endfacet
  facet normal 0.891006 0.453991 0
    outer loop
      vertex 9.13546 18.0674 9.99201e-16
      vertex 8.66025 19 9.99201e-16
      vertex 8.66025 19 28.5
    endloop
  endfacet
  facet normal 0.891006 0.453991 0
    outer loop
      vertex 9.13546 18.0674 28.5
      vertex 9.13546 18.0674 9.99201e-16
      vertex 8.66025 19 28.5
    endloop
  endfacet
  facet normal 0.838671 0.544639 0
    outer loop
      vertex 8.66025 19 9.99201e-16
      vertex 8.09017 19.8779 9.99201e-16
      vertex 8.09017 19.8779 28.5
    endloop
  endfacet
  facet normal 0.838671 0.544639 0
    outer loop
      vertex 8.66025 19 28.5
      vertex 8.66025 19 9.99201e-16
      vertex 8.09017 19.8779 28.5
    endloop
  endfacet
  facet normal 0.777146 0.629321 0
    outer loop
      vertex 8.09017 19.8779 9.99201e-16
      vertex 8.05877 19.9166 9.99201e-16
      vertex 8.05877 19.9166 28.5
    endloop
  endfacet
  facet normal 0.777146 0.629321 0
    outer loop
      vertex 8.09017 19.8779 28.5
      vertex 8.09017 19.8779 9.99201e-16
      vertex 8.05877 19.9166 28.5
    endloop
  endfacet
  facet normal -0.707107 0.707107 0
    outer loop
      vertex 8.05877 19.9166 28.5
      vertex 8.05877 19.9166 9.99201e-16
      vertex 7 18.8579 28.5
    endloop
  endfacet
  facet normal -0.707107 0.707107 0
    outer loop
      vertex 7 18.8579 28.5
      vertex 8.05877 19.9166 9.99201e-16
      vertex 7 18.8579 9.99201e-16
    endloop
  endfacet
  facet normal -1 2.22045e-16 0
    outer loop
      vertex 7 18.8579 28.5
      vertex 7 18.8579 9.99201e-16
      vertex 7 17.6331 28.5
    endloop
  endfacet
  facet normal -1 2.22045e-16 0
    outer loop
      vertex 7 17.6331 28.5
      vertex 7 18.8579 9.99201e-16
      vertex 7 17.6331 9.99201e-16
    endloop
  endfacet
  facet normal -0.876307 -0.481753 0
    outer loop
      vertex 7.14813 17.3637 28.5
      vertex 7 17.6331 28.5
      vertex 7.14813 17.3637 9.99201e-16
    endloop
  endfacet
  facet normal -0.876307 -0.481753 0
    outer loop
      vertex 7.14813 17.3637 9.99201e-16
      vertex 7 17.6331 28.5
      vertex 7 17.6331 9.99201e-16
    endloop
  endfacet
  facet normal -0.929777 -0.368124 0
    outer loop
      vertex 7.51335 16.4412 28.5
      vertex 7.14813 17.3637 28.5
      vertex 7.51335 16.4412 9.99201e-16
    endloop
  endfacet
  facet normal -0.929777 -0.368124 0
    outer loop
      vertex 7.51335 16.4412 9.99201e-16
      vertex 7.14813 17.3637 28.5
      vertex 7.14813 17.3637 9.99201e-16
    endloop
  endfacet
  facet normal -0.968583 -0.24869 0
    outer loop
      vertex 7.76007 15.4803 28.5
      vertex 7.51335 16.4412 28.5
      vertex 7.76007 15.4803 9.99201e-16
    endloop
  endfacet
  facet normal -0.968583 -0.24869 0
    outer loop
      vertex 7.76007 15.4803 9.99201e-16
      vertex 7.51335 16.4412 28.5
      vertex 7.51335 16.4412 9.99201e-16
    endloop
  endfacet
  facet normal -0.992115 -0.125333 0
    outer loop
      vertex 7.88441 14.496 28.5
      vertex 7.76007 15.4803 28.5
      vertex 7.88441 14.496 9.99201e-16
    endloop
  endfacet
  facet normal -0.992115 -0.125333 0
    outer loop
      vertex 7.88441 14.496 9.99201e-16
      vertex 7.76007 15.4803 28.5
      vertex 7.76007 15.4803 9.99201e-16
    endloop
  endfacet
  facet normal -1 2.22045e-16 0
    outer loop
      vertex 7.88441 14.496 28.5
      vertex 7.88441 14.496 9.99201e-16
      vertex 7.88441 13.504 28.5
    endloop
  endfacet
  facet normal -1 2.22045e-16 0
    outer loop
      vertex 7.88441 13.504 28.5
      vertex 7.88441 14.496 9.99201e-16
      vertex 7.88441 13.504 9.99201e-16
    endloop
  endfacet
  facet normal -0.992115 0.125333 0
    outer loop
      vertex 7.88441 13.504 28.5
      vertex 7.88441 13.504 9.99201e-16
      vertex 7.76007 12.5197 28.5
    endloop
  endfacet
  facet normal -0.992115 0.125333 0
    outer loop
      vertex 7.76007 12.5197 28.5
      vertex 7.88441 13.504 9.99201e-16
      vertex 7.76007 12.5197 9.99201e-16
    endloop
  endfacet
  facet normal -0.968583 0.24869 0
    outer loop
      vertex 7.76007 12.5197 28.5
      vertex 7.76007 12.5197 9.99201e-16
      vertex 7.51335 11.5588 28.5
    endloop
  endfacet
  facet normal -0.968583 0.24869 0
    outer loop
      vertex 7.51335 11.5588 28.5
      vertex 7.76007 12.5197 9.99201e-16
      vertex 7.51335 11.5588 9.99201e-16
    endloop
  endfacet
  facet normal -0.929777 0.368124 0
    outer loop
      vertex 7.51335 11.5588 28.5
      vertex 7.51335 11.5588 9.99201e-16
      vertex 7.14813 10.6363 28.5
    endloop
  endfacet
  facet normal -0.929777 0.368124 0
    outer loop
      vertex 7.14813 10.6363 28.5
      vertex 7.51335 11.5588 9.99201e-16
      vertex 7.14813 10.6363 9.99201e-16
    endloop
  endfacet
  facet normal -0.876307 0.481753 0
    outer loop
      vertex 7.14813 10.6363 28.5
      vertex 7.14813 10.6363 9.99201e-16
      vertex 6.67019 9.76697 28.5
    endloop
  endfacet
  facet normal -0.876307 0.481753 0
    outer loop
      vertex 6.67019 9.76697 28.5
      vertex 7.14813 10.6363 9.99201e-16
      vertex 6.67019 9.76697 9.99201e-16
    endloop
  endfacet
  facet normal -0.809017 0.587785 0
    outer loop
      vertex 6.67019 9.76697 28.5
      vertex 6.67019 9.76697 9.99201e-16
      vertex 6.08705 8.96435 28.5
    endloop
  endfacet
  facet normal -0.809017 0.587785 0
    outer loop
      vertex 6.08705 8.96435 28.5
      vertex 6.67019 9.76697 9.99201e-16
      vertex 6.08705 8.96435 9.99201e-16
    endloop
  endfacet
  facet normal -0.728968 0.684548 0
    outer loop
      vertex 5.651 8.5 27
      vertex 5.651 8.5 28.5
      vertex 6.08705 8.96435 28.5
    endloop
  endfacet
  facet normal -0.728968 0.684548 0
    outer loop
      vertex 5.651 8.5 27
      vertex 6.08705 8.96435 28.5
      vertex 6.08705 8.96435 9.99201e-16
    endloop
  endfacet
  facet normal -0.728968 0.684548 0
    outer loop
      vertex 5.651 8.5 27
      vertex 6.08705 8.96435 9.99201e-16
      vertex 5.40792 8.24115 27
    endloop
  endfacet
  facet normal -0.728968 0.684548 0
    outer loop
      vertex 6.08705 8.96435 9.99201e-16
      vertex 5.651 8.5 9.99201e-16
      vertex 5.651 8.5 1.5
    endloop
  endfacet
  facet normal -0.728968 0.684548 0
    outer loop
      vertex 6.08705 8.96435 9.99201e-16
      vertex 5.651 8.5 1.5
      vertex 5.40792 8.24115 27
    endloop
  endfacet
  facet normal -0.728968 0.684548 0
    outer loop
      vertex 5.40792 8.24115 1.5
      vertex 5.40792 8.24115 27
      vertex 5.651 8.5 1.5
    endloop
  endfacet
  facet normal 2.22045e-16 1 0
    outer loop
      vertex -5.651 8.5 9.99201e-16
      vertex -5.651 8.5 1.5
      vertex 5.651 8.5 9.99201e-16
    endloop
  endfacet
  facet normal 2.22045e-16 1 0
    outer loop
      vertex 5.651 8.5 9.99201e-16
      vertex -5.651 8.5 1.5
      vertex 5.651 8.5 1.5
    endloop
  endfacet
  facet normal 0.728968 0.684548 0
    outer loop
      vertex -5.651 8.5 1.5
      vertex -5.651 8.5 9.99201e-16
      vertex -6.08706 8.96435 28.5
    endloop
  endfacet
  facet normal 0.728968 0.684548 0
    outer loop
      vertex -6.08706 8.96435 28.5
      vertex -5.651 8.5 28.5
      vertex -5.651 8.5 27
    endloop
  endfacet
  facet normal 0.728968 0.684548 0
    outer loop
      vertex -5.40792 8.24115 1.5
      vertex -6.08706 8.96435 28.5
      vertex -5.651 8.5 27
    endloop
  endfacet
  facet normal 0.728968 0.684548 0
    outer loop
      vertex -5.40792 8.24115 27
      vertex -5.40792 8.24115 1.5
      vertex -5.651 8.5 27
    endloop
  endfacet
  facet normal 0.728968 0.684548 0
    outer loop
      vertex -5.40792 8.24115 1.5
      vertex -5.651 8.5 1.5
      vertex -6.08706 8.96435 28.5
    endloop
  endfacet
  facet normal 0.728968 0.684548 0
    outer loop
      vertex -5.651 8.5 9.99201e-16
      vertex -6.08706 8.96435 9.99201e-16
      vertex -6.08706 8.96435 28.5
    endloop
  endfacet
  facet normal 0.809017 0.587785 0
    outer loop
      vertex -6.67019 9.76697 28.5
      vertex -6.08706 8.96435 28.5
      vertex -6.08706 8.96435 9.99201e-16
    endloop
  endfacet
  facet normal 0.809017 0.587785 0
    outer loop
      vertex -6.67019 9.76697 9.99201e-16
      vertex -6.67019 9.76697 28.5
      vertex -6.08706 8.96435 9.99201e-16
    endloop
  endfacet
  facet normal 0.876307 0.481753 0
    outer loop
      vertex -7.14813 10.6363 28.5
      vertex -6.67019 9.76697 28.5
      vertex -6.67019 9.76697 9.99201e-16
    endloop
  endfacet
  facet normal 0.876307 0.481753 0
    outer loop
      vertex -7.14813 10.6363 9.99201e-16
      vertex -7.14813 10.6363 28.5
      vertex -6.67019 9.76697 9.99201e-16
    endloop
  endfacet
  facet normal 0.929777 0.368124 0
    outer loop
      vertex -7.51335 11.5588 28.5
      vertex -7.14813 10.6363 28.5
      vertex -7.14813 10.6363 9.99201e-16
    endloop
  endfacet
  facet normal 0.929777 0.368124 0
    outer loop
      vertex -7.51335 11.5588 9.99201e-16
      vertex -7.51335 11.5588 28.5
      vertex -7.14813 10.6363 9.99201e-16
    endloop
  endfacet
  facet normal 0.968583 0.24869 0
    outer loop
      vertex -7.76007 12.5197 28.5
      vertex -7.51335 11.5588 28.5
      vertex -7.51335 11.5588 9.99201e-16
    endloop
  endfacet
  facet normal 0.968583 0.24869 0
    outer loop
      vertex -7.76007 12.5197 9.99201e-16
      vertex -7.76007 12.5197 28.5
      vertex -7.51335 11.5588 9.99201e-16
    endloop
  endfacet
  facet normal 0.992115 0.125333 0
    outer loop
      vertex -7.88441 13.504 28.5
      vertex -7.76007 12.5197 28.5
      vertex -7.76007 12.5197 9.99201e-16
    endloop
  endfacet
  facet normal 0.992115 0.125333 0
    outer loop
      vertex -7.88441 13.504 9.99201e-16
      vertex -7.88441 13.504 28.5
      vertex -7.76007 12.5197 9.99201e-16
    endloop
  endfacet
  facet normal 1 -2.22045e-16 0
    outer loop
      vertex -7.88441 14.496 9.99201e-16
      vertex -7.88441 14.496 28.5
      vertex -7.88441 13.504 28.5
    endloop
  endfacet
  facet normal 1 -2.22045e-16 0
    outer loop
      vertex -7.88441 13.504 9.99201e-16
      vertex -7.88441 14.496 9.99201e-16
      vertex -7.88441 13.504 28.5
    endloop
  endfacet
  facet normal 0.992115 -0.125333 0
    outer loop
      vertex -7.76007 15.4803 9.99201e-16
      vertex -7.76007 15.4803 28.5
      vertex -7.88441 14.496 28.5
    endloop
  endfacet
  facet normal 0.992115 -0.125333 0
    outer loop
      vertex -7.88441 14.496 9.99201e-16
      vertex -7.76007 15.4803 9.99201e-16
      vertex -7.88441 14.496 28.5
    endloop
  endfacet
  facet normal 0.968583 -0.24869 0
    outer loop
      vertex -7.51335 16.4412 9.99201e-16
      vertex -7.51335 16.4412 28.5
      vertex -7.76007 15.4803 28.5
    endloop
  endfacet
  facet normal 0.968583 -0.24869 0
    outer loop
      vertex -7.76007 15.4803 9.99201e-16
      vertex -7.51335 16.4412 9.99201e-16
      vertex -7.76007 15.4803 28.5
    endloop
  endfacet
  facet normal 0.929777 -0.368124 0
    outer loop
      vertex -7.14813 17.3637 9.99201e-16
      vertex -7.14813 17.3637 28.5
      vertex -7.51335 16.4412 28.5
    endloop
  endfacet
  facet normal 0.929777 -0.368124 0
    outer loop
      vertex -7.51335 16.4412 9.99201e-16
      vertex -7.14813 17.3637 9.99201e-16
      vertex -7.51335 16.4412 28.5
    endloop
  endfacet
  facet normal 0.876307 -0.481753 0
    outer loop
      vertex -7 17.6331 9.99201e-16
      vertex -7 17.6331 28.5
      vertex -7.14813 17.3637 28.5
    endloop
  endfacet
  facet normal 0.876307 -0.481753 0
    outer loop
      vertex -7.14813 17.3637 9.99201e-16
      vertex -7 17.6331 9.99201e-16
      vertex -7.14813 17.3637 28.5
    endloop
  endfacet
  facet normal 1 -2.22045e-16 0
    outer loop
      vertex -7 18.8579 9.99201e-16
      vertex -7 18.8579 28.5
      vertex -7 17.6331 28.5
    endloop
  endfacet
  facet normal 1 -2.22045e-16 0
    outer loop
      vertex -7 17.6331 9.99201e-16
      vertex -7 18.8579 9.99201e-16
      vertex -7 17.6331 28.5
    endloop
  endfacet
  facet normal 0.707107 0.707107 0
    outer loop
      vertex -8.05877 19.9166 28.5
      vertex -7 18.8579 28.5
      vertex -7 18.8579 9.99201e-16
    endloop
  endfacet
  facet normal 0.707107 0.707107 0
    outer loop
      vertex -8.05877 19.9166 9.99201e-16
      vertex -8.05877 19.9166 28.5
      vertex -7 18.8579 9.99201e-16
    endloop
  endfacet
  facet normal -0.777146 0.629321 0
    outer loop
      vertex -8.09017 19.8779 9.99201e-16
      vertex -8.09017 19.8779 28.5
      vertex -8.05877 19.9166 9.99201e-16
    endloop
  endfacet
  facet normal -0.777146 0.629321 0
    outer loop
      vertex -8.05877 19.9166 9.99201e-16
      vertex -8.09017 19.8779 28.5
      vertex -8.05877 19.9166 28.5
    endloop
  endfacet
  facet normal -0.838671 0.544639 0
    outer loop
      vertex -8.66025 19 9.99201e-16
      vertex -8.66025 19 28.5
      vertex -8.09017 19.8779 9.99201e-16
    endloop
  endfacet
  facet normal -0.838671 0.544639 0
    outer loop
      vertex -8.09017 19.8779 9.99201e-16
      vertex -8.66025 19 28.5
      vertex -8.09017 19.8779 28.5
    endloop
  endfacet
  facet normal -0.891006 0.453991 0
    outer loop
      vertex -9.13545 18.0674 9.99201e-16
      vertex -9.13545 18.0674 28.5
      vertex -8.66025 19 9.99201e-16
    endloop
  endfacet
  facet normal -0.891006 0.453991 0
    outer loop
      vertex -8.66025 19 9.99201e-16
      vertex -9.13545 18.0674 28.5
      vertex -8.66025 19 28.5
    endloop
  endfacet
  facet normal -0.933581 0.358368 0
    outer loop
      vertex -9.51056 17.0902 9.99201e-16
      vertex -9.51056 17.0902 28.5
      vertex -9.13545 18.0674 9.99201e-16
    endloop
  endfacet
  facet normal -0.933581 0.358368 0
    outer loop
      vertex -9.13545 18.0674 9.99201e-16
      vertex -9.51056 17.0902 28.5
      vertex -9.13545 18.0674 28.5
    endloop
  endfacet
  facet normal -0.965926 0.258819 0
    outer loop
      vertex -9.78148 16.0791 9.99201e-16
      vertex -9.78148 16.0791 28.5
      vertex -9.51056 17.0902 9.99201e-16
    endloop
  endfacet
  facet normal -0.965926 0.258819 0
    outer loop
      vertex -9.51056 17.0902 9.99201e-16
      vertex -9.78148 16.0791 28.5
      vertex -9.51056 17.0902 28.5
    endloop
  endfacet
  facet normal -0.987688 0.156435 0
    outer loop
      vertex -9.94522 15.0453 9.99201e-16
      vertex -9.94522 15.0453 28.5
      vertex -9.78148 16.0791 9.99201e-16
    endloop
  endfacet
  facet normal -0.987688 0.156435 0
    outer loop
      vertex -9.78148 16.0791 9.99201e-16
      vertex -9.94522 15.0453 28.5
      vertex -9.78148 16.0791 28.5
    endloop
  endfacet
  facet normal -0.99863 0.0523359 0
    outer loop
      vertex -10 14 9.99201e-16
      vertex -10 14 28.5
      vertex -9.94522 15.0453 9.99201e-16
    endloop
  endfacet
  facet normal -0.99863 0.0523359 0
    outer loop
      vertex -9.94522 15.0453 9.99201e-16
      vertex -10 14 28.5
      vertex -9.94522 15.0453 28.5
    endloop
  endfacet
  facet normal 0.669131 0.743145 0
    outer loop
      vertex -8.81678 1.86475 16.4
      vertex -8.81678 1.86475 12.5
      vertex -10 2.93012 16.4
    endloop
  endfacet
  facet normal 0.669131 0.743145 0
    outer loop
      vertex -10 2.93012 16.4
      vertex -8.81678 1.86475 12.5
      vertex -10 2.93012 12.5
    endloop
  endfacet
  facet normal -0.809017 -0.587785 0
    outer loop
      vertex -10 7.38849 12.5
      vertex -9.24616 6.35091 12.5
      vertex -10 7.38849 16.4
    endloop
  endfacet
  facet normal -0.809017 -0.587785 0
    outer loop
      vertex -10 7.38849 16.4
      vertex -9.24616 6.35091 12.5
      vertex -9.24616 6.35091 16.4
    endloop
  endfacet
  facet normal 2.22045e-16 1 0
    outer loop
      vertex -5.651 8.5 27
      vertex -5.651 8.5 28.5
      vertex 5.651 8.5 27
    endloop
  endfacet
  facet normal 2.22045e-16 1 0
    outer loop
      vertex 5.651 8.5 27
      vertex -5.651 8.5 28.5
      vertex 5.651 8.5 28.5
    endloop
  endfacet
  facet normal 0.5 0.866025 0
    outer loop
      vertex -6.10105 0.296818 16.4
      vertex -6.10105 0.296818 12.5
      vertex -8.81678 1.86475 16.4
    endloop
  endfacet
  facet normal 0.5 0.866025 0
    outer loop
      vertex -8.81678 1.86475 16.4
      vertex -6.10105 0.296818 12.5
      vertex -8.81678 1.86475 12.5
    endloop
  endfacet
  facet normal -0.728969 -0.684547 0
    outer loop
      vertex -9.24616 6.35091 12.5
      vertex -8.21457 5.25238 12.5
      vertex -9.24616 6.35091 16.4
    endloop
  endfacet
  facet normal -0.728969 -0.684547 0
    outer loop
      vertex -9.24616 6.35091 16.4
      vertex -8.21457 5.25238 12.5
      vertex -8.21457 5.25238 16.4
    endloop
  endfacet
  facet normal -0.637424 -0.770513 0
    outer loop
      vertex -8.21457 5.25238 16.4
      vertex -8.21457 5.25238 12.5
      vertex -7.05342 4.2918 12.5
    endloop
  endfacet
  facet normal -0.637424 -0.770513 0
    outer loop
      vertex -7.05342 4.2918 16.4
      vertex -8.21457 5.25238 16.4
      vertex -7.05342 4.2918 12.5
    endloop
  endfacet
  facet normal -0.535827 -0.844328 0
    outer loop
      vertex -7.05342 4.2918 16.4
      vertex -7.05342 4.2918 12.5
      vertex -5.78104 3.48432 12.5
    endloop
  endfacet
  facet normal -0.535827 -0.844328 0
    outer loop
      vertex -5.78104 3.48432 16.4
      vertex -7.05342 4.2918 16.4
      vertex -5.78104 3.48432 12.5
    endloop
  endfacet
  facet normal -0.42578 -0.904827 0
    outer loop
      vertex -5.78104 3.48432 16.4
      vertex -5.78104 3.48432 12.5
      vertex -4.4175 2.84268 12.5
    endloop
  endfacet
  facet normal -0.42578 -0.904827 0
    outer loop
      vertex -4.4175 2.84268 16.4
      vertex -5.78104 3.48432 16.4
      vertex -4.4175 2.84268 12.5
    endloop
  endfacet
  facet normal -0.309017 -0.951057 0
    outer loop
      vertex -4.4175 2.84268 16.4
      vertex -4.4175 2.84268 12.5
      vertex -2.98428 2.377 12.5
    endloop
  endfacet
  facet normal -0.309017 -0.951057 0
    outer loop
      vertex -2.98428 2.377 16.4
      vertex -4.4175 2.84268 16.4
      vertex -2.98428 2.377 12.5
    endloop
  endfacet
  facet normal -0.187381 -0.982287 0
    outer loop
      vertex -2.98428 2.377 16.4
      vertex -2.98428 2.377 12.5
      vertex -1.504 2.09462 12.5
    endloop
  endfacet
  facet normal -0.187381 -0.982287 0
    outer loop
      vertex -1.504 2.09462 16.4
      vertex -2.98428 2.377 16.4
      vertex -1.504 2.09462 12.5
    endloop
  endfacet
  facet normal -0.0627908 -0.998027 0
    outer loop
      vertex -1.504 2.09462 16.4
      vertex -1.504 2.09462 12.5
      vertex -2.66454e-15 2 12.5
    endloop
  endfacet
  facet normal -0.0627908 -0.998027 0
    outer loop
      vertex -2.66454e-15 2 16.4
      vertex -1.504 2.09462 16.4
      vertex -2.66454e-15 2 12.5
    endloop
  endfacet
  facet normal 0.0627908 -0.998027 0
    outer loop
      vertex -2.66454e-15 2 16.4
      vertex -2.66454e-15 2 12.5
      vertex 1.504 2.09462 12.5
    endloop
  endfacet
  facet normal 0.0627908 -0.998027 0
    outer loop
      vertex 1.504 2.09462 16.4
      vertex -2.66454e-15 2 16.4
      vertex 1.504 2.09462 12.5
    endloop
  endfacet
  facet normal 0.187381 -0.982287 0
    outer loop
      vertex 1.504 2.09462 16.4
      vertex 1.504 2.09462 12.5
      vertex 2.98428 2.377 12.5
    endloop
  endfacet
  facet normal 0.187381 -0.982287 0
    outer loop
      vertex 2.98428 2.377 16.4
      vertex 1.504 2.09462 16.4
      vertex 2.98428 2.377 12.5
    endloop
  endfacet
  facet normal 0.309017 -0.951057 0
    outer loop
      vertex 2.98428 2.377 16.4
      vertex 2.98428 2.377 12.5
      vertex 4.41749 2.84268 12.5
    endloop
  endfacet
  facet normal 0.309017 -0.951057 0
    outer loop
      vertex 4.41749 2.84268 16.4
      vertex 2.98428 2.377 16.4
      vertex 4.41749 2.84268 12.5
    endloop
  endfacet
  facet normal 0.42578 -0.904827 0
    outer loop
      vertex 4.41749 2.84268 16.4
      vertex 4.41749 2.84268 12.5
      vertex 5.78104 3.48432 12.5
    endloop
  endfacet
  facet normal 0.42578 -0.904827 0
    outer loop
      vertex 5.78104 3.48432 16.4
      vertex 4.41749 2.84268 16.4
      vertex 5.78104 3.48432 12.5
    endloop
  endfacet
  facet normal 0.535827 -0.844328 0
    outer loop
      vertex 5.78104 3.48432 16.4
      vertex 5.78104 3.48432 12.5
      vertex 7.05342 4.2918 12.5
    endloop
  endfacet
  facet normal 0.535827 -0.844328 0
    outer loop
      vertex 7.05342 4.2918 16.4
      vertex 5.78104 3.48432 16.4
      vertex 7.05342 4.2918 12.5
    endloop
  endfacet
  facet normal 0.637424 -0.770513 0
    outer loop
      vertex 7.05342 4.2918 16.4
      vertex 7.05342 4.2918 12.5
      vertex 8.21456 5.25238 12.5
    endloop
  endfacet
  facet normal 0.637424 -0.770513 0
    outer loop
      vertex 8.21456 5.25238 16.4
      vertex 7.05342 4.2918 16.4
      vertex 8.21456 5.25238 12.5
    endloop
  endfacet
  facet normal 0.728969 -0.684547 0
    outer loop
      vertex 8.21456 5.25238 16.4
      vertex 8.21456 5.25238 12.5
      vertex 9.24616 6.35091 12.5
    endloop
  endfacet
  facet normal 0.728969 -0.684547 0
    outer loop
      vertex 9.24616 6.35091 16.4
      vertex 8.21456 5.25238 16.4
      vertex 9.24616 6.35091 12.5
    endloop
  endfacet
  facet normal -0.5 0.866025 0
    outer loop
      vertex 8.81678 1.86475 16.4
      vertex 8.81678 1.86475 12.5
      vertex 6.10105 0.296818 16.4
    endloop
  endfacet
  facet normal -0.5 0.866025 0
    outer loop
      vertex 6.10105 0.296818 16.4
      vertex 8.81678 1.86475 12.5
      vertex 6.10105 0.296818 12.5
    endloop
  endfacet
  facet normal 0 0 -1
    outer loop
      vertex -5.651 8.5 27
      vertex 5.651 8.5 27
      vertex -5.40792 8.24115 27
    endloop
  endfacet
  facet normal 0 0 -1
    outer loop
      vertex -5.40792 8.24115 27
      vertex 5.651 8.5 27
      vertex 5.40792 8.24115 27
    endloop
  endfacet
  facet normal 0 0 -1
    outer loop
      vertex -5.40792 8.24115 27
      vertex 5.40792 8.24115 27
      vertex 4.6435 7.60877 27
    endloop
  endfacet
  facet normal 0 0 -1
    outer loop
      vertex -5.40792 8.24115 27
      vertex 4.6435 7.60877 27
      vertex 3.80585 7.07718 27
    endloop
  endfacet
  facet normal 0 0 -1
    outer loop
      vertex -5.40792 8.24115 27
      vertex 3.80585 7.07718 27
      vertex 2.90818 6.65477 27
    endloop
  endfacet
  facet normal 0 0 -1
    outer loop
      vertex -5.40792 8.24115 27
      vertex 2.90818 6.65477 27
      vertex 1.96465 6.34819 27
    endloop
  endfacet
  facet normal 0 0 -1
    outer loop
      vertex -5.40792 8.24115 27
      vertex 1.96465 6.34819 27
      vertex 0.990133 6.16229 27
    endloop
  endfacet
  facet normal 0 0 -1
    outer loop
      vertex -5.40792 8.24115 27
      vertex 0.990133 6.16229 27
      vertex -1.75415e-15 6.1 27
    endloop
  endfacet
  facet normal 0 0 -1
    outer loop
      vertex -5.40792 8.24115 27
      vertex -1.75415e-15 6.1 27
      vertex -0.990133 6.16229 27
    endloop
  endfacet
  facet normal 0 0 -1
    outer loop
      vertex -5.40792 8.24115 27
      vertex -0.990133 6.16229 27
      vertex -1.96465 6.34819 27
    endloop
  endfacet
  facet normal 0 0 -1
    outer loop
      vertex -5.40792 8.24115 27
      vertex -1.96465 6.34819 27
      vertex -2.90818 6.65477 27
    endloop
  endfacet
  facet normal 0 0 -1
    outer loop
      vertex -5.40792 8.24115 27
      vertex -2.90818 6.65477 27
      vertex -3.80585 7.07718 27
    endloop
  endfacet
  facet normal 0 0 -1
    outer loop
      vertex -5.40792 8.24115 27
      vertex -3.80585 7.07718 27
      vertex -4.6435 7.60877 27
    endloop
  endfacet
  facet normal -0.637424 0.770513 0
    outer loop
      vertex 5.40792 8.24115 27
      vertex 5.40792 8.24115 1.5
      vertex 4.6435 7.60877 27
    endloop
  endfacet
  facet normal -0.637424 0.770513 0
    outer loop
      vertex 4.6435 7.60877 27
      vertex 5.40792 8.24115 1.5
      vertex 4.6435 7.60877 1.5
    endloop
  endfacet
  facet normal 0 0 1
    outer loop
      vertex 5.651 8.5 1.5
      vertex -5.651 8.5 1.5
      vertex -5.40792 8.24115 1.5
    endloop
  endfacet
  facet normal 0 0 1
    outer loop
      vertex -3.80585 7.07718 1.5
      vertex 5.651 8.5 1.5
      vertex -4.6435 7.60877 1.5
    endloop
  endfacet
  facet normal 0 0 1
    outer loop
      vertex -4.6435 7.60877 1.5
      vertex 5.651 8.5 1.5
      vertex -5.40792 8.24115 1.5
    endloop
  endfacet
  facet normal 0 0 1
    outer loop
      vertex -2.90818 6.65477 1.5
      vertex 5.651 8.5 1.5
      vertex -3.80585 7.07718 1.5
    endloop
  endfacet
  facet normal 0 0 1
    outer loop
      vertex -1.96465 6.34819 1.5
      vertex 5.651 8.5 1.5
      vertex -2.90818 6.65477 1.5
    endloop
  endfacet
  facet normal 0 0 1
    outer loop
      vertex -0.990133 6.16229 1.5
      vertex 5.651 8.5 1.5
      vertex -1.96465 6.34819 1.5
    endloop
  endfacet
  facet normal 0 0 1
    outer loop
      vertex -1.75415e-15 6.1 1.5
      vertex 5.651 8.5 1.5
      vertex -0.990133 6.16229 1.5
    endloop
  endfacet
  facet normal 0 0 1
    outer loop
      vertex 0.990133 6.16229 1.5
      vertex 5.651 8.5 1.5
      vertex -1.75415e-15 6.1 1.5
    endloop
  endfacet
  facet normal 0 0 1
    outer loop
      vertex 1.96465 6.34819 1.5
      vertex 5.651 8.5 1.5
      vertex 0.990133 6.16229 1.5
    endloop
  endfacet
  facet normal 0 0 1
    outer loop
      vertex 2.90818 6.65477 1.5
      vertex 5.651 8.5 1.5
      vertex 1.96465 6.34819 1.5
    endloop
  endfacet
  facet normal 0 0 1
    outer loop
      vertex 3.80585 7.07718 1.5
      vertex 5.651 8.5 1.5
      vertex 2.90818 6.65477 1.5
    endloop
  endfacet
  facet normal 0 0 1
    outer loop
      vertex 4.6435 7.60877 1.5
      vertex 5.651 8.5 1.5
      vertex 3.80585 7.07718 1.5
    endloop
  endfacet
  facet normal 0 0 1
    outer loop
      vertex 5.40792 8.24115 1.5
      vertex 5.651 8.5 1.5
      vertex 4.6435 7.60877 1.5
    endloop
  endfacet
  facet normal 0.637424 0.770513 0
    outer loop
      vertex -4.6435 7.60877 27
      vertex -4.6435 7.60877 1.5
      vertex -5.40792 8.24115 27
    endloop
  endfacet
  facet normal 0.637424 0.770513 0
    outer loop
      vertex -5.40792 8.24115 27
      vertex -4.6435 7.60877 1.5
      vertex -5.40792 8.24115 1.5
    endloop
  endfacet
  facet normal 0.535827 0.844328 0
    outer loop
      vertex -3.80585 7.07718 27
      vertex -3.80585 7.07718 1.5
      vertex -4.6435 7.60877 27
    endloop
  endfacet
  facet normal 0.535827 0.844328 0
    outer loop
      vertex -4.6435 7.60877 27
      vertex -3.80585 7.07718 1.5
      vertex -4.6435 7.60877 1.5
    endloop
  endfacet
  facet normal 0.425779 0.904827 0
    outer loop
      vertex -2.90818 6.65477 27
      vertex -2.90818 6.65477 1.5
      vertex -3.80585 7.07718 27
    endloop
  endfacet
  facet normal 0.425779 0.904827 0
    outer loop
      vertex -3.80585 7.07718 27
      vertex -2.90818 6.65477 1.5
      vertex -3.80585 7.07718 1.5
    endloop
  endfacet
  facet normal 0.309017 0.951056 0
    outer loop
      vertex -1.96465 6.34819 27
      vertex -1.96465 6.34819 1.5
      vertex -2.90818 6.65477 27
    endloop
  endfacet
  facet normal 0.309017 0.951056 0
    outer loop
      vertex -2.90818 6.65477 27
      vertex -1.96465 6.34819 1.5
      vertex -2.90818 6.65477 1.5
    endloop
  endfacet
  facet normal 0.187381 0.982287 0
    outer loop
      vertex -0.990133 6.16229 27
      vertex -0.990133 6.16229 1.5
      vertex -1.96465 6.34819 27
    endloop
  endfacet
  facet normal 0.187381 0.982287 0
    outer loop
      vertex -1.96465 6.34819 27
      vertex -0.990133 6.16229 1.5
      vertex -1.96465 6.34819 1.5
    endloop
  endfacet
  facet normal 0.0627906 0.998027 0
    outer loop
      vertex -1.75415e-15 6.1 27
      vertex -1.75415e-15 6.1 1.5
      vertex -0.990133 6.16229 27
    endloop
  endfacet
  facet normal 0.0627906 0.998027 0
    outer loop
      vertex -0.990133 6.16229 27
      vertex -1.75415e-15 6.1 1.5
      vertex -0.990133 6.16229 1.5
    endloop
  endfacet
  facet normal -0.0627906 0.998027 0
    outer loop
      vertex 0.990133 6.16229 27
      vertex 0.990133 6.16229 1.5
      vertex -1.75415e-15 6.1 27
    endloop
  endfacet
  facet normal -0.0627906 0.998027 0
    outer loop
      vertex -1.75415e-15 6.1 27
      vertex 0.990133 6.16229 1.5
      vertex -1.75415e-15 6.1 1.5
    endloop
  endfacet
  facet normal -0.187381 0.982287 0
    outer loop
      vertex 1.96465 6.34819 27
      vertex 1.96465 6.34819 1.5
      vertex 0.990133 6.16229 27
    endloop
  endfacet
  facet normal -0.187381 0.982287 0
    outer loop
      vertex 0.990133 6.16229 27
      vertex 1.96465 6.34819 1.5
      vertex 0.990133 6.16229 1.5
    endloop
  endfacet
  facet normal -0.309017 0.951056 0
    outer loop
      vertex 2.90818 6.65477 27
      vertex 2.90818 6.65477 1.5
      vertex 1.96465 6.34819 27
    endloop
  endfacet
  facet normal -0.309017 0.951056 0
    outer loop
      vertex 1.96465 6.34819 27
      vertex 2.90818 6.65477 1.5
      vertex 1.96465 6.34819 1.5
    endloop
  endfacet
  facet normal -0.425779 0.904827 0
    outer loop
      vertex 3.80585 7.07718 27
      vertex 3.80585 7.07718 1.5
      vertex 2.90818 6.65477 27
    endloop
  endfacet
  facet normal -0.425779 0.904827 0
    outer loop
      vertex 2.90818 6.65477 27
      vertex 3.80585 7.07718 1.5
      vertex 2.90818 6.65477 1.5
    endloop
  endfacet
  facet normal -0.535827 0.844328 0
    outer loop
      vertex 4.6435 7.60877 27
      vertex 4.6435 7.60877 1.5
      vertex 3.80585 7.07718 27
    endloop
  endfacet
  facet normal -0.535827 0.844328 0
    outer loop
      vertex 3.80585 7.07718 27
      vertex 4.6435 7.60877 1.5
      vertex 3.80585 7.07718 1.5
    endloop
  endfacet
endsolid OpenSCAD_Model
